<?xml version="1.0" encoding="UTF-8"?>
<!-- Generator: https://ezgif.com/png-to-svg -->
<svg version="1.1" xmlns="http://www.w3.org/2000/svg" width="143" height="143">
<path d="M0 0 C14.38 11.73 26.02 27.88 28.31 46.72 C29.8 68.07 26.7 88 12.33 104.63 C-0.8 119.01 -17.21 129.07 -37.03 130.03 C-57.4 130.64 -75.77 126.37 -91.13 112.35 C-105.73 98.34 -114.48 81.89 -115.09 61.44 C-115.34 41.32 -110.01 23.51 -95.89 8.8 C-70.49 -16.64 -29.63 -22.39 0 0 Z " fill="#0E0507" transform="translate(114.693359375,13.27978515625)"/>
<path d="M0 0 C8.45 6.89 17.2 15.06 20.31 25.72 C16.43 23.1 16.43 23.1 15.31 19.72 C13 19.39 10.69 19.06 8.31 18.72 C7.98 20.37 7.65 22.02 7.31 23.72 C9.29 24.05 11.27 24.38 13.31 24.72 C12.98 27.03 12.65 29.34 12.31 31.72 C14.95 32.05 17.59 32.38 20.31 32.72 C19.32 33.22 19.32 33.22 18.31 33.72 C18.44 34.34 18.57 34.96 18.71 35.59 C20.82 45.7 21.44 54.41 20.31 64.72 C19.65 64.72 18.99 64.72 18.31 64.72 C17.98 59.44 17.65 54.16 17.31 48.72 C16.65 48.72 15.99 48.72 15.31 48.72 C14.98 44.43 14.65 40.14 14.31 35.72 C11.46 35.78 11.46 35.78 8.56 35.85 C4.33 35.94 2.01 35.57 -1.69 33.72 C-8.8 32.55 -16.02 32.19 -23.19 31.66 C-24.4 31.57 -25.6 31.48 -26.84 31.38 C-29.79 31.16 -32.74 30.94 -35.69 30.72 C-35.69 30.06 -35.69 29.4 -35.69 28.72 C-36.42 28.89 -37.14 29.05 -37.88 29.22 C-40.56 29.7 -42.98 29.8 -45.69 29.72 C-46.02 29.06 -46.35 28.4 -46.69 27.72 C-49.98 28.1 -49.98 28.1 -52.69 29.72 C-54.1 29.77 -55.52 29.76 -56.93 29.71 C-67.24 29.49 -76.81 29.34 -86.69 32.72 C-87.02 33.05 -87.35 33.38 -87.69 33.72 C-88.81 33.84 -89.92 33.97 -91.07 34.1 C-94.84 34.75 -95.29 35.09 -97.69 37.72 C-99.01 37.72 -100.33 37.72 -101.69 37.72 C-101.69 38.71 -101.69 39.7 -101.69 40.72 C-103.67 41.38 -105.65 42.04 -107.69 42.72 C-108.02 42.39 -108.35 42.06 -108.69 41.72 C-109.35 43.7 -110.01 45.68 -110.69 47.72 C-111.68 47.72 -112.67 47.72 -113.69 47.72 C-113.29 31.11 -103.99 17.23 -92.69 5.72 C-92.09 5.09 -91.49 4.46 -90.87 3.82 C-66.94 -19.12 -25.94 -19.61 0 0 Z " fill="#0C0406" transform="translate(114.693359375,13.27978515625)"/>
<path d="M0 0 C0 2.31 0 4.62 0 7 C0.66 7 1.32 7 2 7 C2 7.66 2 8.32 2 9 C3.05 8.97 4.1 8.95 5.18 8.92 C9.1 8.83 13.02 8.77 16.94 8.73 C18.63 8.7 20.32 8.67 22.02 8.62 C39.38 8.19 39.38 8.19 46 14 C48 16 48 16 48.12 19.62 C48.08 20.74 48.04 21.85 48 23 C46.35 23.66 44.7 24.32 43 25 C47.92 31.56 54.2 36.47 61 41 C61 41.66 61 42.32 61 43 C43.21 44.31 43.21 44.31 38.29 41.39 C36.59 39.35 35.3 37.31 34 35 C32.55 33.44 32.55 33.44 31.06 32.12 C29 30 29 30 29 28 C27.68 28 26.36 28 25 28 C25.17 28.99 25.33 29.98 25.5 31 C26.18 35.1 26 38.67 26 43 C20.72 43 15.44 43 10 43 C10 40.03 10 37.06 10 34 C5.82 35 5.82 35 3 43 C-2.94 43 -8.88 43 -15 43 C-18.8 34.82 -21.87 26.45 -25 18 C-31.27 17.67 -37.54 17.34 -44 17 C-44 18.65 -44 20.3 -44 22 C-37.73 22 -31.46 22 -25 22 C-25 24.31 -25 26.62 -25 29 C-26 30 -26 30 -27.95 30.11 C-28.78 30.11 -29.61 30.1 -30.47 30.1 C-31.37 30.09 -32.27 30.09 -33.2 30.09 C-34.14 30.08 -35.09 30.07 -36.06 30.06 C-37.01 30.06 -37.96 30.05 -38.94 30.05 C-41.29 30.04 -43.65 30.02 -46 30 C-46 31.32 -46 32.64 -46 34 C-38.08 34 -30.16 34 -22 34 C-22 36.97 -22 39.94 -22 43 C-37.84 43.33 -53.68 43.66 -70 44 C-70 42.68 -70 41.36 -70 40 C-68.35 40 -66.7 40 -65 40 C-64.8 39.12 -64.8 39.12 -64.59 38.23 C-63.96 35.53 -63.32 32.83 -62.69 30.12 C-62.47 29.21 -62.26 28.29 -62.04 27.34 C-61.83 26.43 -61.61 25.51 -61.39 24.57 C-61.19 23.74 -61 22.92 -60.8 22.06 C-59.65 17.68 -58.3 13.34 -57 9 C-42.81 9 -28.62 9 -14 9 C-13.34 7.68 -12.68 6.36 -12 5 C-8.01 1.01 -5.7 -0.68 0 0 Z " fill="#B2B0BC" transform="translate(74,44)"/>
<path d="M0 0 C3.25 -0.38 3.25 -0.38 7 0 C9.25 2.81 9.25 2.81 11 6 C11.49 6.47 11.98 6.93 12.48 7.41 C14.33 9.35 15.09 11.13 16.06 13.62 C16.54 14.82 16.54 14.82 17.04 16.04 C19.68 24.15 20.26 31.55 20.12 40.06 C20.12 41.12 20.11 42.18 20.1 43.26 C20.07 45.84 20.04 48.42 20 51 C18.02 51 16.04 51 14 51 C14.33 51.99 14.66 52.98 15 54 C14.67 54.66 14.34 55.32 14 56 C7.73 56.33 1.46 56.66 -5 57 C-5.5 57.99 -5.5 57.99 -6 59 C-7.05 58.98 -8.1 58.95 -9.18 58.93 C-10.55 58.91 -11.93 58.89 -13.31 58.88 C-14 58.86 -14.69 58.84 -15.4 58.82 C-19.17 58.79 -20.78 58.86 -24 61 C-26.02 61.16 -26.02 61.16 -28.38 61.06 C-34.62 60.92 -40.78 61.45 -47 62 C-47 61.34 -47 60.68 -47 60 C-47.99 60.5 -47.99 60.5 -49 61 C-51.37 61.07 -53.75 61.08 -56.12 61.06 C-57.41 61.05 -58.69 61.04 -60.01 61.04 C-61.49 61.02 -61.49 61.02 -63 61 C-63 60.34 -63 59.68 -63 59 C-63.86 59.31 -64.73 59.62 -65.62 59.93 C-71.03 61.64 -76.58 62.3 -82.19 63.12 C-83.36 63.31 -84.52 63.49 -85.73 63.68 C-92.88 64.74 -99.78 65.25 -107 65 C-107 65.99 -107 66.98 -107 68 C-105.68 68 -104.36 68 -103 68 C-102.91 68.89 -102.91 68.89 -102.82 69.79 C-102.38 73.91 -101.91 77.96 -101 82 C-102.81 82.69 -102.81 82.69 -105 83 C-106.75 81.69 -106.75 81.69 -108 80 C-108 79.34 -108 78.68 -108 78 C-108.66 78 -109.32 78 -110 78 C-110 77.34 -110 76.68 -110 76 C-110.66 76 -111.32 76 -112 76 C-112.33 73.69 -112.66 71.38 -113 69 C-114.65 68.67 -116.3 68.34 -118 68 C-118.65 66.11 -119.29 64.21 -119.94 62.31 C-120.48 60.73 -120.48 60.73 -121.03 59.11 C-122.48 54.48 -123.12 50.34 -123.1 45.48 C-123.09 44.46 -123.09 43.44 -123.09 42.38 C-123.08 41.33 -123.07 40.27 -123.06 39.19 C-123.06 38.11 -123.05 37.04 -123.05 35.93 C-123.04 33.29 -123.02 30.64 -123 28 C-121.68 28 -120.36 28 -119 28 C-118.34 26.02 -117.68 24.04 -117 22 C-116.01 22.33 -115.02 22.66 -114 23 C-111.86 22.61 -111.86 22.61 -110 22 C-110 21.01 -110 20.02 -110 19 C-109.22 18.71 -108.43 18.42 -107.62 18.12 C-104.9 17.15 -104.9 17.15 -103 15 C-100.67 14.63 -98.34 14.31 -96 14 C-92.6 13.09 -89.28 12.1 -85.95 10.93 C-81.1 9.55 -76.25 9.86 -71.25 10 C-69.38 10.05 -67.51 10.09 -65.64 10.12 C-64.82 10.15 -64 10.17 -63.16 10.2 C-60.7 10.15 -60.7 10.15 -58 8 C-55.81 8.38 -55.81 8.38 -54 9 C-54 9.66 -54 10.32 -54 11 C-50.7 10.67 -47.4 10.34 -44 10 C-44 10.66 -44 11.32 -44 12 C-43.3 11.99 -42.59 11.98 -41.87 11.96 C-30.21 11.86 -18.37 12.17 -7 15 C-6.5 15.5 -6.5 15.5 -6 16 C-3.98 16.23 -1.96 16.41 0.06 16.56 C3 16.78 3 16.78 6 17 C6.33 21.29 6.66 25.58 7 30 C7.66 30 8.32 30 9 30 C10.14 33.42 10.1 36.09 10.06 39.69 C10.05 40.87 10.04 42.05 10.04 43.26 C10.02 44.62 10.02 44.62 10 46 C10.66 46 11.32 46 12 46 C12.03 43.62 12.05 41.25 12.06 38.88 C12.07 38.21 12.08 37.54 12.09 36.86 C12.11 32.78 11.75 29 11 25 C10.8 23.21 10.61 21.42 10.44 19.62 C10.35 18.75 10.27 17.88 10.18 16.98 C10.12 16.32 10.06 15.67 10 15 C7.69 14.34 5.38 13.68 3 13 C3.66 10.69 4.32 8.38 5 6 C3.02 5.67 1.04 5.34 -1 5 C-0.67 3.35 -0.34 1.7 0 0 Z M-63 19 C-63 19.66 -63 20.32 -63 21 C-77.19 21 -91.38 21 -106 21 C-107.13 25 -108.27 29 -109.44 33.12 C-109.79 34.38 -110.15 35.63 -110.52 36.91 C-110.8 37.91 -111.08 38.91 -111.37 39.95 C-111.66 40.96 -111.95 41.98 -112.24 43.02 C-113 46 -113.54 48.96 -114 52 C-115.65 52 -117.3 52 -119 52 C-119 53.32 -119 54.64 -119 56 C-103.16 55.67 -87.32 55.34 -71 55 C-71 52.03 -71 49.06 -71 46 C-78.92 46 -86.84 46 -95 46 C-95 44.68 -95 43.36 -95 42 C-94.1 42.01 -94.1 42.01 -93.18 42.02 C-90.47 42.04 -87.77 42.05 -85.06 42.06 C-84.12 42.07 -83.17 42.08 -82.2 42.09 C-81.3 42.09 -80.4 42.09 -79.47 42.1 C-78.64 42.1 -77.81 42.11 -76.95 42.11 C-74.99 42.22 -74.99 42.22 -74 41 C-74 38.69 -74 36.38 -74 34 C-80.27 34 -86.54 34 -93 34 C-93 32.35 -93 30.7 -93 29 C-86.73 29.33 -80.46 29.66 -74 30 C-70.69 38.56 -70.69 38.56 -69.66 41.22 C-69.39 41.93 -69.11 42.64 -68.82 43.38 C-68.55 44.1 -68.27 44.81 -67.98 45.55 C-66.71 48.72 -65.35 51.86 -64 55 C-58.06 55 -52.12 55 -46 55 C-44.68 52.36 -43.36 49.72 -42 47 C-41.01 46.67 -40.02 46.34 -39 46 C-39 48.97 -39 51.94 -39 55 C-33.72 55 -28.44 55 -23 55 C-22.91 48.88 -22.91 48.88 -23.5 43 C-23.67 42.01 -23.83 41.02 -24 40 C-22.68 40 -21.36 40 -20 40 C-19.65 40.85 -19.65 40.85 -19.29 41.71 C-17.71 44.52 -15.76 46.4 -13.44 48.62 C-9.1 52.81 -9.1 52.81 -8 55 C-1.4 55 5.2 55 12 55 C12 54.34 12 53.68 12 53 C9.17 50.65 6.27 48.45 3.33 46.25 C-0.33 43.47 -3.28 40.77 -6 37 C-4.35 36.34 -2.7 35.68 -1 35 C-0.5 31.71 -0.5 31.71 -1 28 C-5.22 23.68 -8.73 21.14 -14.76 20.77 C-16.26 20.77 -17.76 20.78 -19.27 20.8 C-20.06 20.81 -20.85 20.81 -21.67 20.81 C-24.2 20.82 -26.72 20.85 -29.25 20.88 C-30.97 20.89 -32.68 20.89 -34.4 20.9 C-38.6 20.92 -42.8 20.96 -47 21 C-47 20.34 -47 19.68 -47 19 C-47.66 19 -48.32 19 -49 19 C-49 16.69 -49 14.38 -49 12 C-55.4 10.88 -58.97 14.47 -63 19 Z " fill="#22131A" transform="translate(123,32)"/>
<path d="M0 0 C6.27 0 12.54 0 19 0 C22.49 8.28 25.81 16.6 29 25 C34.94 25 40.88 25 47 25 C48.32 22.36 49.64 19.72 51 17 C51.99 17 52.98 17 54 17 C54 19.97 54 22.94 54 26 C59.28 26 64.56 26 70 26 C69.5 18.58 69.5 18.58 69 11 C73 11 73 11 74.75 12.57 C75.3 13.27 75.86 13.97 76.44 14.69 C78.51 17.22 80.56 19.63 82.94 21.88 C85 24 85 24 85 26 C90.28 26 95.56 26 101 26 C101 26.33 101 26.66 101 27 C100.07 27.05 99.15 27.1 98.19 27.15 C96.99 27.22 95.8 27.3 94.56 27.38 C93.37 27.44 92.17 27.51 90.94 27.59 C89.97 27.72 89 27.86 88 28 C87.67 28.66 87.34 29.32 87 30 C85.95 29.98 84.9 29.95 83.82 29.93 C82.45 29.91 81.07 29.89 79.69 29.88 C79 29.86 78.31 29.84 77.6 29.82 C73.83 29.79 72.22 29.86 69 32 C66.98 32.16 66.98 32.16 64.62 32.06 C58.38 31.92 52.22 32.45 46 33 C46 32.34 46 31.68 46 31 C45.34 31.33 44.68 31.66 44 32 C41.63 32.07 39.25 32.08 36.88 32.06 C35.59 32.05 34.31 32.04 32.99 32.04 C31.51 32.02 31.51 32.02 30 32 C30 31.34 30 30.68 30 30 C29.14 30.31 28.27 30.62 27.38 30.93 C21.97 32.64 16.42 33.3 10.81 34.12 C9.64 34.31 8.48 34.49 7.27 34.68 C0.12 35.74 -6.78 36.25 -14 36 C-14 36.99 -14 37.98 -14 39 C-12.68 39 -11.36 39 -10 39 C-9.94 39.59 -9.88 40.18 -9.82 40.79 C-9.38 44.91 -8.91 48.96 -8 53 C-9.81 53.69 -9.81 53.69 -12 54 C-13.75 52.69 -13.75 52.69 -15 51 C-15 50.34 -15 49.68 -15 49 C-15.66 49 -16.32 49 -17 49 C-17 48.34 -17 47.68 -17 47 C-17.66 47 -18.32 47 -19 47 C-19.33 44.69 -19.66 42.38 -20 40 C-21.65 39.67 -23.3 39.34 -25 39 C-28.95 28.48 -30.89 19.16 -29 8 C-27.02 8 -25.04 8 -23 8 C-22.67 10.64 -22.34 13.28 -22 16 C-21.34 16 -20.68 16 -20 16 C-20 18.31 -20 20.62 -20 23 C-23 24 -23 24 -26 23 C-26 24.32 -26 25.64 -26 27 C-25.34 26.67 -24.68 26.34 -24 26 C-22.52 25.91 -21.03 25.88 -19.55 25.89 C-18.17 25.89 -18.17 25.89 -16.76 25.89 C-15.27 25.89 -15.27 25.89 -13.74 25.9 C-12.21 25.9 -12.21 25.9 -10.66 25.91 C-7.4 25.91 -4.14 25.92 -0.88 25.94 C1.33 25.94 3.54 25.95 5.75 25.95 C11.16 25.96 16.58 25.98 22 26 C22 23.03 22 20.06 22 17 C14.08 17 6.16 17 -2 17 C-2 15.68 -2 14.36 -2 13 C7.9 12.5 7.9 12.5 18 12 C18.33 9.69 18.66 7.38 19 5 C12.73 5 6.46 5 0 5 C0 3.35 0 1.7 0 0 Z " fill="#302027" transform="translate(30,61)"/>
<path d="M0 0 C0 2.31 0 4.62 0 7 C0.66 7 1.32 7 2 7 C2 7.66 2 8.32 2 9 C3.05 8.97 4.1 8.95 5.18 8.92 C9.1 8.83 13.02 8.77 16.94 8.73 C18.63 8.7 20.32 8.67 22.02 8.62 C39.34 8.19 39.34 8.19 46 14 C44.68 14.66 43.36 15.32 42 16 C41.5 15.01 41.5 15.01 41 14 C39.68 14 38.36 14 37 14 C37 14.66 37 15.32 37 16 C35.52 16.49 35.52 16.49 34 17 C34 17.99 34 18.98 34 20 C31.12 20.96 29.3 21.11 26.31 21.06 C25.1 21.05 25.1 21.05 23.86 21.04 C23.25 21.02 22.63 21.01 22 21 C22 19.02 22 17.04 22 15 C22.75 14.95 23.5 14.9 24.27 14.85 C25.74 14.74 25.74 14.74 27.25 14.62 C28.22 14.56 29.2 14.49 30.2 14.41 C32.9 14.02 34.67 13.36 37 12 C33.46 10.82 30.66 10.89 26.93 10.9 C26.24 10.9 25.56 10.91 24.85 10.91 C22.67 10.91 20.49 10.92 18.31 10.94 C16.83 10.94 15.35 10.95 13.87 10.95 C10.25 10.96 6.62 10.98 3 11 C1.22 14.51 -0.38 17.85 -1.5 21.62 C-2.55 24.91 -3.64 27.41 -6 30 C-6.5 28.02 -6.5 28.02 -7 26 C-7.66 26 -8.32 26 -9 26 C-9.35 25 -9.7 24 -10.06 22.97 C-10.52 21.67 -10.98 20.37 -11.44 19.06 C-11.67 18.4 -11.9 17.74 -12.13 17.06 C-13.12 13.78 -13.12 13.78 -15 11 C-17.59 10.84 -20.16 10.74 -22.75 10.68 C-23.92 10.65 -23.92 10.65 -25.1 10.62 C-27.59 10.56 -30.08 10.5 -32.56 10.44 C-34.24 10.39 -35.93 10.35 -37.61 10.31 C-41.74 10.2 -45.87 10.1 -50 10 C-50 10.99 -50 11.98 -50 13 C-50.66 13 -51.32 13 -52 13 C-52.33 14.98 -52.66 16.96 -53 19 C-51.02 19.33 -49.04 19.66 -47 20 C-47 21.32 -47 22.64 -47 24 C-46.34 24 -45.68 24 -45 24 C-45.33 25.32 -45.66 26.64 -46 28 C-39.4 28 -32.8 28 -26 28 C-26 26.35 -26 24.7 -26 23 C-32.27 23 -38.54 23 -45 23 C-45 21.02 -45 19.04 -45 17 C-44.67 17 -44.34 17 -44 17 C-44 18.65 -44 20.3 -44 22 C-37.73 22 -31.46 22 -25 22 C-25 24.31 -25 26.62 -25 29 C-26 30 -26 30 -27.95 30.11 C-28.78 30.11 -29.61 30.1 -30.47 30.1 C-31.37 30.09 -32.27 30.09 -33.2 30.09 C-34.14 30.08 -35.09 30.07 -36.06 30.06 C-37.01 30.06 -37.96 30.05 -38.94 30.05 C-41.29 30.04 -43.65 30.02 -46 30 C-46 31.32 -46 32.64 -46 34 C-38.08 34 -30.16 34 -22 34 C-22 36.97 -22 39.94 -22 43 C-37.84 43.33 -53.68 43.66 -70 44 C-70 42.68 -70 41.36 -70 40 C-68.35 40 -66.7 40 -65 40 C-64.8 39.12 -64.8 39.12 -64.59 38.23 C-63.96 35.53 -63.32 32.83 -62.69 30.12 C-62.47 29.21 -62.26 28.29 -62.04 27.34 C-61.83 26.43 -61.61 25.51 -61.39 24.57 C-61.19 23.74 -61 22.92 -60.8 22.06 C-59.65 17.68 -58.3 13.34 -57 9 C-42.81 9 -28.62 9 -14 9 C-13.34 7.68 -12.68 6.36 -12 5 C-8.01 1.01 -5.7 -0.68 0 0 Z " fill="#ACADB8" transform="translate(74,44)"/>
<path d="M0 0 C0 2.31 0 4.62 0 7 C0.66 7 1.32 7 2 7 C2 7.66 2 8.32 2 9 C3.05 8.97 4.1 8.95 5.18 8.92 C9.1 8.83 13.02 8.77 16.94 8.73 C18.63 8.7 20.32 8.67 22.02 8.62 C39.34 8.19 39.34 8.19 46 14 C44.68 14.66 43.36 15.32 42 16 C41.5 15.01 41.5 15.01 41 14 C39.68 14 38.36 14 37 14 C37 14.66 37 15.32 37 16 C35.52 16.49 35.52 16.49 34 17 C34 17.99 34 18.98 34 20 C31.12 20.96 29.3 21.11 26.31 21.06 C25.1 21.05 25.1 21.05 23.86 21.04 C23.25 21.02 22.63 21.01 22 21 C22 19.02 22 17.04 22 15 C22.75 14.95 23.5 14.9 24.27 14.85 C25.74 14.74 25.74 14.74 27.25 14.62 C28.22 14.56 29.2 14.49 30.2 14.41 C32.9 14.02 34.67 13.36 37 12 C33.46 10.82 30.66 10.89 26.93 10.9 C26.24 10.9 25.56 10.91 24.85 10.91 C22.67 10.91 20.49 10.92 18.31 10.94 C16.83 10.94 15.35 10.95 13.87 10.95 C10.25 10.96 6.62 10.98 3 11 C1.22 14.51 -0.38 17.85 -1.5 21.62 C-2.55 24.91 -3.64 27.41 -6 30 C-6.5 28.02 -6.5 28.02 -7 26 C-7.66 26 -8.32 26 -9 26 C-9.35 25 -9.7 24 -10.06 22.97 C-10.52 21.67 -10.98 20.37 -11.44 19.06 C-11.67 18.4 -11.9 17.74 -12.13 17.06 C-13.12 13.78 -13.12 13.78 -15 11 C-18.1 10.84 -21.18 10.74 -24.29 10.68 C-25.22 10.66 -26.15 10.64 -27.11 10.62 C-30.09 10.56 -33.08 10.5 -36.06 10.44 C-38.08 10.39 -40.1 10.35 -42.12 10.31 C-47.08 10.2 -52.04 10.1 -57 10 C-57 9.67 -57 9.34 -57 9 C-42.81 9 -28.62 9 -14 9 C-13.34 7.68 -12.68 6.36 -12 5 C-8.01 1.01 -5.7 -0.68 0 0 Z " fill="#8E8A96" transform="translate(74,44)"/>
<path d="M0 0 C3.25 -0.38 3.25 -0.38 7 0 C9.25 2.81 9.25 2.81 11 6 C11.49 6.47 11.98 6.93 12.48 7.41 C19.82 15.09 20.22 28.79 20.27 38.67 C19.99 42.08 19.22 44.82 18 48 C16.68 48 15.36 48 14 48 C13.97 46.54 13.95 45.08 13.94 43.62 C13.93 42.81 13.91 42 13.9 41.16 C14 39 14 39 15 37 C14.34 37 13.68 37 13 37 C10.82 29.74 10.4 22.55 10 15 C7.69 14.34 5.38 13.68 3 13 C3.66 10.69 4.32 8.38 5 6 C2.03 5.51 2.03 5.51 -1 5 C-0.67 3.35 -0.34 1.7 0 0 Z " fill="#1C141B" transform="translate(123,32)"/>
<path d="M0 0 C0.99 0.33 1.98 0.66 3 1 C3 1.66 3 2.32 3 3 C4.32 2.67 5.64 2.34 7 2 C7 3.65 7 5.3 7 7 C7.66 6.67 8.32 6.34 9 6 C9 4.68 9 3.36 9 2 C9.99 1.67 10.98 1.34 12 1 C13 2 13 2 13 9 C20.92 9 28.84 9 37 9 C37 11.31 37 13.62 37 16 C23.47 16 9.94 16 -4 16 C-3.34 13.69 -2.68 11.38 -2 9 C-1.01 10.48 -1.01 10.48 0 12 C0.66 12 1.32 12 2 12 C1.67 10.68 1.34 9.36 1 8 C1.66 7.67 2.32 7.34 3 7 C2.67 5.68 2.34 4.36 2 3 C1.34 3 0.68 3 0 3 C0 2.01 0 1.02 0 0 Z " fill="#B5B4C0" transform="translate(14,70)"/>
<path d="M0 0 C0.99 0.33 1.98 0.66 3 1 C3.27 3.31 3.27 3.31 3 6 C0.1 8.67 -3.51 10.22 -7 12 C-7.81 12.49 -8.62 12.98 -9.46 13.49 C-20.02 19.1 -32.4 17.44 -44 17 C-44 15.35 -44 13.7 -44 12 C-37.73 11.67 -31.46 11.34 -25 11 C-25 11.66 -25 12.32 -25 13 C-24.01 13 -23.02 13 -22 13 C-22 11.68 -22 10.36 -22 9 C-20.35 9 -18.7 9 -17 9 C-16.67 8.34 -16.34 7.68 -16 7 C-14.68 7 -13.36 7 -12 7 C-12 5.68 -12 4.36 -12 3 C-10.68 3 -9.36 3 -8 3 C-8 2.34 -8 1.68 -8 1 C-6.87 1.02 -5.73 1.04 -4.56 1.06 C-1.18 1.42 -1.18 1.42 0 0 Z " fill="#16131A" transform="translate(111,124)"/>
<path d="M0 0 C1.98 0 3.96 0 6 0 C6.33 2.64 6.66 5.28 7 8 C7.66 8 8.32 8 9 8 C9 10.31 9 12.62 9 15 C6 16 6 16 3 15 C3 16.32 3 17.64 3 19 C3.66 18.67 4.32 18.34 5 18 C6.48 17.91 7.97 17.88 9.45 17.89 C10.83 17.89 10.83 17.89 12.24 17.89 C13.73 17.89 13.73 17.89 15.26 17.9 C16.79 17.9 16.79 17.9 18.34 17.91 C21.6 17.91 24.86 17.92 28.12 17.94 C30.33 17.94 32.54 17.95 34.75 17.95 C40.16 17.96 45.58 17.98 51 18 C51 18.33 51 18.66 51 19 C39.12 19.33 27.24 19.66 15 20 C18.47 21.16 21.54 21.33 25.19 21.56 C27.1 21.69 27.1 21.69 29.04 21.82 C30.02 21.88 30.99 21.94 32 22 C31.67 22.66 31.34 23.32 31 24 C18.33 24.37 18.33 24.37 13 22 C12.67 24.97 12.34 27.94 12 31 C9.12 30.81 9.12 30.81 6 30 C4.06 26.74 4 24.85 4 21 C3.36 20.78 2.71 20.55 2.05 20.32 C-0 19 -0 19 -0.64 16.68 C-0.99 10.94 -0.96 5.67 0 0 Z " fill="#352C35" transform="translate(1,69)"/>
<path d="M0 0 C2.97 0.5 2.97 0.5 6 1 C5.01 1.33 4.02 1.66 3 2 C3.66 4.97 4.32 7.94 5 11 C7.97 11.5 7.97 11.5 11 12 C11.33 9.03 11.66 6.06 12 3 C12.62 3.07 13.25 3.14 13.89 3.22 C24.25 4.26 34.6 4.1 45 4 C45 4.66 45 5.32 45 6 C23.39 9.58 23.39 9.58 14 9 C14 9.99 14 10.98 14 12 C15.32 12 16.64 12 18 12 C18.06 12.59 18.12 13.18 18.18 13.79 C18.62 17.91 19.09 21.96 20 26 C18.19 26.69 18.19 26.69 16 27 C14.25 25.69 14.25 25.69 13 24 C13 23.34 13 22.68 13 22 C12.34 22 11.68 22 11 22 C11 21.34 11 20.68 11 20 C10.34 20 9.68 20 9 20 C8.67 17.69 8.34 15.38 8 13 C7.24 13 6.47 13 5.69 13 C3 12 3 12 2 10.29 C0.58 6.6 0 4.03 0 0 Z " fill="#1F1119" transform="translate(2,88)"/>
<path d="M0 0 C6.27 0 12.54 0 19 0 C21.95 6.94 24.72 13.81 27 21 C25.35 20.67 23.7 20.34 22 20 C22 19.01 22 18.02 22 17 C14.08 17 6.16 17 -2 17 C-2 15.68 -2 14.36 -2 13 C7.9 12.5 7.9 12.5 18 12 C18.33 9.69 18.66 7.38 19 5 C12.73 5 6.46 5 0 5 C0 3.35 0 1.7 0 0 Z " fill="#5F5760" transform="translate(30,61)"/>
<path d="M0 0 C1.07 3.27 0.89 5.43 0.06 8.75 C-0.13 9.55 -0.33 10.35 -0.53 11.17 C-0.68 11.78 -0.84 12.38 -1 13 C-0.34 13 0.32 13 1 13 C1.66 14.65 2.32 16.3 3 18 C2.01 18 1.02 18 0 18 C0.33 19.32 0.66 20.64 1 22 C0.01 22.33 -0.98 22.66 -2 23 C-2.33 22.01 -2.66 21.02 -3 20 C-3 21.65 -3 23.3 -3 25 C16.3 25.5 16.3 25.5 36 26 C36 23.69 36 21.38 36 19 C28.08 19 20.16 19 12 19 C12 17.02 12 15.04 12 13 C18.93 13 25.86 13 33 13 C33 13.33 33 13.66 33 14 C26.4 14 19.8 14 13 14 C13 15.32 13 16.64 13 18 C20.92 18 28.84 18 37 18 C37 20.97 37 23.94 37 27 C21.16 27.33 5.32 27.66 -11 28 C-11 26.68 -11 25.36 -11 24 C-9.35 24 -7.7 24 -6 24 C-5.85 23.38 -5.71 22.76 -5.56 22.12 C-4.89 19.31 -4.23 16.5 -3.56 13.69 C-3.33 12.71 -3.1 11.73 -2.87 10.73 C-2.64 9.79 -2.42 8.85 -2.19 7.89 C-1.99 7.02 -1.78 6.16 -1.57 5.27 C-1.12 3.49 -0.58 1.74 0 0 Z " fill="#9997A1" transform="translate(15,60)"/>
<path d="M0 0 C1.68 0.29 3.34 0.62 5 1 C4.67 2.32 4.34 3.64 4 5 C-2.44 5.5 -2.44 5.5 -9 6 C-9 6.66 -9 7.32 -9 8 C-11.31 7.67 -13.62 7.34 -16 7 C-16 8.65 -16 10.3 -16 12 C-19.66 12.75 -22.42 13.24 -26 12 C-26.33 10.68 -26.66 9.36 -27 8 C-23.81 5.18 -21.23 4.38 -17 4 C-16.67 4.33 -16.34 4.66 -16 5 C-15.67 4.01 -15.34 3.02 -15 2 C-12.24 0.62 -10.01 0.94 -6.94 1 C-4.96 1.04 -2.98 1.05 -1 1 C-0.67 0.67 -0.34 0.34 0 0 Z " fill="#232228" transform="translate(67,1)"/>
<path d="M0 0 C5.28 0 10.56 0 16 0 C14.28 6.87 12.4 12.79 9 19 C8.34 17.68 7.68 16.36 7 15 C6.34 15 5.68 15 5 15 C4.16 12.69 3.33 10.38 2.5 8.06 C2.26 7.4 2.02 6.74 1.78 6.06 C0 1.11 0 1.11 0 0 Z " fill="#5D535C" transform="translate(60,55)"/>
<path d="M0 0 C-1.51 8.47 -3.72 16.71 -6 25 C-6.99 24.67 -7.98 24.34 -9 24 C-9.33 21.36 -9.66 18.72 -10 16 C-11.65 16 -13.3 16 -15 16 C-15 15.34 -15 14.68 -15 14 C-14.34 14 -13.68 14 -13 14 C-13 13.34 -13 12.68 -13 12 C-12.34 12 -11.68 12 -11 12 C-11.33 10.68 -11.66 9.36 -12 8 C-11.01 8 -10.02 8 -9 8 C-9 6.68 -9 5.36 -9 4 C-8.4 3.71 -7.8 3.42 -7.19 3.12 C-1.11 0 -1.11 0 0 0 Z " fill="#251A1E" transform="translate(17,53)"/>
<path d="M0 0 C0.99 0.33 1.98 0.66 3 1 C2.67 2.32 2.34 3.64 2 5 C0.68 5 -0.64 5 -2 5 C-2 5.66 -2 6.32 -2 7 C-3.65 7 -5.3 7 -7 7 C-7 7.66 -7 8.32 -7 9 C-13.93 9 -20.86 9 -28 9 C-28 7.35 -28 5.7 -28 4 C-21.73 3.67 -15.46 3.34 -9 3 C-9 3.66 -9 4.32 -9 5 C-8.01 5 -7.02 5 -6 5 C-6 3.68 -6 2.36 -6 1 C-4.79 1.03 -4.79 1.03 -3.56 1.06 C-1.07 1.3 -1.07 1.3 0 0 Z " fill="#474A52" transform="translate(95,132)"/>
<path d="M0 0 C-0.04 0.74 -0.08 1.48 -0.12 2.25 C0 5.09 0.57 6.59 2 9 C-1.09 10.76 -2.23 11 -6 11 C-6.33 11.66 -6.66 12.32 -7 13 C-9.97 12.5 -9.97 12.5 -13 12 C-13.52 6.84 -13.52 6.84 -13 4 C-8.9 -0 -5.6 -0.45 0 0 Z " fill="#121014" transform="translate(39,11)"/>
<path d="M0 0 C0.33 0.66 0.66 1.32 1 2 C1.66 1.67 2.32 1.34 3 1 C4.47 0.9 5.95 0.87 7.43 0.87 C8.75 0.87 8.75 0.87 10.09 0.86 C11.01 0.87 11.93 0.87 12.88 0.88 C14.24 0.87 14.24 0.87 15.64 0.86 C16.96 0.87 16.96 0.87 18.3 0.87 C19.11 0.87 19.91 0.87 20.74 0.87 C22.95 1 24.88 1.39 27 2 C27 2.66 27 3.32 27 4 C27.77 3.84 28.54 3.69 29.34 3.53 C30.34 3.33 31.34 3.14 32.38 2.94 C33.87 2.64 33.87 2.64 35.4 2.34 C38 2 38 2 40 3 C40 3.66 40 4.32 40 5 C41.32 5.66 42.64 6.32 44 7 C43.34 7.33 42.68 7.66 42 8 C41.47 7.7 40.94 7.4 40.39 7.09 C36.92 5.51 33.48 5.64 29.73 5.59 C28.94 5.57 28.15 5.55 27.33 5.53 C24.8 5.47 22.28 5.42 19.75 5.38 C18.03 5.34 16.32 5.3 14.6 5.26 C10.4 5.16 6.2 5.08 2 5 C2 4.34 2 3.68 2 3 C1.34 3 0.68 3 0 3 C0 2.01 0 1.02 0 0 Z " fill="#362531" transform="translate(74,48)"/>
<path d="M0 0 C0.05 2.21 0.09 4.42 0.12 6.62 C0.15 7.85 0.17 9.08 0.2 10.35 C0 13.94 -0.7 16.67 -2 20 C-3.32 20 -4.64 20 -6 20 C-6.03 18.54 -6.05 17.08 -6.06 15.62 C-6.07 14.81 -6.09 14 -6.1 13.16 C-6 11 -6 11 -5 9 C-5.66 9 -6.32 9 -7 9 C-7.33 6.03 -7.66 3.06 -8 0 C-4.3 -0.93 -3.37 -1.08 0 0 Z " fill="#30242F" transform="translate(143,60)"/>
<path d="M0 0 C1.98 0.66 3.96 1.32 6 2 C6 2.99 6 3.98 6 5 C6.91 4.77 7.81 4.55 8.75 4.31 C12 4 12 4 14.38 5.25 C16 7 16 7 16 10 C17.32 10 18.64 10 20 10 C19.67 9.34 19.34 8.68 19 8 C20.32 8.33 21.64 8.66 23 9 C22.67 7.68 22.34 6.36 22 5 C24.95 6.37 27.52 7.88 30 10 C30 10.66 30 11.32 30 12 C12.22 13.31 12.22 13.31 7.22 10.36 C5.49 8.31 4.24 6.37 3 4 C2.02 2.65 1.02 1.32 0 0 Z " fill="#A7ADB5" transform="translate(105,75)"/>
<path d="M0 0 C1.65 0 3.3 0 5 0 C5.33 2.64 5.66 5.28 6 8 C6.66 8 7.32 8 8 8 C8 10.31 8 12.62 8 15 C5 16 5 16 2 15 C1.67 15.99 1.34 16.98 1 18 C0.97 16.04 0.95 14.08 0.94 12.12 C0.93 11.03 0.91 9.94 0.9 8.82 C1 6 1 6 2 4 C1.34 4 0.68 4 0 4 C0 2.68 0 1.36 0 0 Z " fill="#65666C" transform="translate(2,69)"/>
<path d="M0 0 C4 0 4 0 5.82 1.61 C6.39 2.32 6.97 3.02 7.56 3.75 C8.14 4.45 8.72 5.14 9.32 5.86 C10.91 7.88 12.47 9.93 14 12 C12.68 12 11.36 12 10 12 C9.67 11.34 9.34 10.68 9 10 C6.69 10.33 4.38 10.66 2 11 C1.67 12.32 1.34 13.64 1 15 C0.67 10.05 0.34 5.1 0 0 Z " fill="#49414A" transform="translate(99,72)"/>
<path d="M0 0 C1.32 0 2.64 0 4 0 C4 0.66 4 1.32 4 2 C5.98 1.34 7.96 0.68 10 0 C11.01 2.69 11.23 4.42 10.18 7.11 C9.17 9.11 8.12 11.06 7 13 C6.34 11.68 5.68 10.36 5 9 C4.34 9 3.68 9 3 9 C2.01 6.03 1.02 3.06 0 0 Z " fill="#6E656F" transform="translate(62,61)"/>
<path d="M0 0 C0.33 0 0.66 0 1 0 C1.33 3.3 1.66 6.6 2 10 C2.66 10 3.32 10 4 10 C4 10.99 4 11.98 4 13 C4.66 13 5.32 13 6 13 C6 13.99 6 14.98 6 16 C6.66 16.66 7.32 17.32 8 18 C3.26 18 2.62 17.22 -0.75 14.12 C-1.55 13.41 -2.35 12.69 -3.17 11.95 C-5 10 -5 10 -5 8 C-4.04 7.69 -4.04 7.69 -3.06 7.38 C-0.65 6.1 -0.65 6.1 -0.25 2.88 C-0.17 1.93 -0.08 0.98 0 0 Z " fill="#3B2F3C" transform="translate(122,61)"/>
<path d="M0 0 C-0.39 2.8 -0.8 3.82 -2.94 5.75 C-5 7 -5 7 -7 7 C-7.33 7.99 -7.66 8.98 -8 10 C-9.32 9.67 -10.64 9.34 -12 9 C-11.75 5.62 -10.72 4.72 -8.25 2.25 C-4.98 -0.01 -3.83 -0.56 0 0 Z " fill="#61676A" transform="translate(38,12)"/>
<path d="M0 0 C1.88 0.31 1.88 0.31 4 1 C6 4 6 4 6 8 C6.99 8.33 7.98 8.66 9 9 C9 9.99 9 10.98 9 12 C7.35 11.67 5.7 11.34 4 11 C3.67 9.68 3.34 8.36 3 7 C2.34 7 1.68 7 1 7 C0.67 4.69 0.34 2.38 0 0 Z " fill="#75717A" transform="translate(12,103)"/>
<path d="M0 0 C3.76 1.25 4.15 2.63 6 6 C6.33 6.33 6.66 6.66 7 7 C7.04 9 7.04 11 7 13 C5.68 13 4.36 13 3 13 C2.52 11.75 2.04 10.5 1.56 9.25 C1.3 8.55 1.03 7.86 0.75 7.14 C0.03 5.1 -0.6 3.13 -1 1 C-0.67 0.67 -0.34 0.34 0 0 Z " fill="#6C6874" transform="translate(128,32)"/>
<path d="M0 0 C-0.33 0.99 -0.66 1.98 -1 3 C-1.99 3 -2.98 3 -4 3 C-4 3.66 -4 4.32 -4 5 C-6.81 6.56 -6.81 6.56 -10 8 C-10.99 7.67 -11.98 7.34 -13 7 C-11.62 3.61 -10.35 2.27 -7.06 0.69 C-6.37 0.34 -5.68 -0.01 -4.97 -0.36 C-3 -1 -3 -1 0 0 Z " fill="#71777C" transform="translate(114,125)"/>
<path d="M0 0 C2.95 1.37 5.52 2.88 8 5 C8 5.66 8 6.32 8 7 C1.4 7 -5.2 7 -12 7 C-12 6.67 -12 6.34 -12 6 C-8.7 5.67 -5.4 5.34 -2 5 C-2.33 4.34 -2.66 3.68 -3 3 C-1.68 3.33 -0.36 3.66 1 4 C0.67 2.68 0.34 1.36 0 0 Z " fill="#958F9D" transform="translate(127,80)"/>
<path d="M0 0 C1.32 3.97 0.18 6.81 -0.94 10.69 C-1.13 11.39 -1.33 12.09 -1.53 12.81 C-2.01 14.55 -2.51 16.27 -3 18 C-3.99 17.67 -4.98 17.34 -6 17 C-6.33 14.36 -6.66 11.72 -7 9 C-8.32 8.67 -9.64 8.34 -11 8 C-9.35 8 -7.7 8 -6 8 C-5.67 8.99 -5.34 9.98 -5 11 C-4.01 8.03 -3.02 5.06 -2 2 C-1.34 2 -0.68 2 0 2 C0 1.34 0 0.68 0 0 Z " fill="#39333C" transform="translate(14,60)"/>
<path d="M0 0 C1.32 0 2.64 0 4 0 C3.67 1.32 3.34 2.64 3 4 C5.31 4 7.62 4 10 4 C10 5.32 10 6.64 10 8 C8.68 8 7.36 8 6 8 C6 7.34 6 6.68 6 6 C3.36 6 0.72 6 -2 6 C-1.12 1.12 -1.12 1.12 0 0 Z " fill="#AEABB6" transform="translate(63,48)"/>
<path d="M0 0 C2.97 0 5.94 0 9 0 C9.66 1.32 10.32 2.64 11 4 C8.59 5.2 7.05 5.1 4.38 5.06 C3.15 5.05 3.15 5.05 1.9 5.04 C0.96 5.02 0.96 5.02 0 5 C0 3.35 0 1.7 0 0 Z " fill="#646069" transform="translate(96,60)"/>
<path d="M0 0 C1.65 0 3.3 0 5 0 C5.33 2.64 5.66 5.28 6 8 C6.66 8 7.32 8 8 8 C8 9.65 8 11.3 8 13 C7.01 13.33 6.02 13.66 5 14 C4.67 11.36 4.34 8.72 4 6 C3.34 6 2.68 6 2 6 C2 5.34 2 4.68 2 4 C1.34 4 0.68 4 0 4 C0 2.68 0 1.36 0 0 Z " fill="#5F5765" transform="translate(2,69)"/>
<path d="M0 0 C1.65 0 3.3 0 5 0 C5.33 2.64 5.66 5.28 6 8 C5.01 8.33 4.02 8.66 3 9 C2.34 8.67 1.68 8.34 1 8 C0.41 5.35 0.26 2.71 0 0 Z " fill="#645C66" transform="translate(6,91)"/>
<path d="M0 0 C1.32 0 2.64 0 4 0 C5.48 1.53 5.48 1.53 6.75 3.5 C7.18 4.15 7.61 4.8 8.05 5.47 C8.36 5.97 8.68 6.48 9 7 C8.01 7.33 7.02 7.66 6 8 C6 7.34 6 6.68 6 6 C4.02 6.33 2.04 6.66 0 7 C0 4.69 0 2.38 0 0 Z " fill="#5F5C63" transform="translate(99,72)"/>
<path d="M0 0 C2 1 2 1 2.85 3.29 C3.11 4.2 3.36 5.12 3.62 6.06 C4.02 7.44 4.02 7.44 4.41 8.85 C4.61 9.56 4.8 10.27 5 11 C3.68 10.67 2.36 10.34 1 10 C1 8.35 1 6.7 1 5 C-5.27 5 -11.54 5 -18 5 C-18 4.67 -18 4.34 -18 4 C-11.73 4 -5.46 4 1 4 C0.67 2.68 0.34 1.36 0 0 Z " fill="#7A7880" transform="translate(48,61)"/>
<path d="M0 0 C2.97 0 5.94 0 9 0 C9 0.66 9 1.32 9 2 C9.99 2.33 10.98 2.66 12 3 C9.08 4.98 7.88 4.99 4.25 4.62 C3.18 4.42 2.1 4.21 1 4 C0.67 2.68 0.34 1.36 0 0 Z " fill="#4B424E" transform="translate(60,55)"/>
<path d="M0 0 C0 1.32 0 2.64 0 4 C-1.32 4 -2.64 4 -4 4 C-4 4.66 -4 5.32 -4 6 C-5.65 5.67 -7.3 5.34 -9 5 C-6.82 0.16 -5.21 -0.14 0 0 Z " fill="#5A5960" transform="translate(49,6)"/>
<path d="M0 0 C1.32 0 2.64 0 4 0 C4 2.97 4 5.94 4 9 C2.68 9 1.36 9 0 9 C0 6.03 0 3.06 0 0 Z " fill="#6E6976" transform="translate(137,71)"/>
<path d="M0 0 C1.65 0.33 3.3 0.66 5 1 C4.67 2.32 4.34 3.64 4 5 C1.36 5 -1.28 5 -4 5 C-3.67 4.01 -3.34 3.02 -3 2 C-2.01 2 -1.02 2 0 2 C0 1.34 0 0.68 0 0 Z " fill="#565C5F" transform="translate(67,1)"/>
<path d="M0 0 C-0.33 1.32 -0.66 2.64 -1 4 C-3.31 4.33 -5.62 4.66 -8 5 C-8 3.68 -8 2.36 -8 1 C-3.38 -1.12 -3.38 -1.12 0 0 Z " fill="#6D7279" transform="translate(98,133)"/>
<path d="M0 0 C0.66 0 1.32 0 2 0 C2 1.65 2 3.3 2 5 C1.01 5.33 0.02 5.66 -1 6 C-2.72 9.5 -2.72 9.5 -4 13 C-4.33 13 -4.66 13 -5 13 C-5 10.36 -5 7.72 -5 5 C-4.01 4.67 -3.02 4.34 -2 4 C-0.79 2 -0.79 2 0 0 Z " fill="#918D98" transform="translate(82,73)"/>
<path d="M0 0 C1.32 0 2.64 0 4 0 C4 2.64 4 5.28 4 8 C2.68 8 1.36 8 0 8 C0 5.36 0 2.72 0 0 Z " fill="#6E6B78" transform="translate(137,61)"/>
<path d="M0 0 C1.32 0 2.64 0 4 0 C4 2.64 4 5.28 4 8 C3.01 8 2.02 8 1 8 C1 6.68 1 5.36 1 4 C0.34 4 -0.32 4 -1 4 C-0.67 2.68 -0.34 1.36 0 0 Z " fill="#675E6D" transform="translate(135,48)"/>
<path d="M0 0 C-0.33 1.32 -0.66 2.64 -1 4 C-1 3.01 -1 2.02 -1 1 C-2.32 1.33 -3.64 1.66 -5 2 C-4.67 3.65 -4.34 5.3 -4 7 C-5.32 7.33 -6.64 7.66 -8 8 C-7.67 6.68 -7.34 5.36 -7 4 C-7.66 3.67 -8.32 3.34 -9 3 C-6.39 -0.48 -4.17 -0.28 0 0 Z " fill="#7B767F" transform="translate(74,44)"/>
<path d="M0 0 C3.3 0 6.6 0 10 0 C9.67 0.99 9.34 1.98 9 3 C8.01 3 7.02 3 6 3 C5.67 3.66 5.34 4.32 5 5 C4.01 5 3.02 5 2 5 C2 4.01 2 3.02 2 2 C1.34 2 0.68 2 0 2 C0 1.34 0 0.68 0 0 Z " fill="#616469" transform="translate(52,3)"/>
<path d="M0 0 C2.48 0.5 2.48 0.5 5 1 C5.33 2.32 5.66 3.64 6 5 C4.02 5.33 2.04 5.66 0 6 C0 4.02 0 2.04 0 0 Z " fill="#443645" transform="translate(52,81)"/>
<path d="M0 0 C0.33 2.97 0.66 5.94 1 9 C-1.04 7.38 -3.04 5.71 -5 4 C-5 3.34 -5 2.68 -5 2 C-1.12 0 -1.12 0 0 0 Z " fill="#534A5A" transform="translate(122,67)"/>
<path d="M0 0 C0.99 0 1.98 0 3 0 C3 1.98 3 3.96 3 6 C1.35 5.67 -0.3 5.34 -2 5 C-1.34 3.35 -0.68 1.7 0 0 Z " fill="#5D575D" transform="translate(81,78)"/>
<path d="M0 0 C1.32 0 2.64 0 4 0 C4 1.65 4 3.3 4 5 C2.68 5 1.36 5 0 5 C0 3.35 0 1.7 0 0 Z " fill="#676D72" transform="translate(82,135)"/>
<path d="M0 0 C1.32 0 2.64 0 4 0 C3.67 1.65 3.34 3.3 3 5 C2.01 5 1.02 5 0 5 C0 3.35 0 1.7 0 0 Z " fill="#7F7786" transform="translate(6,91)"/>
<path d="M0 0 C0.66 0.33 1.32 0.66 2 1 C2 3.31 2 5.62 2 8 C1.01 7.67 0.02 7.34 -1 7 C-1.04 5 -1.04 3 -1 1 C-0.67 0.67 -0.34 0.34 0 0 Z " fill="#8C8A96" transform="translate(5,74)"/>
<path d="M0 0 C1.32 0.33 2.64 0.66 4 1 C4.33 3.31 4.66 5.62 5 8 C2.22 6.29 1.15 5.52 0.25 2.31 C0.17 1.55 0.09 0.79 0 0 Z " fill="#2B1F2B" transform="translate(17,106)"/>
</svg>
