<?xml version="1.0" encoding="UTF-8"?>
<!-- Generator: https://ezgif.com/png-to-svg -->
<svg version="1.1" xmlns="http://www.w3.org/2000/svg" width="184" height="184">
<path d="M0 0 C2.97 0 5.94 0 9 0 C9 0.66 9 1.32 9 2 C9.8 2.45 10.61 2.91 11.44 3.38 C14 5 14 5 14.75 6.75 C14.83 7.49 14.92 8.23 15 9 C15.19 10.03 15.37 11.06 15.56 12.12 C17.11 25.8 14.27 35.68 6 46.82 C4.01 48.99 2.65 49.82 0 51 C-1.59 52.11 -3.15 53.26 -4.69 54.44 C-5.87 55.33 -5.87 55.33 -7.07 56.25 C-9.25 57.94 -9.25 57.94 -10 61 C-13.38 60.75 -13.38 60.75 -17 60 C-18.25 58 -18.25 58 -19 56 C-20.48 55.5 -20.48 55.5 -22 55 C-22.66 54.01 -23.32 53.02 -24 52 C-27.08 51.75 -27.08 51.75 -30 52 C-30.33 52.99 -30.66 53.98 -31 55 C-31.64 55.31 -32.28 55.62 -32.94 55.94 C-35.18 56.82 -35.18 56.82 -35.94 59.06 C-36.46 60.02 -36.46 60.02 -37 61 C-39.5 61.69 -39.5 61.69 -42 62 C-42.99 62.5 -42.99 62.5 -44 63 C-49.25 62.96 -53.8 62.34 -58 59 C-59.81 56.81 -59.81 56.81 -61 55 C-61.41 55.78 -61.83 56.57 -62.25 57.38 C-64.09 60.14 -65.1 60.65 -68 62 C-68.33 62.99 -68.66 63.98 -69 65 C-72.42 65.78 -75.5 66 -79 66 C-79.68 66.19 -80.36 66.37 -81.06 66.56 C-83.43 67.1 -84.72 66.79 -87 66 C-87.72 65.77 -88.44 65.55 -89.19 65.31 C-91 64 -91 64 -91.6 61.27 C-93.22 47.99 -92.4 31.96 -89 19 C-85.33 14.5 -81.56 13.78 -76 13 C-75.32 12.63 -74.64 12.26 -73.94 11.88 C-71.11 10.6 -68.95 11.33 -66 12 C-66.33 13.65 -66.66 15.3 -67 17 C-67.95 17.25 -68.9 17.5 -69.88 17.75 C-73.08 18.67 -73.08 18.67 -74.25 21.06 C-74.5 21.7 -74.75 22.34 -75 23 C-75.66 23.33 -76.32 23.66 -77 24 C-77.73 25.98 -78.4 27.98 -79 30 C-78.13 30.24 -78.13 30.24 -77.24 30.48 C-73.15 31.7 -69.85 32.82 -66.62 35.69 C-64.21 38.33 -64.21 38.33 -61 38 C-59.38 34.87 -58.21 31.88 -57.38 28.44 C-55.31 23.28 -52.02 16.46 -46.84 13.95 C-44.78 13.15 -44.78 13.15 -44.25 10.88 C-44.17 10.26 -44.09 9.64 -44 9 C-43.43 8.89 -42.86 8.78 -42.28 8.67 C-38.4 7.87 -34.88 7.05 -31.31 5.31 C-27.63 3.85 -25.77 3.99 -22 5 C-22 5.66 -22 6.32 -22 7 C-21.01 7.33 -20.02 7.66 -19 8 C-17.31 10.56 -17.31 10.56 -16 13 C-12.25 11.21 -12.25 11.21 -10.19 7.81 C-10.09 6.92 -10.09 6.92 -10 6 C-8.92 5.88 -8.92 5.88 -7.81 5.75 C-4.43 4.85 -2.56 3.34 0 1 C0 0.67 0 0.34 0 0 Z M1 8 C1 8.33 1 8.66 1 9 C2.98 9 4.96 9 7 9 C7 8.67 7 8.34 7 8 C5.02 8 3.04 8 1 8 Z M-31 9 C-31.89 11.67 -32.48 14.24 -33 17 C-33.99 17.33 -34.98 17.66 -36 18 C-36.33 18.99 -36.66 19.98 -37 21 C-37.66 21.66 -38.32 22.32 -39 23 C-38.67 23.99 -38.34 24.98 -38 26 C-38.66 26 -39.32 26 -40 26 C-41.69 28.46 -42.94 30.83 -44 33.62 C-45 36 -45 36 -46.69 37.31 C-48.21 38.9 -48.21 38.9 -47.97 40.96 C-47.71 42.98 -47.36 44.99 -47 47 C-43.7 47 -40.4 47 -37 47 C-36.73 46.24 -36.46 45.47 -36.19 44.69 C-35.03 42.08 -34.01 40.93 -32 39 C-31.67 38.01 -31.34 37.02 -31 36 C-30.34 35.61 -29.68 35.22 -29 34.81 C-25.88 31.98 -26.27 29.12 -26 25 C-25.34 25 -24.68 25 -24 25 C-23.69 23.11 -23.69 23.11 -23.38 21.19 C-23.26 20.48 -23.14 19.77 -23.02 19.04 C-22.8 16.68 -22.8 16.68 -25 14 C-25.69 12.34 -26.36 10.68 -27 9 C-28.32 9 -29.64 9 -31 9 Z M-4 12 C-7.09 15.17 -8.5 17.59 -9 22 C-9.66 22 -10.32 22 -11 22 C-13.51 29.19 -14.23 35 -13.23 42.57 C-13 45 -13 45 -14 47 C-11.58 47.25 -11.58 47.25 -9 47 C-7.21 44.31 -6.17 41.99 -5 39 C-4.35 37.66 -3.69 36.32 -3 35 C-2.34 35 -1.68 35 -1 35 C-0.9 34.36 -0.79 33.72 -0.69 33.06 C-0.46 32.38 -0.23 31.7 0 31 C0.99 30.67 1.98 30.34 3 30 C3.33 30.66 3.66 31.32 4 32 C6.76 27.21 7.53 23.41 8 18 C7.34 18 6.68 18 6 18 C6.66 17.34 7.32 16.68 8 16 C5.53 15.5 5.53 15.5 3 15 C3.66 13.68 4.32 12.36 5 11 C1.37 9.65 -0.63 10.15 -4 12 Z M-35 12 C-35.33 12.66 -35.66 13.32 -36 14 C-35.34 14 -34.68 14 -34 14 C-33.67 14.66 -33.34 15.32 -33 16 C-33.33 14.68 -33.66 13.36 -34 12 C-34.33 12 -34.66 12 -35 12 Z M-19 13 C-18 15 -18 15 -18 15 Z M-89 21 C-88 23 -88 23 -88 23 Z M-26 26 C-25 28 -25 28 -25 28 Z M13 27 C14 30 14 30 14 30 Z M-82 29 C-81 31 -81 31 -81 31 Z M-44 29 C-43 31 -43 31 -43 31 Z M12 30 C13 32 13 32 13 32 Z M-83 32 C-82 34 -82 34 -82 34 Z M-60 38 C-59 40 -59 40 -59 40 Z M-15 38 C-15 39.98 -15 41.96 -15 44 C-14.67 44 -14.34 44 -14 44 C-14 42.02 -14 40.04 -14 38 C-14.33 38 -14.66 38 -15 38 Z M-60 41 C-59 43 -59 43 -59 43 Z M-82.25 44 C-82.83 44.66 -83.41 45.32 -84 46 C-83.34 46 -82.68 46 -82 46 C-82.33 47.98 -82.66 49.96 -83 52 C-82.34 52 -81.68 52 -81 52 C-80.84 52.64 -80.67 53.28 -80.5 53.94 C-79.22 56.16 -79.22 56.16 -77.09 56.49 C-75.06 56.73 -73.03 56.87 -71 57 C-69.79 50.74 -69.79 50.74 -72 45 C-71.67 44.34 -71.34 43.68 -71 43 C-77.01 41.44 -77.01 41.44 -82.25 44 Z M-62 43 C-62 44.65 -62 46.3 -62 48 C-61.67 48 -61.34 48 -61 48 C-61 46.35 -61 44.7 -61 43 C-61.33 43 -61.66 43 -62 43 Z M-49 43 C-48 47 -48 47 -48 47 Z M-71 45 C-70 48 -70 48 -70 48 Z M-25 46 C-25 47.32 -25 48.64 -25 50 C-24.34 49.67 -23.68 49.34 -23 49 C-23.66 48.01 -24.32 47.02 -25 46 Z M-84 47 C-83 51 -83 51 -83 51 Z M-59 48 C-58 52 -58 52 -58 52 Z M-49 49 C-47.35 49 -45.7 49 -44 49 C-43.67 48.34 -43.34 47.68 -43 47 C-45.46 47 -46.85 47.85 -49 49 Z M-62 49 C-61 53 -61 53 -61 53 Z M-63 53 C-62 55 -62 55 -62 55 Z M-80 57 C-80 57.33 -80 57.66 -80 58 C-77.69 58 -75.38 58 -73 58 C-73 57.67 -73 57.34 -73 57 C-75.31 57 -77.62 57 -80 57 Z " fill="#F8F7F7" transform="translate(110,65)"/>
<path d="M0 0 C0.99 0 1.98 0 3 0 C3 0.66 3 1.32 3 2 C3.8 1.97 4.6 1.93 5.42 1.89 C17.26 1.6 27.23 4.25 38 9 C39.16 9.49 40.31 9.99 41.5 10.5 C44.28 12.17 44.74 13.12 46 16 C47.31 17.04 48.64 18.03 50 19 C52.7 21.57 54.93 23.89 57 27 C57.33 27.33 57.66 27.66 58 28 C58.36 29.33 58.7 30.66 59 32 C58.34 31.67 57.68 31.34 57 31 C55.16 31.59 55.16 31.59 53.19 32.5 C49.69 33.87 47.61 34.46 44 33 C40.53 30.5 37.67 27.74 34.81 24.58 C31.7 21.72 28.95 20.36 25.06 18.75 C23.88 18.25 22.69 17.75 21.47 17.23 C11.3 13.62 -0.68 14 -11 17 C-11.66 17.66 -12.32 18.32 -13 19 C-15.01 20.07 -17.06 21.03 -19.12 22 C-21.17 22.97 -21.17 22.97 -23 25 C-26 27 -26 27 -27.94 27.31 C-31.61 28.54 -33.33 31.78 -35.12 35.06 C-35.74 36.42 -36.32 37.8 -36.88 39.19 C-37.25 39.79 -37.62 40.38 -38 41 C-38.88 41.2 -38.88 41.2 -39.77 41.4 C-42.65 42.18 -44.41 43.6 -46.75 45.44 C-47.95 46.36 -47.95 46.36 -49.17 47.31 C-49.78 47.87 -50.38 48.42 -51 49 C-51 49.66 -51 50.32 -51 51 C-52.98 51.66 -54.96 52.32 -57 53 C-57.62 49.62 -57.62 49.62 -58 46 C-57.34 45.34 -56.68 44.68 -56 44 C-54.28 41.07 -53.56 38.34 -53 35 C-51.52 34.51 -51.52 34.51 -50 34 C-49.94 33.32 -49.88 32.64 -49.81 31.94 C-48.71 27.97 -46.73 25.06 -44 22 C-42.68 21.3 -41.35 20.63 -40 20 C-39.55 19.17 -39.09 18.35 -38.62 17.5 C-36.5 14.24 -34.65 14.07 -31 13 C-29.37 11.54 -29.37 11.54 -28 10 C-19.53 5.31 -9.37 3.9 0 2 C0 1.34 0 0.68 0 0 Z M-53 38 C-52 40 -52 40 -52 40 Z M-57 47 C-56 50 -56 50 -56 50 Z " fill="#D73638" transform="translate(87,26)"/>
<path d="M0 0 C1.12 0.09 1.12 0.09 2.27 0.18 C3.19 3.8 3.53 5.59 1.95 9.05 C1.4 9.75 0.84 10.45 0.27 11.18 C-0.39 11.18 -1.05 11.18 -1.73 11.18 C-2.11 12.38 -2.11 12.38 -2.48 13.61 C-2.9 14.46 -3.31 15.3 -3.73 16.18 C-5.06 16.52 -6.4 16.86 -7.73 17.18 C-9.66 18.42 -9.66 18.42 -11.42 19.99 C-12.32 20.74 -12.32 20.74 -13.25 21.51 C-14.92 23.39 -15.33 24.72 -15.73 27.18 C-16.33 27.3 -16.93 27.42 -17.55 27.55 C-20 28.13 -20 28.13 -22.73 30.18 C-25.8 31.71 -28.36 32.52 -31.73 33.18 C-33.22 33.67 -33.22 33.67 -34.73 34.18 C-34.4 34.84 -34.07 35.5 -33.73 36.18 C-40.12 37 -46.3 37.3 -52.73 37.18 C-52.73 37.84 -52.73 38.5 -52.73 39.18 C-54.71 39.18 -56.69 39.18 -58.73 39.18 C-58.24 38.19 -58.24 38.19 -57.73 37.18 C-58.69 37.07 -59.64 36.96 -60.63 36.84 C-81.46 34.29 -81.46 34.29 -90.08 28.26 C-91.86 26.99 -91.86 26.99 -94.73 26.18 C-95.06 25.19 -95.39 24.2 -95.73 23.18 C-96.37 22.89 -97.01 22.6 -97.67 22.3 C-99.73 21.18 -99.73 21.18 -100.98 18.8 C-101.73 16.18 -101.73 16.18 -101.73 12.18 C-96.56 11.12 -96.56 11.12 -93.73 11.18 C-90.92 13.05 -90.92 13.05 -88.73 15.18 C-87.74 15.51 -86.75 15.84 -85.73 16.18 C-85.73 16.84 -85.73 17.5 -85.73 18.18 C-80.16 21.71 -76.37 23.73 -69.73 23.18 C-69.4 23.51 -69.07 23.84 -68.73 24.18 C-67.25 24.26 -65.75 24.28 -64.26 24.27 C-62.91 24.27 -62.91 24.27 -61.54 24.26 C-60.59 24.26 -59.65 24.25 -58.67 24.24 C-57.25 24.23 -57.25 24.23 -55.79 24.22 C-53.44 24.21 -51.09 24.2 -48.73 24.18 C-48.73 24.51 -48.73 24.84 -48.73 25.18 C-46.53 25.18 -44.2 23.92 -42.17 23.18 C-41.16 22.8 -40.15 22.43 -39.11 22.05 C-38.32 21.76 -37.54 21.47 -36.73 21.18 C-36.73 20.52 -36.73 19.86 -36.73 19.18 C-35.83 18.89 -34.92 18.6 -33.98 18.3 C-30.86 17.3 -30.86 17.3 -28.55 16.05 C-26.73 15.18 -26.73 15.18 -23.73 15.18 C-23.4 14.52 -23.07 13.86 -22.73 13.18 C-21.97 13.26 -21.21 13.34 -20.42 13.43 C-17.64 13.46 -17.64 13.46 -16.05 11.43 C-14.74 9.26 -14.74 9.26 -13.8 7.24 C-10.2 0.25 -7.65 -0.35 0 0 Z M-42.73 35.18 C-38.73 36.18 -38.73 36.18 -38.73 36.18 Z " fill="#D9393C" transform="translate(145.734375,118.82421875)"/>
<path d="M0 0 C2.15 4.01 2.12 7.09 1.69 11.56 C1.59 12.68 1.49 13.79 1.39 14.94 C1.08 17.38 0.68 19.64 0 22 C0.76 22.29 1.53 22.58 2.31 22.88 C5 24 5 24 8 26 C9.12 28.88 9.12 28.88 10 32 C10.25 32.68 10.5 33.36 10.75 34.06 C11.11 36.86 10.33 38.55 9 41 C7.51 41.5 7.51 41.5 6 42 C5.34 42.66 4.68 43.32 4 44 C-1.55 47.65 -6.42 48.83 -13 48 C-16.5 47.12 -16.5 47.12 -19 46 C-19.33 45.34 -19.66 44.68 -20 44 C-20.33 44 -20.66 44 -21 44 C-21 41.69 -21 39.38 -21 37 C-20.34 37 -19.68 37 -19 37 C-16.32 31.82 -15.75 27.45 -15.38 21.69 C-15 19.01 -14.28 17.36 -13 15 C-12.62 13.01 -12.27 11.01 -12 9 C-11.34 9 -10.68 9 -10 9 C-9.67 5.7 -9.34 2.4 -9 -1 C-4.73 -2.07 -3.69 -2.14 0 0 Z M0 6 C0 7.65 0 9.3 0 11 C0.33 11 0.66 11 1 11 C1 9.35 1 7.7 1 6 C0.67 6 0.34 6 0 6 Z M-1 11 C-1 12.98 -1 14.96 -1 17 C-0.67 17 -0.34 17 0 17 C0 15.02 0 13.04 0 11 C-0.33 11 -0.66 11 -1 11 Z M-12 15 C-11 17 -11 17 -11 17 Z M-2 18 C-1 20 -1 20 -1 20 Z M-13 19 C-12 23 -12 23 -12 23 Z M-14 24 C-13 27 -13 27 -13 27 Z M-15 27 C-14 29 -14 29 -14 29 Z M-6 32 C-5 34 -5 34 -5 34 Z M-4 33 C-4 34.32 -4 35.64 -4 37 C-3.34 36.34 -2.68 35.68 -2 35 C-2.66 34.34 -3.32 33.68 -4 33 Z M-18 35 C-17 37 -17 37 -17 37 Z M8 36 C9 38 9 38 9 38 Z M-8 37 C-4 38 -4 38 -4 38 Z " fill="#D6383A" transform="translate(160,67)"/>
<path d="M0 0 C2.97 0 5.94 0 9 0 C9 0.66 9 1.32 9 2 C9.8 2.45 10.61 2.91 11.44 3.38 C14 5 14 5 14.75 6.75 C14.83 7.49 14.91 8.23 15 9 C15.19 10.03 15.37 11.06 15.56 12.12 C17.11 25.8 14.27 35.68 6 46.82 C4.02 48.98 2.64 49.85 0 51 C-1.78 52.25 -3.49 53.56 -5.22 54.88 C-7.14 56.09 -8.79 56.57 -11 57 C-11.5 55.52 -11.5 55.52 -12 54 C-12.99 53.67 -13.98 53.34 -15 53 C-13.71 51.62 -12.37 50.29 -11 49 C-10.34 49 -9.68 49 -9 49 C-8.94 48.01 -8.88 47.02 -8.81 46 C-8.26 41.98 -6.52 39.21 -4.25 35.89 C-2.99 33.99 -1.98 32.06 -1 30 C0.65 30.33 2.3 30.66 4 31 C4.56 29.42 5.1 27.84 5.62 26.25 C5.93 25.37 6.23 24.49 6.54 23.58 C7.08 20.54 6.64 19.55 5 17 C3.81 14.88 3.81 14.88 3 13 C3.33 12.34 3.66 11.68 4 11 C1.24 11 -0.47 11.02 -3 12 C-5.37 14.44 -7.21 17.12 -9 20 C-9.33 19.34 -9.66 18.68 -10 18 C-9.07 15.97 -8.07 13.97 -7 12 C-6.67 11.34 -6.34 10.68 -6 10 C-9.16 11.37 -9.99 11.99 -12 15 C-12.66 15 -13.32 15 -14 15 C-14 15.66 -14 16.32 -14 17 C-15.32 17.33 -16.64 17.66 -18 18 C-18 18.66 -18 19.32 -18 20 C-18.66 20 -19.32 20 -20 20 C-20 17.69 -20 15.38 -20 13 C-20.99 13 -21.98 13 -23 13 C-22.67 13.66 -22.34 14.32 -22 15 C-21.7 20.18 -22.41 24.14 -24 29 C-24.99 28.67 -25.98 28.34 -27 28 C-26.67 25.69 -26.34 23.38 -26 21 C-25.34 21 -24.68 21 -24 21 C-24.48 18.77 -24.97 17.04 -26.12 15.06 C-27.27 12.37 -26.77 10.76 -26 8 C-25.34 8.33 -24.68 8.66 -24 9 C-24 9.99 -24 10.98 -24 12 C-23.01 12 -22.02 12 -21 12 C-20.67 11.34 -20.34 10.68 -20 10 C-19.34 10 -18.68 10 -18 10 C-17.01 11.48 -17.01 11.48 -16 13 C-12.25 11.21 -12.25 11.21 -10.19 7.81 C-10.09 6.92 -10.09 6.92 -10 6 C-8.92 5.88 -8.92 5.88 -7.81 5.75 C-4.43 4.85 -2.56 3.34 0 1 C0 0.67 0 0.34 0 0 Z M1 8 C1 8.33 1 8.66 1 9 C2.98 9 4.96 9 7 9 C7 8.67 7 8.34 7 8 C5.02 8 3.04 8 1 8 Z M-19 13 C-18 15 -18 15 -18 15 Z M13 27 C14 30 14 30 14 30 Z M12 30 C13 32 13 32 13 32 Z " fill="#F8F2F3" transform="translate(110,65)"/>
<path d="M0 0 C0.59 11.61 0.41 21.39 -5 32 C-5.98 33.01 -6.98 34.02 -8 35 C-8.05 37 -8.04 39 -8 41 C-8.31 44.16 -8.78 47.06 -10 50 C-12.88 52.19 -12.88 52.19 -16 53 C-18.31 52.56 -18.31 52.56 -20 51 C-21.42 46.03 -21.97 39.56 -20.12 34.69 C-18.56 32.34 -18.56 32.34 -17 30 C-15.68 27.2 -14.99 24.93 -14.62 21.85 C-13.93 17.54 -12.71 13.76 -11.19 9.69 C-10.82 8.62 -10.82 8.62 -10.44 7.52 C-8.54 2.41 -8.54 2.41 -6.05 0.52 C-4 0 -4 0 0 0 Z M-8 4 C-7 6 -7 6 -7 6 Z M-9 7 C-8 11 -8 11 -8 11 Z M-2 15 C-1 17 -1 17 -1 17 Z M-13 18 C-12 20 -12 20 -12 20 Z M-3 18 C-2 20 -2 20 -2 20 Z M-4 21 C-3 23 -3 23 -3 23 Z M-5 24 C-4 26 -4 26 -4 26 Z M-6 27 C-5 29 -5 29 -5 29 Z M-7 30 C-6 32 -6 32 -6 32 Z M-20 37 C-20 39.31 -20 41.62 -20 44 C-19.67 44 -19.34 44 -19 44 C-19 41.69 -19 39.38 -19 37 C-19.33 37 -19.66 37 -20 37 Z M-10 38 C-9 40 -9 40 -9 40 Z M-11 41 C-10 43 -10 43 -10 43 Z M-12 44 C-11 46 -11 46 -11 46 Z M-13 47 C-12 49 -12 49 -12 49 Z " fill="#D53D40" transform="translate(145,65)"/>
<path d="M0 0 C2.97 0 5.94 0 9 0 C9 0.66 9 1.32 9 2 C9.8 2.45 10.61 2.91 11.44 3.38 C14 5 14 5 14.81 6.94 C15 8.95 15 10.98 15 13 C13.02 13.33 11.04 13.66 9 14 C9 21.92 9 29.84 9 38 C8.01 37.5 8.01 37.5 7 37 C7 36.34 7 35.68 7 35 C5.35 35.99 3.7 36.98 2 38 C1.17 35.11 1 33.11 1 30 C1.99 30.33 2.98 30.66 4 31 C4.56 29.42 5.1 27.84 5.62 26.25 C5.93 25.37 6.23 24.49 6.54 23.58 C7.08 20.54 6.64 19.55 5 17 C3.81 14.88 3.81 14.88 3 13 C3.33 12.34 3.66 11.68 4 11 C1.24 11 -0.47 11.02 -3 12 C-5.37 14.44 -7.21 17.12 -9 20 C-9.33 19.34 -9.66 18.68 -10 18 C-9.07 15.97 -8.07 13.97 -7 12 C-6.67 11.34 -6.34 10.68 -6 10 C-9.16 11.37 -9.99 11.99 -12 15 C-12.66 15 -13.32 15 -14 15 C-14 15.66 -14 16.32 -14 17 C-15.32 17.33 -16.64 17.66 -18 18 C-18 18.66 -18 19.32 -18 20 C-18.66 20 -19.32 20 -20 20 C-20 17.69 -20 15.38 -20 13 C-20.99 13 -21.98 13 -23 13 C-22.67 13.66 -22.34 14.32 -22 15 C-21.7 20.18 -22.41 24.14 -24 29 C-24.99 28.67 -25.98 28.34 -27 28 C-26.67 25.69 -26.34 23.38 -26 21 C-25.34 21 -24.68 21 -24 21 C-24.48 18.77 -24.97 17.04 -26.12 15.06 C-27.27 12.37 -26.77 10.76 -26 8 C-25.34 8.33 -24.68 8.66 -24 9 C-24 9.99 -24 10.98 -24 12 C-23.01 12 -22.02 12 -21 12 C-20.67 11.34 -20.34 10.68 -20 10 C-19.34 10 -18.68 10 -18 10 C-17.01 11.48 -17.01 11.48 -16 13 C-12.25 11.21 -12.25 11.21 -10.19 7.81 C-10.09 6.92 -10.09 6.92 -10 6 C-8.92 5.88 -8.92 5.88 -7.81 5.75 C-4.43 4.85 -2.56 3.34 0 1 C0 0.67 0 0.34 0 0 Z M1 8 C1 8.33 1 8.66 1 9 C2.98 9 4.96 9 7 9 C7 8.67 7 8.34 7 8 C5.02 8 3.04 8 1 8 Z M-19 13 C-18 15 -18 15 -18 15 Z " fill="#F4EFEE" transform="translate(110,65)"/>
<path d="M0 0 C1.5 1.38 1.5 1.38 3 3 C3 3.66 3 4.32 3 5 C1.36 5.4 1.36 5.4 -0.31 5.81 C-3.75 6.92 -4.81 7.37 -7 10 C-10 12 -10 12 -11.94 12.31 C-15.61 13.54 -17.33 16.78 -19.12 20.06 C-19.74 21.42 -20.32 22.8 -20.88 24.19 C-21.25 24.79 -21.62 25.38 -22 26 C-22.88 26.2 -22.88 26.2 -23.77 26.4 C-26.65 27.18 -28.41 28.6 -30.75 30.44 C-31.55 31.05 -32.35 31.67 -33.17 32.31 C-33.78 32.87 -34.38 33.42 -35 34 C-35 34.66 -35 35.32 -35 36 C-36.98 36.66 -38.96 37.32 -41 38 C-41.62 34.62 -41.62 34.62 -42 31 C-41.34 30.34 -40.68 29.68 -40 29 C-38.28 26.07 -37.56 23.34 -37 20 C-36.01 19.67 -35.02 19.34 -34 19 C-33.94 18.32 -33.88 17.64 -33.81 16.94 C-32.72 12.99 -30.94 9.88 -28 7 C-25.19 6.56 -25.19 6.56 -23 7 C-23.33 8.32 -23.66 9.64 -24 11 C-24.66 11 -25.32 11 -26 11 C-26.12 11.93 -26.25 12.86 -26.38 13.81 C-27 17 -27 17 -29 20 C-28.34 20 -27.68 20 -27 20 C-27 20.66 -27 21.32 -27 22 C-26.67 22 -26.34 22 -26 22 C-25.67 21.34 -25.34 20.68 -25 20 C-24.34 20 -23.68 20 -23 20 C-23 19.34 -23 18.68 -23 18 C-22.34 18 -21.68 18 -21 18 C-21 16.68 -21 15.36 -21 14 C-16.42 10.22 -10.73 7.51 -5 6 C-5 5.34 -5 4.68 -5 4 C-3.37 2.62 -1.71 1.28 0 0 Z M-37 23 C-36 25 -36 25 -36 25 Z M-41 32 C-40 35 -40 35 -40 35 Z " fill="#D84145" transform="translate(71,41)"/>
<path d="M0 0 C2.62 1.94 2.62 1.94 5 4 C5.99 4.33 6.98 4.66 8 5 C8 5.66 8 6.32 8 7 C13.57 10.54 17.36 12.55 24 12 C24.5 12.5 24.5 12.5 25 13 C26.49 13.09 27.98 13.11 29.47 13.1 C30.82 13.09 30.82 13.09 32.2 13.09 C33.62 13.08 33.62 13.08 35.06 13.06 C36.01 13.06 36.96 13.05 37.94 13.05 C40.29 13.04 42.65 13.02 45 13 C45 13.33 45 13.66 45 14 C39.06 14.5 39.06 14.5 33 15 C33 15.33 33 15.66 33 16 C21.38 18.97 12.26 13.95 2 9 C2 8.34 2 7.68 2 7 C1.34 7 0.68 7 0 7 C0 6.34 0 5.68 0 5 C-2.48 4.01 -2.48 4.01 -5 3 C-3.53 6.68 -1.56 8.33 1.62 10.62 C3.12 11.7 4.59 12.82 6 14 C6 14.66 6 15.32 6 16 C6.66 16.12 7.32 16.25 8 16.38 C11.7 17.15 15.34 18.07 19 19 C18.01 19.33 17.02 19.66 16 20 C16 20.66 16 21.32 16 22 C10.99 21.62 7.88 19.91 3.83 17.16 C1.9 15.83 1.9 15.83 -1 15 C-1.33 14.01 -1.66 13.02 -2 12 C-2.64 11.71 -3.28 11.42 -3.94 11.12 C-6 10 -6 10 -7.25 7.62 C-8 5 -8 5 -8 1 C-4.93 -0.02 -3.19 -0.38 0 0 Z " fill="#D64243" transform="translate(52,130)"/>
<path d="M0 0 C0.83 2.89 1 4.89 1 8 C-0.98 8.33 -2.96 8.66 -5 9 C-5 16.92 -5 24.84 -5 33 C-5.66 32.67 -6.32 32.34 -7 32 C-7 31.34 -7 30.68 -7 30 C-8.65 30.99 -10.3 31.98 -12 33 C-12.83 30.11 -13 28.11 -13 25 C-12.01 25.33 -11.02 25.66 -10 26 C-9.44 24.42 -8.9 22.84 -8.38 21.25 C-8.07 20.37 -7.77 19.49 -7.46 18.58 C-6.92 15.54 -7.37 14.55 -9 12 C-10 10 -10 10 -11 8 C-6.25 5 -6.25 5 -4 5 C-4 4.01 -4 3.02 -4 2 C-2.68 1.34 -1.36 0.68 0 0 Z " fill="#F1E3E2" transform="translate(124,70)"/>
<path d="M0 0 C3.51 -0.4 4.72 -0.21 7.62 1.94 C8.8 2.96 8.8 2.96 10 4 C10.99 4.33 11.98 4.66 13 5 C13 5.66 13 6.32 13 7 C18.57 10.54 22.36 12.55 29 12 C29.33 12.33 29.66 12.66 30 13 C31.49 13.09 32.98 13.11 34.47 13.1 C35.82 13.09 35.82 13.09 37.2 13.09 C38.62 13.08 38.62 13.08 40.06 13.06 C41.01 13.06 41.96 13.05 42.94 13.05 C45.29 13.04 47.65 13.02 50 13 C50 13.33 50 13.66 50 14 C44.06 14.5 44.06 14.5 38 15 C38 15.33 38 15.66 38 16 C29.85 17.27 24.2 17.24 17 13 C17 12.34 17 11.68 17 11 C16.11 10.77 15.23 10.55 14.31 10.31 C10.52 8.81 8.82 6.89 6 4 C2.83 2.21 2.83 2.21 0 1 C0 0.67 0 0.34 0 0 Z " fill="#D96465" transform="translate(47,130)"/>
<path d="M0 0 C0.83 2.89 1 4.89 1 8 C-0.98 8.33 -2.96 8.66 -5 9 C-5.33 9.99 -5.66 10.98 -6 12 C-8.47 11.01 -8.47 11.01 -11 10 C-10.31 8.06 -10.31 8.06 -9 6 C-6.38 5.25 -6.38 5.25 -4 5 C-4 4.01 -4 3.02 -4 2 C-2.68 1.34 -1.36 0.68 0 0 Z " fill="#B34D55" transform="translate(124,70)"/>
<path d="M0 0 C1.65 0.99 3.3 1.98 5 3 C5.33 2.34 5.66 1.68 6 1 C6.66 1.66 7.32 2.32 8 3 C5.18 5.97 2.81 8.42 -1 10 C-1.99 10.5 -1.99 10.5 -3 11 C-3.62 7.62 -3.62 7.62 -4 4 C-2.67 2.67 -1.33 1.33 0 0 Z M-3 5 C-2 8 -2 8 -2 8 Z " fill="#C64B54" transform="translate(33,68)"/>
<path d="M0 0 C2.97 0 5.94 0 9 0 C9 0.66 9 1.32 9 2 C10.29 3.37 11.62 4.71 13 6 C12.01 6.33 11.02 6.66 10 7 C10 7.99 10 8.98 10 10 C7.19 10.62 7.19 10.62 4 11 C3.01 10.34 2.02 9.68 1 9 C3.69 6.31 6.38 5.94 10 5 C8.08 4.6 8.08 4.6 6.12 4.19 C2.5 3.43 2.2 3.3 0 0 Z " fill="#EDCCCD" transform="translate(110,65)"/>
<path d="M0 0 C1.98 0.66 3.96 1.32 6 2 C5.67 2.99 5.34 3.98 5 5 C4.01 5 3.02 5 2 5 C0.58 5.53 0.58 5.53 -0.88 6.06 C-4.15 7.05 -5.77 6.95 -9 6 C-9.33 4.68 -9.66 3.36 -10 2 C-7.03 2.33 -4.06 2.66 -1 3 C-0.67 2.01 -0.34 1.02 0 0 Z " fill="#C54144" transform="translate(140,53)"/>
<path d="M0 0 C3.63 0 7.26 0 11 0 C11 1.32 11 2.64 11 4 C8.36 3.67 5.72 3.34 3 3 C2.67 3.66 2.34 4.32 2 5 C1.01 4.67 0.02 4.34 -1 4 C-0.67 2.68 -0.34 1.36 0 0 Z " fill="#C5484B" transform="translate(137,119)"/>
<path d="M0 0 C2 2 2 2 4.44 5.06 C6.73 8.19 6.73 8.19 10 9 C9.01 9.66 8.02 10.32 7 11 C5.49 9.88 4 8.76 2.5 7.62 C1.66 7 0.83 6.37 -0.03 5.73 C-0.68 5.16 -1.33 4.59 -2 4 C-2 3.34 -2 2.68 -2 2 C-1.34 2 -0.68 2 0 2 C0 1.34 0 0.68 0 0 Z " fill="#A4272C" transform="translate(129,37)"/>
<path d="M0 0 C0.66 0.99 1.32 1.98 2 3 C0.62 6.69 0.62 6.69 -1 10 C-2.32 9.34 -3.64 8.68 -5 8 C-4.67 7.34 -4.34 6.68 -4 6 C-3.64 4.34 -3.31 2.67 -3 1 C-2.01 0.67 -1.02 0.34 0 0 Z " fill="#E8DCDC" transform="translate(80,99)"/>
<path d="M0 0 C2 1 2 1 4 4 C4 4.99 4 5.98 4 7 C2.68 7 1.36 7 0 7 C0 6.34 0 5.68 0 5 C-0.66 5 -1.32 5 -2 5 C-1.34 3.35 -0.68 1.7 0 0 Z " fill="#E2E0E0" transform="translate(68,84)"/>
<path d="M0 0 C2 2 2 2 2 6 C3.32 6.33 4.64 6.66 6 7 C4.02 7.66 2.04 8.32 0 9 C-1.12 2.25 -1.12 2.25 0 0 Z M0 3 C1 6 1 6 1 6 Z " fill="#E29C9D" transform="translate(30,70)"/>
<path d="M0 0 C2.47 0.5 2.47 0.5 5 1 C4.34 2.65 3.68 4.3 3 6 C2.01 5.34 1.02 4.68 0 4 C0 2.68 0 1.36 0 0 Z " fill="#BD5B5C" transform="translate(127,112)"/>
<path d="M0 0 C0.99 0.66 1.98 1.32 3 2 C2.67 2.99 2.34 3.98 2 5 C0.35 5.33 -1.3 5.66 -3 6 C-1.12 1.12 -1.12 1.12 0 0 Z " fill="#DD5557" transform="translate(40,52)"/>
<path d="M0 0 C0.33 0 0.66 0 1 0 C1 3.96 1 7.92 1 12 C0.67 12 0.34 12 0 12 C0 8.04 0 4.08 0 0 Z " fill="#D83C3C" transform="translate(146,65)"/>
<path d="M0 0 C3.96 0 7.92 0 12 0 C12 0.33 12 0.66 12 1 C8.04 1 4.08 1 0 1 C0 0.67 0 0.34 0 0 Z " fill="#FF0A0A" transform="translate(87,41)"/>
<path d="M0 0 C3.63 0 7.26 0 11 0 C11 0.33 11 0.66 11 1 C7.37 1 3.74 1 0 1 C0 0.67 0 0.34 0 0 Z " fill="#FF0000" transform="translate(91,26)"/>
<path d="M0 0 C3.3 0 6.6 0 10 0 C10 0.33 10 0.66 10 1 C6.7 1 3.4 1 0 1 C0 0.67 0 0.34 0 0 Z " fill="#E54C4C" transform="translate(93,156)"/>
<path d="M0 0 C3.3 0 6.6 0 10 0 C10 0.33 10 0.66 10 1 C6.7 1 3.4 1 0 1 C0 0.67 0 0.34 0 0 Z " fill="#EB4646" transform="translate(77,156)"/>
<path d="M0 0 C0.33 0 0.66 0 1 0 C1 3.3 1 6.6 1 10 C0.67 10 0.34 10 0 10 C0 6.7 0 3.4 0 0 Z " fill="#FFD8D8" transform="translate(17,97)"/>
<path d="M0 0 C0.87 0.56 0.87 0.56 1.75 1.12 C-0.89 1.12 -3.53 1.12 -6.25 1.12 C-2.8 -1.09 -2.8 -1.09 0 0 Z " fill="#FF4242" transform="translate(145.25,116.875)"/>
<path d="M0 0 C-1 1 -1 1 -4.06 1.06 C-5.52 1.03 -5.52 1.03 -7 1 C-7 0.67 -7 0.34 -7 0 C-2.25 -1.12 -2.25 -1.12 0 0 Z " fill="#FFFFFF" transform="translate(38,132)"/>
<path d="M0 0 C0.66 0.33 1.32 0.66 2 1 C1.34 1.66 0.68 2.32 0 3 C-0.99 2.67 -1.98 2.34 -3 2 C-2.01 1.34 -1.02 0.68 0 0 Z " fill="#FFFFFF" transform="translate(106,119)"/>
<path d="M0 0 C-2.31 0.33 -4.62 0.66 -7 1 C-3.38 -1.12 -3.38 -1.12 0 0 Z " fill="#E93535" transform="translate(139,61)"/>
<path d="M0 0 C2.31 0 4.62 0 7 0 C7 0.33 7 0.66 7 1 C4.69 1 2.38 1 0 1 C0 0.67 0 0.34 0 0 Z " fill="#FF0000" transform="translate(149,116)"/>
<path d="M0 0 C0.33 0 0.66 0 1 0 C1 2.31 1 4.62 1 7 C0.67 7 0.34 7 0 7 C0 4.69 0 2.38 0 0 Z " fill="#FFF5F5" transform="translate(126,81)"/>
<path d="M0 0 C0.33 0 0.66 0 1 0 C1 2.31 1 4.62 1 7 C0.67 7 0.34 7 0 7 C0 4.69 0 2.38 0 0 Z " fill="#E63C3C" transform="translate(149,69)"/>
<path d="M0 0 C0.66 0 1.32 0 2 0 C2 0.66 2 1.32 2 2 C0.68 2.33 -0.64 2.66 -2 3 C-1.34 2.01 -0.68 1.02 0 0 Z " fill="#D63C45" transform="translate(38,73)"/>
<path d="M0 0 C2.31 0 4.62 0 7 0 C7 0.33 7 0.66 7 1 C4.69 1 2.38 1 0 1 C0 0.67 0 0.34 0 0 Z " fill="#F24343" transform="translate(79,42)"/>
<path d="M0 0 C2.31 0 4.62 0 7 0 C7 0.33 7 0.66 7 1 C4.69 1 2.38 1 0 1 C0 0.67 0 0.34 0 0 Z " fill="#DD3333" transform="translate(80,27)"/>
<path d="M0 0 C1.65 0 3.3 0 5 0 C5 0.33 5 0.66 5 1 C3.35 1 1.7 1 0 1 C0 0.67 0 0.34 0 0 Z " fill="#EE2A2A" transform="translate(68,154)"/>
<path d="M0 0 C1.65 0 3.3 0 5 0 C5 0.33 5 0.66 5 1 C3.35 1 1.7 1 0 1 C0 0.67 0 0.34 0 0 Z " fill="#FFFFFF" transform="translate(61,129)"/>
<path d="M0 0 C1.65 0 3.3 0 5 0 C5 0.33 5 0.66 5 1 C3.35 1 1.7 1 0 1 C0 0.67 0 0.34 0 0 Z " fill="#FFCCCC" transform="translate(47,128)"/>
<path d="M0 0 C0.33 0 0.66 0 1 0 C1 1.65 1 3.3 1 5 C0.67 5 0.34 5 0 5 C0 3.35 0 1.7 0 0 Z " fill="#FFFFFF" transform="translate(16,115)"/>
<path d="M0 0 C0.33 0 0.66 0 1 0 C1 1.65 1 3.3 1 5 C0.67 5 0.34 5 0 5 C0 3.35 0 1.7 0 0 Z " fill="#FFFFFF" transform="translate(97,98)"/>
<path d="M0 0 C0.33 1.32 0.66 2.64 1 4 C0.34 3.01 -0.32 2.02 -1 1 C-0.67 0.67 -0.34 0.34 0 0 Z " fill="#FFD4D4" transform="translate(18,92)"/>
<path d="M0 0 C0.33 0.99 0.66 1.98 1 3 C0.34 3 -0.32 3 -1 3 C-0.67 2.01 -0.34 1.02 0 0 Z " fill="#FFFFFF" transform="translate(106,78)"/>
<path d="M0 0 C1.32 0.33 2.64 0.66 4 1 C2.68 1.33 1.36 1.66 0 2 C0 1.34 0 0.68 0 0 Z " fill="#FFFFFF" transform="translate(68,71)"/>
<path d="M0 0 C1.65 0 3.3 0 5 0 C5 0.33 5 0.66 5 1 C3.35 1 1.7 1 0 1 C0 0.67 0 0.34 0 0 Z " fill="#CC1933" transform="translate(108,28)"/>
<path d="M0 0 C1.65 0 3.3 0 5 0 C5 0.33 5 0.66 5 1 C3.35 1 1.7 1 0 1 C0 0.67 0 0.34 0 0 Z " fill="#CC1933" transform="translate(103,27)"/>
<path d="M0 0 C4 1 4 1 4 1 Z " fill="#D42A2A" transform="translate(73,155)"/>
<path d="M0 0 C4 1 4 1 4 1 Z " fill="#D42A2A" transform="translate(64,153)"/>
<path d="M0 0 C0.33 0.66 0.66 1.32 1 2 C0.01 1.67 -0.98 1.34 -2 1 C-1.34 0.67 -0.68 0.34 0 0 Z " fill="#E975B4" transform="translate(103,140)"/>
<path d="M0 0 C0.66 0.66 1.32 1.32 2 2 C1.01 1.67 0.02 1.34 -1 1 C-0.67 0.67 -0.34 0.34 0 0 Z " fill="#FFDFDF" transform="translate(44,128)"/>
<path d="M0 0 C0.66 0.66 1.32 1.32 2 2 C1.01 1.67 0.02 1.34 -1 1 C-0.67 0.67 -0.34 0.34 0 0 Z " fill="#FFFFFF" transform="translate(44,125)"/>
<path d="M0 0 C4 1 4 1 4 1 Z " fill="#FFE9E9" transform="translate(80,117)"/>
<path d="M0 0 C0.66 0.33 1.32 0.66 2 1 C1.01 1 0.02 1 -1 1 C-0.67 0.67 -0.34 0.34 0 0 Z " fill="#FFE2E2" transform="translate(100,109)"/>
<path d="M0 0 C1 4 1 4 1 4 Z " fill="#FFFFFF" transform="translate(16,108)"/>
<path d="M0 0 C1 4 1 4 1 4 Z " fill="#FFFFFF" transform="translate(63,104)"/>
<path d="M0 0 C0.99 0.5 0.99 0.5 2 1 C1.34 1.66 0.68 2.32 0 3 C0 2.01 0 1.02 0 0 Z " fill="#FF4040" transform="translate(137,100)"/>
<path d="M0 0 C4 1 4 1 4 1 Z " fill="#FFCACA" transform="translate(31,94)"/>
<path d="M0 0 C1 4 1 4 1 4 Z " fill="#FFFFFF" transform="translate(127,77)"/>
<path d="M0 0 C4 1 4 1 4 1 Z " fill="#FFF2F2" transform="translate(79,75)"/>
<path d="M0 0 C4 1 4 1 4 1 Z " fill="#FF3535" transform="translate(141,63)"/>
<path d="M0 0 C4 1 4 1 4 1 Z " fill="#E91515" transform="translate(139,59)"/>
<path d="M0 0 C0.99 0.33 1.98 0.66 3 1 C2.01 1 1.02 1 0 1 C0 0.67 0 0.34 0 0 Z " fill="#EF3030" transform="translate(117,48)"/>
<path d="M0 0 C4 1 4 1 4 1 Z " fill="#FF4040" transform="translate(100,42)"/>
<path d="M0 0 C0.66 0.66 1.32 1.32 2 2 C1.01 1.67 0.02 1.34 -1 1 C-0.67 0.67 -0.34 0.34 0 0 Z " fill="#EF3030" transform="translate(66,31)"/>
<path d="M0 0 C4 1 4 1 4 1 Z " fill="#E93535" transform="translate(76,28)"/>
<path d="M0 0 C3 1 3 1 3 1 Z " fill="#FF2A2A" transform="translate(116,151)"/>
<path d="M0 0 C0.66 0.66 1.32 1.32 2 2 C1.34 2 0.68 2 0 2 C0 1.34 0 0.68 0 0 Z " fill="#FF5555" transform="translate(55,147)"/>
<path d="M0 0 C0.66 0.66 1.32 1.32 2 2 C1.34 2 0.68 2 0 2 C0 1.34 0 0.68 0 0 Z " fill="#FF0000" transform="translate(49,142)"/>
<path d="M0 0 C3 1 3 1 3 1 Z " fill="#E2479C" transform="translate(98,142)"/>
<path d="M0 0 C3 1 3 1 3 1 Z " fill="#C68D8D" transform="translate(70,141)"/>
<path d="M0 0 C3 1 3 1 3 1 Z " fill="#FF5555" transform="translate(106,139)"/>
<path d="M0 0 C3 1 3 1 3 1 Z " fill="#FFFFFF" transform="translate(24,133)"/>
<path d="M0 0 C3 1 3 1 3 1 Z " fill="#FFFFFF" transform="translate(95,125)"/>
<path d="" fill="#FF5555" transform="translate(0,0)"/>
<path d="" fill="#FFCDCD" transform="translate(0,0)"/>
<path d="M0 0 C3 1 3 1 3 1 Z " fill="#E21C1C" transform="translate(156,115)"/>
<path d="M0 0 C3 1 3 1 3 1 Z " fill="#FF5555" transform="translate(144,115)"/>
<path d="M0 0 C3 1 3 1 3 1 Z " fill="#FFFFFF" transform="translate(34,108)"/>
<path d="M0 0 C0.33 0.66 0.66 1.32 1 2 C0.34 1.67 -0.32 1.34 -1 1 C-0.67 0.67 -0.34 0.34 0 0 Z " fill="#FFFFFF" transform="translate(30,108)"/>
<path d="" fill="#FF5555" transform="translate(0,0)"/>
<path d="M0 0 C0.66 0 1.32 0 2 0 C1.67 0.66 1.34 1.32 1 2 C0.67 1.34 0.34 0.68 0 0 Z " fill="#FFFFFF" transform="translate(41,98)"/>
<path d="M0 0 C0.33 0.66 0.66 1.32 1 2 C0.34 1.67 -0.32 1.34 -1 1 C-0.67 0.67 -0.34 0.34 0 0 Z " fill="#FFE2E2" transform="translate(81,96)"/>
<path d="" fill="#FFFFFF" transform="translate(0,0)"/>
<path d="" fill="#D45555" transform="translate(0,0)"/>
<path d="" fill="#FFFFFF" transform="translate(0,0)"/>
<path d="M0 0 C3 1 3 1 3 1 Z " fill="#FFFFFF" transform="translate(35,95)"/>
<path d="" fill="#E24747" transform="translate(0,0)"/>
<path d="" fill="#FFFFFF" transform="translate(0,0)"/>
<path d="" fill="#FFE2E2" transform="translate(0,0)"/>
<path d="" fill="#E24747" transform="translate(0,0)"/>
<path d="" fill="#FFAAAA" transform="translate(0,0)"/>
<path d="" fill="#FFE2E2" transform="translate(0,0)"/>
<path d="M0 0 C0.99 0.5 0.99 0.5 2 1 C1.01 1.5 1.01 1.5 0 2 C0 1.34 0 0.68 0 0 Z " fill="#FFFFFF" transform="translate(63,77)"/>
<path d="M0 0 C0.66 0.66 1.32 1.32 2 2 C1.34 2 0.68 2 0 2 C0 1.34 0 0.68 0 0 Z " fill="#FFE2E2" transform="translate(27,76)"/>
<path d="" fill="#D42A2A" transform="translate(0,0)"/>
<path d="M0 0 C0.99 0.5 0.99 0.5 2 1 C1.01 1.5 1.01 1.5 0 2 C0 1.34 0 0.68 0 0 Z " fill="#FFFFFF" transform="translate(103,69)"/>
<path d="" fill="#B84747" transform="translate(0,0)"/>
<path d="M0 0 C3 1 3 1 3 1 Z " fill="#E2B8B8" transform="translate(78,68)"/>
<path d="M0 0 C0.66 0.66 1.32 1.32 2 2 C1.34 2 0.68 2 0 2 C0 1.34 0 0.68 0 0 Z " fill="#FF0000" transform="translate(130,59)"/>
<path d="M0 0 C3 1 3 1 3 1 Z " fill="#FF2A2A" transform="translate(110,45)"/>
<path d="M0 0 C3 1 3 1 3 1 Z " fill="#FF0000" transform="translate(107,44)"/>
<path d="M0 0 C0.66 0 1.32 0 2 0 C1.67 0.66 1.34 1.32 1 2 C0.67 1.34 0.34 0.68 0 0 Z " fill="#AA5555" transform="translate(135,43)"/>
<path d="M0 0 C3 1 3 1 3 1 Z " fill="#FF5555" transform="translate(76,43)"/>
<path d="M0 0 C3 1 3 1 3 1 Z " fill="#B84747" transform="translate(120,32)"/>
<path d="M0 0 C3 1 3 1 3 1 Z " fill="#AA5555" transform="translate(115,30)"/>
<path d="M0 0 C3 1 3 1 3 1 Z " fill="#FF2A2A" transform="translate(73,29)"/>
<path d="" fill="#FFFFFF" transform="translate(0,0)"/>
<path d="M0 0 C2 1 2 1 2 1 Z " fill="#D42A2A" transform="translate(112,153)"/>
<path d="M0 0 C2 1 2 1 2 1 Z " fill="#AA5555" transform="translate(114,152)"/>
<path d="M0 0 C2 1 2 1 2 1 Z " fill="#D46A6A" transform="translate(62,152)"/>
<path d="M0 0 C2 1 2 1 2 1 Z " fill="#D42A2A" transform="translate(60,151)"/>
<path d="M0 0 C2 1 2 1 2 1 Z " fill="#FF4040" transform="translate(121,149)"/>
<path d="M0 0 C2 1 2 1 2 1 Z " fill="#FF4040" transform="translate(57,149)"/>
<path d="M0 0 C2 1 2 1 2 1 Z " fill="#FF0000" transform="translate(132,141)"/>
<path d="M0 0 C2 1 2 1 2 1 Z " fill="#FF4040" transform="translate(67,140)"/>
<path d="M0 0 C2 1 2 1 2 1 Z " fill="#FF0000" transform="translate(137,139)"/>
<path d="M0 0 C2 1 2 1 2 1 Z " fill="#FF4040" transform="translate(65,139)"/>
<path d="" fill="#FF0000" transform="translate(0,0)"/>
<path d="M0 0 C2 1 2 1 2 1 Z " fill="#D42A2A" transform="translate(62,137)"/>
<path d="M0 0 C2 1 2 1 2 1 Z " fill="#D42A2A" transform="translate(112,136)"/>
<path d="M0 0 C2 1 2 1 2 1 Z " fill="#FF2A2A" transform="translate(60,136)"/>
<path d="" fill="#FFFFFF" transform="translate(0,0)"/>
<path d="M0 0 C2 1 2 1 2 1 Z " fill="#FFFFFF" transform="translate(66,128)"/>
<path d="M0 0 C2 1 2 1 2 1 Z " fill="#FFFFFF" transform="translate(57,128)"/>
<path d="" fill="#FF0000" transform="translate(0,0)"/>
<path d="M0 0 C2 1 2 1 2 1 Z " fill="#FF4040" transform="translate(159,114)"/>
<path d="M0 0 C2 1 2 1 2 1 Z " fill="#FF0000" transform="translate(165,113)"/>
<path d="" fill="#FFD4D4" transform="translate(0,0)"/>
<path d="M0 0 C2 1 2 1 2 1 Z " fill="#FFFFFF" transform="translate(74,101)"/>
<path d="M0 0 C2 1 2 1 2 1 Z " fill="#FFFFFF" transform="translate(38,96)"/>
<path d="" fill="#FFAAAA" transform="translate(0,0)"/>
<path d="M0 0 C2 1 2 1 2 1 Z " fill="#FF9595" transform="translate(111,93)"/>
<path d="" fill="#FF4040" transform="translate(0,0)"/>
<path d="" fill="#FFFFFF" transform="translate(0,0)"/>
<path d="M0 0 C2 1 2 1 2 1 Z " fill="#BF0000" transform="translate(160,88)"/>
<path d="M0 0 C2 1 2 1 2 1 Z " fill="#FFFFFF" transform="translate(37,84)"/>
<path d="" fill="#FFFFFF" transform="translate(0,0)"/>
<path d="M0 0 C2 1 2 1 2 1 Z " fill="#FFFFFF" transform="translate(39,83)"/>
<path d="M0 0 C2 1 2 1 2 1 Z " fill="#FF0000" transform="translate(113,81)"/>
<path d="" fill="#D46A6A" transform="translate(0,0)"/>
<path d="M0 0 C2 1 2 1 2 1 Z " fill="#FFFFFF" transform="translate(73,71)"/>
<path d="M0 0 C2 1 2 1 2 1 Z " fill="#FF2A2A" transform="translate(41,71)"/>
<path d="M0 0 C2 1 2 1 2 1 Z " fill="#FFFFFF" transform="translate(85,69)"/>
<path d="M0 0 C2 1 2 1 2 1 Z " fill="#FFD4D4" transform="translate(76,69)"/>
<path d="" fill="#FF8080" transform="translate(0,0)"/>
<path d="M0 0 C2 1 2 1 2 1 Z " fill="#D49595" transform="translate(83,68)"/>
<path d="M0 0 C2 1 2 1 2 1 Z " fill="#FFD4D4" transform="translate(106,67)"/>
<path d="M0 0 C2 1 2 1 2 1 Z " fill="#FFFFFF" transform="translate(81,67)"/>
<path d="" fill="#FF8080" transform="translate(0,0)"/>
<path d="M0 0 C2 1 2 1 2 1 Z " fill="#FFDFDF" transform="translate(119,66)"/>
<path d="M0 0 C2 1 2 1 2 1 Z " fill="#FFD4D4" transform="translate(108,66)"/>
<path d="M0 0 C2 1 2 1 2 1 Z " fill="#D42A2A" transform="translate(153,64)"/>
<path d="M0 0 C2 1 2 1 2 1 Z " fill="#FF0000" transform="translate(146,63)"/>
<path d="M0 0 C2 1 2 1 2 1 Z " fill="#FFFFFF" transform="translate(54,61)"/>
<path d="" fill="#FF8080" transform="translate(0,0)"/>
<path d="M0 0 C2 1 2 1 2 1 Z " fill="#FF4040" transform="translate(121,51)"/>
<path d="M0 0 C2 1 2 1 2 1 Z " fill="#FF0000" transform="translate(64,50)"/>
<path d="M0 0 C2 1 2 1 2 1 Z " fill="#FF8080" transform="translate(115,47)"/>
<path d="M0 0 C2 1 2 1 2 1 Z " fill="#D46A6A" transform="translate(113,46)"/>
<path d="M0 0 C2 1 2 1 2 1 Z " fill="#FF8080" transform="translate(74,44)"/>
<path d="M0 0 C2 1 2 1 2 1 Z " fill="#FF4040" transform="translate(105,43)"/>
<path d="M0 0 C2 1 2 1 2 1 Z " fill="#FF8080" transform="translate(53,39)"/>
<path d="M0 0 C2 1 2 1 2 1 Z " fill="#FFFFFF" transform="translate(51,38)"/>
<path d="M0 0 C2 1 2 1 2 1 Z " fill="#BF4040" transform="translate(56,37)"/>
<path d="M0 0 C2 1 2 1 2 1 Z " fill="#FF0000" transform="translate(126,35)"/>
<path d="M0 0 C2 1 2 1 2 1 Z " fill="#FF0000" transform="translate(123,33)"/>
<path d="M0 0 C2 1 2 1 2 1 Z " fill="#956A6A" transform="translate(63,33)"/>
<path d="M0 0 C2 1 2 1 2 1 Z " fill="#BF4040" transform="translate(118,31)"/>
<path d="M0 0 C2 1 2 1 2 1 Z " fill="#D42A2A" transform="translate(68,31)"/>
<path d="M0 0 C2 1 2 1 2 1 Z " fill="#956A6A" transform="translate(71,30)"/>
<path d="M0 0 C2 1 2 1 2 1 Z " fill="#808080" transform="translate(113,29)"/>
<path d="" fill="#FF0000" transform="translate(0,0)"/>
<path d="" fill="#FFFFFF" transform="translate(0,0)"/>
<path d="" fill="#FFFFFF" transform="translate(0,0)"/>
<path d="" fill="#FF0000" transform="translate(0,0)"/>
<path d="" fill="#FFFFFF" transform="translate(0,0)"/>
<path d="" fill="#FF00FF" transform="translate(0,0)"/>
<path d="" fill="#FFFFFF" transform="translate(0,0)"/>
<path d="" fill="#FF0000" transform="translate(0,0)"/>
<path d="" fill="#AA5555" transform="translate(0,0)"/>
<path d="" fill="#FF0000" transform="translate(0,0)"/>
<path d="" fill="#AA5555" transform="translate(0,0)"/>
<path d="" fill="#AA5555" transform="translate(0,0)"/>
<path d="" fill="#FF0000" transform="translate(0,0)"/>
<path d="" fill="#FF8080" transform="translate(0,0)"/>
<path d="" fill="#FFFFFF" transform="translate(0,0)"/>
<path d="" fill="#FF8080" transform="translate(0,0)"/>
<path d="" fill="#AA5555" transform="translate(0,0)"/>
<path d="" fill="#FFFFFF" transform="translate(0,0)"/>
<path d="" fill="#FF8080" transform="translate(0,0)"/>
<path d="" fill="#FFFFFF" transform="translate(0,0)"/>
<path d="" fill="#AA5555" transform="translate(0,0)"/>
<path d="" fill="#FFFFFF" transform="translate(0,0)"/>
<path d="" fill="#FFFFFF" transform="translate(0,0)"/>
<path d="" fill="#FF8080" transform="translate(0,0)"/>
<path d="" fill="#AA5555" transform="translate(0,0)"/>
<path d="" fill="#FFFFFF" transform="translate(0,0)"/>
<path d="" fill="#FFFFFF" transform="translate(0,0)"/>
<path d="" fill="#FF5555" transform="translate(0,0)"/>
<path d="" fill="#FF8080" transform="translate(0,0)"/>
<path d="" fill="#FFFFFF" transform="translate(0,0)"/>
<path d="" fill="#BF4040" transform="translate(0,0)"/>
<path d="" fill="#808080" transform="translate(0,0)"/>
<path d="" fill="#FF0000" transform="translate(0,0)"/>
<path d="" fill="#FF0000" transform="translate(0,0)"/>
<path d="" fill="#FF8080" transform="translate(0,0)"/>
<path d="" fill="#FFFFFF" transform="translate(0,0)"/>
<path d="" fill="#FFFFFF" transform="translate(0,0)"/>
<path d="" fill="#FFFFFF" transform="translate(0,0)"/>
<path d="" fill="#FFFFFF" transform="translate(0,0)"/>
<path d="" fill="#AA5555" transform="translate(0,0)"/>
<path d="" fill="#AA5555" transform="translate(0,0)"/>
<path d="" fill="#FFFFFF" transform="translate(0,0)"/>
<path d="" fill="#FFFFFF" transform="translate(0,0)"/>
<path d="" fill="#FFFFFF" transform="translate(0,0)"/>
<path d="" fill="#AA5555" transform="translate(0,0)"/>
<path d="" fill="#FFFFFF" transform="translate(0,0)"/>
<path d="" fill="#FF8080" transform="translate(0,0)"/>
<path d="" fill="#FFFFFF" transform="translate(0,0)"/>
<path d="" fill="#AA5555" transform="translate(0,0)"/>
<path d="" fill="#FFFFFF" transform="translate(0,0)"/>
<path d="" fill="#FF8080" transform="translate(0,0)"/>
<path d="" fill="#FFFFFF" transform="translate(0,0)"/>
<path d="" fill="#AA5555" transform="translate(0,0)"/>
<path d="" fill="#FF0000" transform="translate(0,0)"/>
<path d="" fill="#FFFFFF" transform="translate(0,0)"/>
<path d="" fill="#FF0000" transform="translate(0,0)"/>
<path d="" fill="#AA5555" transform="translate(0,0)"/>
<path d="" fill="#FF0000" transform="translate(0,0)"/>
<path d="" fill="#FFFFFF" transform="translate(0,0)"/>
<path d="" fill="#FFFFFF" transform="translate(0,0)"/>
<path d="" fill="#FFFFFF" transform="translate(0,0)"/>
<path d="" fill="#FFFFFF" transform="translate(0,0)"/>
<path d="" fill="#FFFFFF" transform="translate(0,0)"/>
<path d="" fill="#FFFFFF" transform="translate(0,0)"/>
<path d="" fill="#FFFFFF" transform="translate(0,0)"/>
<path d="" fill="#FFFFFF" transform="translate(0,0)"/>
<path d="" fill="#FFFFFF" transform="translate(0,0)"/>
<path d="" fill="#FFFFFF" transform="translate(0,0)"/>
<path d="" fill="#FFFFFF" transform="translate(0,0)"/>
<path d="" fill="#FFFFFF" transform="translate(0,0)"/>
<path d="" fill="#FFFFFF" transform="translate(0,0)"/>
<path d="" fill="#FFFFFF" transform="translate(0,0)"/>
<path d="" fill="#FFFFFF" transform="translate(0,0)"/>
<path d="" fill="#FFFFFF" transform="translate(0,0)"/>
<path d="" fill="#FFFFFF" transform="translate(0,0)"/>
<path d="" fill="#FFFFFF" transform="translate(0,0)"/>
<path d="" fill="#FFFFFF" transform="translate(0,0)"/>
<path d="" fill="#FFFFFF" transform="translate(0,0)"/>
<path d="" fill="#FFFFFF" transform="translate(0,0)"/>
<path d="" fill="#FFFFFF" transform="translate(0,0)"/>
<path d="" fill="#FF0000" transform="translate(0,0)"/>
<path d="" fill="#FF0000" transform="translate(0,0)"/>
<path d="" fill="#FFFFFF" transform="translate(0,0)"/>
<path d="" fill="#FFFFFF" transform="translate(0,0)"/>
<path d="" fill="#FF0000" transform="translate(0,0)"/>
<path d="" fill="#FFFFFF" transform="translate(0,0)"/>
<path d="" fill="#FF0000" transform="translate(0,0)"/>
<path d="" fill="#FF0000" transform="translate(0,0)"/>
<path d="" fill="#FF0000" transform="translate(0,0)"/>
<path d="" fill="#FFFFFF" transform="translate(0,0)"/>
<path d="" fill="#FF0000" transform="translate(0,0)"/>
<path d="" fill="#FF0000" transform="translate(0,0)"/>
<path d="" fill="#FFFFFF" transform="translate(0,0)"/>
<path d="" fill="#FF0000" transform="translate(0,0)"/>
<path d="" fill="#FF0000" transform="translate(0,0)"/>
<path d="" fill="#FFFFFF" transform="translate(0,0)"/>
<path d="" fill="#FF8080" transform="translate(0,0)"/>
<path d="" fill="#FFFFFF" transform="translate(0,0)"/>
<path d="" fill="#AA5555" transform="translate(0,0)"/>
<path d="" fill="#FF0080" transform="translate(0,0)"/>
<path d="" fill="#FF8080" transform="translate(0,0)"/>
<path d="" fill="#FFFFFF" transform="translate(0,0)"/>
<path d="" fill="#FFFFFF" transform="translate(0,0)"/>
<path d="" fill="#FF0000" transform="translate(0,0)"/>
<path d="" fill="#FF0000" transform="translate(0,0)"/>
<path d="" fill="#FFFFFF" transform="translate(0,0)"/>
<path d="" fill="#FF0000" transform="translate(0,0)"/>
<path d="" fill="#FF0000" transform="translate(0,0)"/>
<path d="" fill="#FF0000" transform="translate(0,0)"/>
<path d="" fill="#FFFFFF" transform="translate(0,0)"/>
<path d="" fill="#FFFFFF" transform="translate(0,0)"/>
<path d="" fill="#AA5555" transform="translate(0,0)"/>
<path d="" fill="#FFFFFF" transform="translate(0,0)"/>
<path d="" fill="#FFFFFF" transform="translate(0,0)"/>
<path d="" fill="#FFFFFF" transform="translate(0,0)"/>
<path d="" fill="#FFFFFF" transform="translate(0,0)"/>
<path d="" fill="#FFFFFF" transform="translate(0,0)"/>
<path d="" fill="#FFFFFF" transform="translate(0,0)"/>
<path d="" fill="#FFFFFF" transform="translate(0,0)"/>
<path d="" fill="#FF0000" transform="translate(0,0)"/>
<path d="" fill="#FFFFFF" transform="translate(0,0)"/>
<path d="" fill="#FF8080" transform="translate(0,0)"/>
<path d="" fill="#FF0000" transform="translate(0,0)"/>
<path d="" fill="#FFFFFF" transform="translate(0,0)"/>
<path d="" fill="#FFFFFF" transform="translate(0,0)"/>
<path d="" fill="#FFFFFF" transform="translate(0,0)"/>
<path d="" fill="#FF0000" transform="translate(0,0)"/>
<path d="" fill="#FF0000" transform="translate(0,0)"/>
<path d="" fill="#FF0000" transform="translate(0,0)"/>
<path d="" fill="#FFFFFF" transform="translate(0,0)"/>
<path d="" fill="#808080" transform="translate(0,0)"/>
<path d="" fill="#FF0000" transform="translate(0,0)"/>
<path d="" fill="#FF0000" transform="translate(0,0)"/>
<path d="" fill="#FFFFFF" transform="translate(0,0)"/>
<path d="" fill="#FFFFFF" transform="translate(0,0)"/>
<path d="" fill="#FFFFFF" transform="translate(0,0)"/>
<path d="" fill="#FFFFFF" transform="translate(0,0)"/>
<path d="" fill="#FFFFFF" transform="translate(0,0)"/>
<path d="" fill="#FFFFFF" transform="translate(0,0)"/>
<path d="" fill="#FFFFFF" transform="translate(0,0)"/>
<path d="" fill="#FFFFFF" transform="translate(0,0)"/>
<path d="" fill="#FF0000" transform="translate(0,0)"/>
<path d="" fill="#FFFFFF" transform="translate(0,0)"/>
<path d="" fill="#FFBFFF" transform="translate(0,0)"/>
<path d="" fill="#FFFFFF" transform="translate(0,0)"/>
<path d="" fill="#FFFFFF" transform="translate(0,0)"/>
<path d="" fill="#FFFFFF" transform="translate(0,0)"/>
<path d="" fill="#FFFFFF" transform="translate(0,0)"/>
<path d="" fill="#FFFFFF" transform="translate(0,0)"/>
<path d="" fill="#FFFFFF" transform="translate(0,0)"/>
<path d="" fill="#FFFFFF" transform="translate(0,0)"/>
<path d="" fill="#FFFFFF" transform="translate(0,0)"/>
<path d="" fill="#FFFFFF" transform="translate(0,0)"/>
<path d="" fill="#FF0000" transform="translate(0,0)"/>
<path d="" fill="#FF0000" transform="translate(0,0)"/>
<path d="" fill="#FFFFFF" transform="translate(0,0)"/>
<path d="" fill="#FFFFFF" transform="translate(0,0)"/>
<path d="" fill="#FF0000" transform="translate(0,0)"/>
<path d="" fill="#FFFFFF" transform="translate(0,0)"/>
<path d="" fill="#FFAAFF" transform="translate(0,0)"/>
<path d="" fill="#FFAAAA" transform="translate(0,0)"/>
<path d="" fill="#FFAAFF" transform="translate(0,0)"/>
<path d="" fill="#FF0000" transform="translate(0,0)"/>
<path d="" fill="#FFAAAA" transform="translate(0,0)"/>
<path d="" fill="#FFFFFF" transform="translate(0,0)"/>
<path d="" fill="#FFFFFF" transform="translate(0,0)"/>
<path d="" fill="#FF0000" transform="translate(0,0)"/>
<path d="" fill="#FFFFFF" transform="translate(0,0)"/>
<path d="" fill="#FF8080" transform="translate(0,0)"/>
<path d="" fill="#FFFFFF" transform="translate(0,0)"/>
<path d="" fill="#FF0000" transform="translate(0,0)"/>
<path d="" fill="#FFFFFF" transform="translate(0,0)"/>
<path d="" fill="#FFFFFF" transform="translate(0,0)"/>
<path d="" fill="#FF0000" transform="translate(0,0)"/>
<path d="" fill="#FFFFFF" transform="translate(0,0)"/>
<path d="" fill="#FFFFFF" transform="translate(0,0)"/>
<path d="" fill="#FF8080" transform="translate(0,0)"/>
<path d="" fill="#FF8080" transform="translate(0,0)"/>
<path d="" fill="#FFFFFF" transform="translate(0,0)"/>
<path d="" fill="#FFFFFF" transform="translate(0,0)"/>
<path d="" fill="#FF8080" transform="translate(0,0)"/>
<path d="" fill="#FF0000" transform="translate(0,0)"/>
<path d="" fill="#FFFFFF" transform="translate(0,0)"/>
<path d="" fill="#FF8080" transform="translate(0,0)"/>
<path d="" fill="#FF0000" transform="translate(0,0)"/>
<path d="" fill="#FF0000" transform="translate(0,0)"/>
<path d="" fill="#FFFFFF" transform="translate(0,0)"/>
<path d="" fill="#AA5555" transform="translate(0,0)"/>
<path d="" fill="#808080" transform="translate(0,0)"/>
<path d="" fill="#FF0000" transform="translate(0,0)"/>
<path d="" fill="#FF0000" transform="translate(0,0)"/>
<path d="" fill="#FF0000" transform="translate(0,0)"/>
<path d="" fill="#BF4040" transform="translate(0,0)"/>
<path d="" fill="#FF8080" transform="translate(0,0)"/>
<path d="" fill="#AA5555" transform="translate(0,0)"/>
<path d="" fill="#FFFFFF" transform="translate(0,0)"/>
<path d="" fill="#BF4040" transform="translate(0,0)"/>
<path d="" fill="#FF8080" transform="translate(0,0)"/>
<path d="" fill="#FF0000" transform="translate(0,0)"/>
<path d="" fill="#AA5555" transform="translate(0,0)"/>
<path d="" fill="#FFFFFF" transform="translate(0,0)"/>
<path d="" fill="#FFFFFF" transform="translate(0,0)"/>
<path d="" fill="#AA5555" transform="translate(0,0)"/>
<path d="" fill="#FF0000" transform="translate(0,0)"/>
<path d="" fill="#BF4040" transform="translate(0,0)"/>
<path d="" fill="#FF8080" transform="translate(0,0)"/>
<path d="" fill="#FF8080" transform="translate(0,0)"/>
<path d="" fill="#FF0000" transform="translate(0,0)"/>
<path d="" fill="#FFFFFF" transform="translate(0,0)"/>
<path d="" fill="#FF0000" transform="translate(0,0)"/>
<path d="" fill="#AA5555" transform="translate(0,0)"/>
<path d="" fill="#FF8080" transform="translate(0,0)"/>
<path d="" fill="#808080" transform="translate(0,0)"/>
<path d="" fill="#AA5555" transform="translate(0,0)"/>
<path d="" fill="#FF0000" transform="translate(0,0)"/>
<path d="" fill="#808080" transform="translate(0,0)"/>
<path d="" fill="#808080" transform="translate(0,0)"/>
<path d="" fill="#FF0000" transform="translate(0,0)"/>
<path d="" fill="#808080" transform="translate(0,0)"/>
<path d="" fill="#FFFFFF" transform="translate(0,0)"/>
<path d="" fill="#FF0000" transform="translate(0,0)"/>
<path d="" fill="#FF0000" transform="translate(0,0)"/>
<path d="" fill="#FF0000" transform="translate(0,0)"/>
<path d="" fill="#808080" transform="translate(0,0)"/>
<path d="" fill="#FF0000" transform="translate(0,0)"/>
<path d="" fill="#808080" transform="translate(0,0)"/>
<path d="" fill="#FF0000" transform="translate(0,0)"/>
<path d="" fill="#FF8080" transform="translate(0,0)"/>
<path d="" fill="#FF0000" transform="translate(0,0)"/>
<path d="" fill="#FF0000" transform="translate(0,0)"/>
<path d="" fill="#FF0000" transform="translate(0,0)"/>
<path d="" fill="#FF0000" transform="translate(0,0)"/>
<path d="" fill="#FF0000" transform="translate(0,0)"/>
<path d="" fill="#FF0000" transform="translate(0,0)"/>
<path d="" fill="#FF0000" transform="translate(0,0)"/>
<path d="" fill="#FF0000" transform="translate(0,0)"/>
<path d="" fill="#FF0000" transform="translate(0,0)"/>
<path d="" fill="#FF0000" transform="translate(0,0)"/>
<path d="" fill="#FF0000" transform="translate(0,0)"/>
</svg>
