<?xml version="1.0" encoding="UTF-8"?>
<!-- Generator: https://ezgif.com/png-to-svg -->
<svg version="1.1" xmlns="http://www.w3.org/2000/svg" width="402" height="402">
<path d="M0 0 C0.88 0 1.75 0 2.66 0 C17.28 0.04 31.34 1.02 45.62 4.38 C46.51 4.58 47.4 4.78 48.31 4.99 C75.87 11.57 101.15 24.28 123.62 41.38 C124.48 42.01 125.34 42.64 126.23 43.3 C167.02 74.87 193.13 122.76 200.77 173.42 C201.9 182.52 202.02 191.59 202 200.75 C202 202.06 202 202.06 202 203.41 C201.96 218.03 200.98 232.09 197.62 246.38 C197.42 247.26 197.22 248.15 197.01 249.06 C190.43 276.62 177.72 301.9 160.62 324.38 C159.67 325.66 159.67 325.66 158.7 326.98 C127.13 367.77 79.24 393.88 28.58 401.52 C19.48 402.65 10.41 402.77 1.25 402.75 C0.37 402.75 -0.5 402.75 -1.41 402.75 C-16.03 402.71 -30.09 401.73 -44.38 398.38 C-45.26 398.17 -46.15 397.97 -47.06 397.76 C-74.62 391.18 -99.9 378.47 -122.38 361.38 C-123.23 360.74 -124.09 360.11 -124.98 359.45 C-165.77 327.88 -191.88 279.99 -199.52 229.33 C-200.65 220.23 -200.77 211.16 -200.75 202 C-200.75 201.12 -200.75 200.25 -200.75 199.34 C-200.71 184.72 -199.73 170.66 -196.38 156.38 C-196.17 155.49 -195.97 154.6 -195.76 153.69 C-189.18 126.13 -176.47 100.85 -159.38 78.38 C-158.74 77.52 -158.11 76.66 -157.45 75.77 C-125.88 34.98 -77.99 8.87 -27.33 1.23 C-18.23 0.1 -9.16 -0.02 0 0 Z " fill="#EDE7DD" transform="translate(200.375,-0.375)"/>
<path d="M0 0 C0.88 0 1.75 0 2.66 0 C17.28 0.04 31.34 1.02 45.62 4.38 C46.51 4.58 47.4 4.78 48.31 4.99 C75.87 11.57 101.15 24.28 123.62 41.38 C124.48 42.01 125.34 42.64 126.23 43.3 C132.97 48.52 138.95 54.5 145 60.5 C145.87 61.36 146.74 62.22 147.63 63.1 C159.62 75.16 159.62 75.16 159.62 79.38 C151.71 79.87 151.71 79.87 143.62 80.38 C143.62 81.36 143.62 82.36 143.62 83.38 C143.01 83.44 142.4 83.5 141.76 83.56 C140.95 83.64 140.15 83.73 139.31 83.81 C138.51 83.89 137.71 83.97 136.89 84.06 C134.46 84.33 134.46 84.33 131.62 85.38 C129.44 84.94 129.44 84.94 127.62 84.38 C127.3 85.36 126.96 86.36 126.62 87.38 C125.17 87.68 125.17 87.68 123.69 88 C120.48 89.01 120.48 89.01 119.79 91.5 C119.3 93.79 118.9 96.05 118.62 98.38 C117.31 98.38 115.99 98.38 114.62 98.38 C114.79 99.14 114.95 99.9 115.12 100.69 C115.62 103.38 115.62 103.38 115.62 106.38 C114.54 105.89 113.46 105.4 112.35 104.9 C106.06 102.54 99.58 102.94 92.94 102.94 C86.71 102.82 83.52 102.21 78.62 98.38 C74.87 98.04 74.87 98.04 71.62 98.38 C73.61 99.36 75.58 100.36 77.62 101.38 C77.62 102.36 77.62 103.36 77.62 104.38 C73.2 104.18 71.18 103.91 67.93 100.79 C67.1 99.73 66.29 98.65 65.5 97.56 C60.22 90.57 55.58 87.04 47.38 84.25 C39.75 81.63 39.75 81.63 38.62 79.38 C45.38 79.25 45.38 79.25 47.62 80.38 C50.11 80.46 52.56 80.49 55.04 80.47 C56.13 80.47 56.13 80.47 57.25 80.47 C59.58 80.46 61.92 80.45 64.25 80.44 C65.83 80.43 67.41 80.43 68.99 80.42 C72.87 80.41 76.75 80.4 80.62 80.38 C79.14 85.32 79.14 85.32 77.62 90.38 C79.67 90.58 79.67 90.58 81.12 89.25 C83.07 86.81 83.77 84.35 84.62 81.38 C86.27 81.38 87.93 81.38 89.62 81.38 C89.51 82.79 89.38 84.21 89.25 85.62 C89.18 86.41 89.11 87.2 89.04 88.02 C88.61 90.46 87.84 92.22 86.62 94.38 C87.29 94.38 87.94 94.38 88.62 94.38 C89.06 93.5 89.06 93.5 89.51 92.61 C92.88 85.87 96.25 79.12 99.62 72.38 C99.99 69.02 100.18 67.13 98.13 64.36 C94.74 61.67 91.3 60.72 87.19 59.5 C81.4 57.69 75.91 55.73 70.44 53.12 C63.77 49.95 58.33 48.38 50.94 48 C46.24 47.74 42.63 47.15 38.31 45.31 C26.86 41.11 10.76 41.3 -0.75 45.38 C-15.73 52.53 -25.49 62.93 -31.12 78.43 C-34.83 90.77 -31.83 104.09 -25.85 115.22 C-24.44 117.37 -22.99 119.38 -21.38 121.38 C-20.79 122.18 -20.21 122.98 -19.61 123.81 C-16.98 126.83 -14.06 129 -10.75 131.19 C-10.1 131.62 -9.45 132.05 -8.78 132.5 C-1.73 137.02 5.8 140.2 13.49 143.45 C17.88 145.35 22.12 147.55 26.38 149.72 C28.53 150.82 30.7 151.89 32.88 152.93 C43.36 157.98 51.13 163.64 57.62 173.38 C58.17 177.09 58.17 180.66 57.62 184.38 C55.42 187.27 53.84 188.77 50.62 190.38 C40.55 191.64 32.14 188.95 24.14 182.79 C13.52 174.15 4.6 164.15 -3.6 153.24 C-8.14 147.25 -13.2 141.81 -18.38 136.38 C-19.14 135.55 -19.9 134.72 -20.68 133.87 C-26 128.28 -31.68 124.19 -38.38 120.38 C-39.08 119.97 -39.78 119.57 -40.5 119.16 C-52.67 112.66 -65.97 111.25 -79.25 115 C-92.19 119.58 -102.16 127.18 -108.31 139.56 C-114.43 152.45 -115.73 166.67 -111.75 180.56 C-106.81 193.96 -98.38 205.11 -85.38 211.38 C-78.06 214.41 -71.57 216.45 -63.64 216.69 C-62.35 216.73 -61.05 216.78 -59.71 216.82 C-58.35 216.86 -56.99 216.9 -55.62 216.94 C-54.25 216.98 -52.87 217.02 -51.49 217.07 C-48.12 217.17 -44.75 217.28 -41.38 217.38 C-41.95 220.25 -42.29 221.29 -44.38 223.5 C-53.94 229.48 -66.46 227.91 -77.09 226.14 C-83.91 224.55 -90.16 221.54 -96.38 218.38 C-92.66 223.86 -89.09 227.98 -83.38 231.38 C-82.79 231.73 -82.21 232.09 -81.61 232.46 C-67.25 240.49 -47.06 240.83 -31.44 236.69 C-24.08 234.17 -17.68 231.09 -13.38 224.38 C-11.68 218.85 -11.31 213.21 -13.36 207.75 C-18.77 197.78 -27.89 192.8 -38.38 189.38 C-40.6 188.75 -42.83 188.12 -45.06 187.5 C-52.08 185.41 -56.33 182.44 -60.38 176.38 C-60.69 173.81 -60.69 173.81 -60.38 171.38 C-56.28 168.65 -53.18 168.78 -48.38 169.38 C-35.38 174.14 -25.23 185.27 -15.75 194.95 C-12.69 198.08 -9.52 201.04 -6.16 203.85 C-4.9 204.93 -3.66 206.06 -2.46 207.21 C4.66 213.96 13.61 220.43 22.72 224.26 C24.62 225.38 24.62 225.38 26.62 229.38 C23.32 229.04 20.03 228.72 16.62 228.38 C17.28 229.03 17.94 229.69 18.62 230.38 C18.96 230.38 19.28 230.38 19.62 230.38 C21.29 230.7 22.96 231.03 24.62 231.38 C25.03 233.08 25.03 233.08 25.44 234.81 C25.83 235.99 26.22 237.16 26.62 238.38 C27.62 238.71 28.6 239.03 29.62 239.38 C28.97 236.74 28.31 234.09 27.62 231.38 C29.6 231.71 31.59 232.03 33.62 232.38 C33.62 233.03 33.62 233.69 33.62 234.38 C36.59 235.37 36.59 235.37 39.62 236.38 C39.62 237.37 39.62 238.35 39.62 239.38 C44.91 239.38 50.19 239.38 55.62 239.38 C55.62 240.37 55.62 241.35 55.62 242.38 C56.29 242.71 56.94 243.03 57.62 243.38 C54.59 244.89 51.45 244.43 48.12 244.38 C38.81 244.13 38.81 244.13 29.62 245.38 C29.29 246.03 28.97 246.69 28.62 247.38 C29.62 248.03 30.6 248.69 31.62 249.38 C30.36 249.44 29.1 249.5 27.79 249.56 C26.13 249.64 24.47 249.73 22.81 249.81 C21.98 249.85 21.15 249.89 20.29 249.93 C19.08 249.99 19.08 249.99 17.86 250.06 C17.12 250.1 16.38 250.13 15.62 250.17 C13.42 250.32 13.42 250.32 10.62 251.38 C10.62 252.03 10.62 252.69 10.62 253.38 C11.28 253.38 11.94 253.38 12.62 253.38 C13.9 257.2 13.49 260.61 13.19 264.56 C13.14 265.31 13.08 266.06 13.03 266.83 C12.9 268.68 12.76 270.53 12.62 272.38 C11.31 272.38 9.99 272.38 8.62 272.38 C8.62 269.74 8.62 267.1 8.62 264.38 C9.94 264.05 11.26 263.71 12.62 263.38 C12.17 262.92 11.72 262.47 11.25 262 C7.62 258.38 7.62 258.38 7.5 255.75 C7.54 254.97 7.58 254.18 7.62 253.38 C7.01 253.56 6.39 253.75 5.75 253.94 C3.62 254.38 3.62 254.38 1.62 253.38 C-0.37 253.34 -2.38 253.33 -4.38 253.38 C-3.38 255.85 -3.38 255.85 -2.38 258.38 C-3.37 258.05 -4.35 257.71 -5.38 257.38 C-5.34 258.42 -5.31 259.47 -5.27 260.55 C-5.24 261.93 -5.21 263.31 -5.19 264.69 C-5.16 265.38 -5.14 266.07 -5.11 266.78 C-5.07 269.65 -5.06 271.83 -6.53 274.34 C-9.12 275.79 -11.11 275.67 -14.06 275.56 C-15.06 275.54 -16.05 275.51 -17.07 275.48 C-18.21 275.43 -18.21 275.43 -19.38 275.38 C-19.4 272.94 -19.42 270.5 -19.44 268.06 C-19.45 267.37 -19.45 266.68 -19.46 265.97 C-19.48 262.83 -19.38 260.38 -18.38 257.38 C-19.03 257.38 -19.69 257.38 -20.38 257.38 C-20.38 256.38 -20.38 255.4 -20.38 254.38 C-21.69 254.38 -23.01 254.38 -24.38 254.38 C-24.71 255.03 -25.03 255.69 -25.38 256.38 C-26.03 256.38 -26.69 256.38 -27.38 256.38 C-27.38 255.38 -27.38 254.4 -27.38 253.38 C-26.2 253.39 -26.2 253.39 -25 253.41 C-23.99 253.42 -22.98 253.43 -21.94 253.44 C-20.42 253.45 -20.42 253.45 -18.88 253.47 C-16.43 253.66 -16.43 253.66 -15.38 252.38 C-18.68 252.38 -21.97 252.38 -25.38 252.38 C-25.38 252.04 -25.38 251.72 -25.38 251.38 C-28.01 251.38 -30.66 251.38 -33.38 251.38 C-33.05 251.95 -32.73 252.52 -32.39 253.11 C-31.33 255.48 -31.11 256.98 -31.07 259.55 C-31.04 260.76 -31.04 260.76 -31.02 262 C-31.01 262.87 -31.01 263.74 -31 264.63 C-30.99 265.53 -30.99 266.42 -30.98 267.35 C-30.96 269.24 -30.95 271.14 -30.95 273.03 C-30.94 275.93 -30.89 278.83 -30.84 281.73 C-30.83 283.57 -30.82 285.41 -30.82 287.25 C-30.8 288.12 -30.78 288.99 -30.76 289.89 C-30.77 292.16 -30.82 294.17 -31.38 296.38 C-33.91 298.45 -33.91 298.45 -36.38 299.38 C-37.37 297.89 -37.37 297.89 -38.38 296.38 C-38.71 296.05 -39.03 295.71 -39.38 295.38 C-39.42 293.38 -39.42 291.37 -39.38 289.38 C-38.38 289.7 -37.4 290.04 -36.38 290.38 C-36.04 289.06 -35.72 287.74 -35.38 286.38 C-36.03 286.38 -36.69 286.38 -37.38 286.38 C-37.71 287.04 -38.03 287.69 -38.38 288.38 C-38.38 287.06 -38.38 285.74 -38.38 284.38 C-40.32 284.57 -40.32 284.57 -42.38 285.38 C-43.53 287.34 -43.53 287.34 -44.38 289.38 C-47.44 290.91 -50.64 290.48 -54 290.44 C-54.71 290.43 -55.41 290.43 -56.14 290.42 C-57.89 290.41 -59.63 290.39 -61.38 290.38 C-61.45 285.34 -61.5 280.3 -61.54 275.27 C-61.55 273.56 -61.58 271.84 -61.6 270.13 C-61.64 267.67 -61.65 265.2 -61.67 262.74 C-61.68 261.98 -61.7 261.21 -61.71 260.43 C-61.72 255.4 -61.12 253.95 -58.38 249.38 C-64.31 249.38 -70.25 249.38 -76.38 249.38 C-75.39 251.35 -74.39 253.34 -73.38 255.38 C-72.99 257.61 -72.99 257.61 -72.99 259.72 C-72.98 260.53 -72.97 261.33 -72.96 262.15 C-72.96 263 -72.97 263.85 -72.98 264.72 C-72.97 265.61 -72.97 266.49 -72.97 267.41 C-72.97 269.28 -72.97 271.15 -72.98 273.02 C-73 275.87 -72.98 278.72 -72.96 281.57 C-72.97 283.39 -72.97 285.21 -72.98 287.03 C-72.97 287.88 -72.96 288.73 -72.96 289.6 C-72.97 290.4 -72.98 291.2 -72.99 292.03 C-72.99 292.72 -72.99 293.42 -72.99 294.14 C-73.38 296.38 -73.38 296.38 -76.38 302.38 C-64.5 302.38 -52.62 302.38 -40.38 302.38 C-40.38 302.7 -40.38 303.04 -40.38 303.38 C-42.69 303.38 -45 303.38 -47.38 303.38 C-46.38 306.01 -45.4 308.65 -44.38 311.38 C-49.32 311.38 -54.28 311.38 -59.38 311.38 C-58.38 312.86 -58.38 312.86 -57.38 314.38 C-57.15 316.83 -57.15 316.83 -57.18 319.7 C-57.19 321.24 -57.19 321.24 -57.2 322.81 C-57.22 324.42 -57.22 324.42 -57.25 326.06 C-57.26 327.15 -57.27 328.23 -57.28 329.35 C-57.3 332.02 -57.33 334.7 -57.38 337.38 C-60.03 334.99 -61.59 332.46 -63.29 329.34 C-64.09 327.88 -64.09 327.88 -64.9 326.39 C-65.73 324.87 -65.73 324.87 -66.56 323.31 C-67.12 322.29 -67.68 321.27 -68.26 320.22 C-72.38 312.64 -72.38 312.64 -72.38 310.38 C-73.65 310.39 -74.93 310.4 -76.24 310.41 C-77.91 310.42 -79.58 310.43 -81.25 310.44 C-82.09 310.45 -82.93 310.45 -83.8 310.46 C-85.01 310.47 -85.01 310.47 -86.24 310.47 C-87.36 310.48 -87.36 310.48 -88.5 310.49 C-90.38 310.38 -90.38 310.38 -92.38 309.38 C-92.38 310.04 -92.38 310.69 -92.38 311.38 C-95.38 312.38 -95.38 312.38 -98.38 311.38 C-98.38 310.38 -98.38 309.39 -98.38 308.38 C-99.36 308.38 -100.36 308.38 -101.38 308.38 C-101.7 306.73 -102.03 305.07 -102.38 303.38 C-99.52 302.56 -97.01 302.26 -94.05 302.28 C-93.25 302.28 -92.45 302.28 -91.62 302.29 C-90.8 302.3 -89.97 302.3 -89.12 302.31 C-88.28 302.32 -87.44 302.32 -86.58 302.33 C-84.51 302.34 -82.44 302.36 -80.38 302.38 C-80.7 301.84 -81.03 301.31 -81.36 300.76 C-84.69 295.09 -86.73 289.65 -88.38 283.31 C-88.88 281.47 -89.38 279.62 -89.89 277.77 C-90.13 276.87 -90.38 275.96 -90.63 275.02 C-92.07 269.88 -93.74 264.8 -95.39 259.72 C-96.38 256.38 -96.38 256.38 -97.38 250.38 C-107.77 249.88 -107.77 249.88 -118.38 249.38 C-118.05 250.37 -117.72 251.35 -117.38 252.38 C-116.94 258.23 -118.19 262.74 -120.06 268.19 C-122.53 275.63 -124.75 283.09 -126.73 290.68 C-127.62 294.01 -128.44 296.47 -130.38 299.38 C-131.03 299.38 -131.69 299.38 -132.38 299.38 C-131.88 300.86 -131.88 300.86 -131.38 302.38 C-125.44 302.38 -119.5 302.38 -113.38 302.38 C-114.03 302.7 -114.69 303.04 -115.38 303.38 C-115.38 304.37 -115.38 305.36 -115.38 306.38 C-114.39 306.7 -113.39 307.04 -112.38 307.38 C-112.7 308.37 -113.03 309.36 -113.38 310.38 C-114.56 310.52 -115.74 310.67 -116.95 310.82 C-118.51 311.05 -120.07 311.27 -121.62 311.5 C-122.4 311.59 -123.18 311.69 -123.98 311.78 C-128.25 312.44 -129.91 312.86 -132.89 316.18 C-135.5 321.79 -135.06 326.79 -133.5 332.69 C-128.56 338.93 -119.83 341.08 -112.53 343.58 C-110.37 344.38 -110.37 344.38 -109.38 345.38 C-109.25 348.38 -109.25 348.38 -109.38 351.38 C-110.38 352.38 -110.38 352.38 -112.84 352.51 C-114.34 352.5 -114.34 352.5 -115.88 352.5 C-116.88 352.5 -117.88 352.51 -118.91 352.51 C-121.37 352.38 -121.37 352.38 -122.38 351.38 C-122.38 349.39 -122.38 347.42 -122.38 345.38 C-126.33 345.38 -130.3 345.38 -134.38 345.38 C-134.38 347.02 -134.38 348.68 -134.38 350.38 C-171.73 319.82 -195.33 271.15 -200.2 223.48 C-200.79 216.34 -200.77 209.16 -200.75 202 C-200.75 201.12 -200.75 200.25 -200.75 199.34 C-200.71 184.72 -199.73 170.66 -196.38 156.38 C-196.17 155.49 -195.97 154.6 -195.76 153.69 C-189.18 126.13 -176.47 100.85 -159.38 78.38 C-158.74 77.52 -158.11 76.66 -157.45 75.77 C-125.88 34.98 -77.99 8.87 -27.33 1.23 C-18.23 0.1 -9.16 -0.02 0 0 Z " fill="#EDE8DD" transform="translate(200.375,-0.375)"/>
<path d="M0 0 C1.66 0.01 1.66 0.01 3.34 0.03 C10.05 0.17 15.67 0.91 21.89 3.56 C25.17 4.71 28.09 4.85 31.56 5 C41.31 5.47 49.2 8.69 57.71 13.21 C61.97 15.14 66.43 16.36 70.94 17.54 C75.71 18.87 78.6 20.51 81.56 24.5 C82.61 29.89 80.27 33.86 77.81 38.5 C77.29 39.53 77.29 39.53 76.76 40.58 C74.61 44.74 72.36 48.74 69.56 52.5 C68.9 52.5 68.24 52.5 67.56 52.5 C68.55 48.21 69.54 43.92 70.56 39.5 C68.91 39.5 67.26 39.5 65.56 39.5 C65.31 40.57 65.07 41.65 64.81 42.75 C63.56 46.5 62.54 48.02 59.56 50.5 C58.57 50.17 57.58 49.84 56.56 49.5 C57.22 48.51 57.88 47.52 58.56 46.5 C59.27 44.18 59.94 41.85 60.56 39.5 C59.12 39.51 59.12 39.51 57.66 39.52 C54.1 39.53 50.55 39.55 47 39.55 C45.46 39.56 43.92 39.57 42.39 39.58 C40.18 39.59 37.97 39.59 35.76 39.6 C35.07 39.6 34.38 39.61 33.67 39.61 C28.79 39.61 28.79 39.61 26.56 38.5 C24.56 38.46 22.56 38.46 20.56 38.5 C22.16 39.03 22.16 39.03 23.78 39.57 C34.5 43.25 41.32 47 48.12 56.31 C50.36 59.34 51.84 61.03 55.5 62.06 C56.51 62.21 57.52 62.35 58.56 62.5 C58.23 61.51 57.9 60.52 57.56 59.5 C54.06 57.78 54.06 57.78 50.56 56.5 C50.56 56.17 50.56 55.84 50.56 55.5 C51.94 55.39 53.31 55.31 54.69 55.25 C55.45 55.2 56.22 55.16 57.01 55.11 C59.56 55.5 59.56 55.5 62.16 57.48 C67.74 60.79 73.63 60.01 79.98 59.99 C86.63 60.08 90.84 61.06 96.56 64.5 C96.56 65.49 96.56 66.48 96.56 67.5 C95.55 67.27 95.55 67.27 94.52 67.03 C93.62 66.83 92.73 66.64 91.81 66.44 C90.93 66.24 90.05 66.04 89.14 65.84 C86.58 65.5 84.99 65.69 82.56 66.5 C83.51 67.26 84.46 68.03 85.44 68.81 C87.73 70.66 88.87 71.97 90.56 74.5 C90.69 77.19 90.69 77.19 90.56 79.5 C90.1 79.14 89.64 78.77 89.16 78.4 C79.66 70.51 79.66 70.51 68.25 66.88 C64.53 67.19 64.53 67.19 62.12 69.5 C58.86 72.05 56.87 72.02 52.82 71.82 C46.71 70.96 42.43 67.77 37.71 64.11 C31.89 59.75 25.62 56.46 19 53.5 C9.69 49.28 0.33 44.03 -4.44 34.5 C-9.31 34.01 -12.55 34.02 -16.94 36.38 C-20.09 39.44 -20.38 42.82 -20.54 47.07 C-20.27 53.46 -17.56 56.95 -13.44 61.5 C-14.26 58.63 -14.26 58.63 -15.5 56.81 C-16.89 53.38 -17.01 50.11 -16.44 46.5 C-14.62 43 -14.62 43 -12.44 40.5 C-11.45 40.5 -10.46 40.5 -9.44 40.5 C-9.58 41.27 -9.72 42.05 -9.87 42.84 C-10.94 50.07 -10.94 50.07 -8.44 56.69 C1 67.02 15.87 72.06 28.34 77.76 C40.88 83.51 52 89.52 62.56 98.5 C64.14 99.64 64.14 99.64 65.75 100.81 C75.37 110 81.65 123.63 82.04 136.87 C82.14 150.97 79.22 161.38 69.75 172.32 C59.12 182.91 44.84 188.36 30 188.88 C7.18 188.48 -10.21 176.61 -26.44 161.5 C-27.5 160.53 -28.57 159.55 -29.64 158.58 C-34.51 154.12 -39.32 149.67 -43.88 144.88 C-47.53 141.17 -51.47 138.09 -55.69 135.06 C-56.28 134.64 -56.87 134.21 -57.48 133.77 C-62.28 130.42 -66.21 128.2 -72.12 128.31 C-73.28 128.32 -73.28 128.32 -74.45 128.33 C-76.51 128.38 -76.51 128.38 -78.44 129.5 C-78.97 133.1 -78.47 134.44 -76.5 137.56 C-71.84 142.62 -65.4 144.21 -59.01 146.2 C-46.73 150.07 -37.88 155.18 -31.3 166.44 C-29.18 171.48 -30.05 177.13 -31.5 182.25 C-36.69 190.95 -44.73 193.78 -54.05 196.59 C-59.22 197.84 -64.34 197.84 -69.62 197.81 C-71.15 197.8 -71.15 197.8 -72.71 197.8 C-87.92 197.55 -100.5 193.68 -111.91 183.18 C-113.78 181.13 -114.78 179.2 -115.44 176.5 C-110.44 178.5 -110.44 178.5 -108 179.5 C-94.33 184.83 -78.37 187.22 -64.44 181.5 C-61.99 179.52 -61.46 178.58 -60.44 175.5 C-61.25 175.52 -62.06 175.54 -62.89 175.56 C-65.97 175.63 -69.04 175.68 -72.11 175.72 C-74.07 175.75 -76.03 175.8 -77.99 175.85 C-94.17 176.02 -107.3 171.05 -119.08 160.02 C-131.08 147.21 -134.04 132.74 -133.78 115.83 C-133.22 102.64 -126.01 91.27 -116.62 82.35 C-105.93 73.3 -93.18 69.49 -79.29 70.12 C-73.53 70.69 -68.7 72.14 -63.44 74.5 C-62.38 74.97 -61.32 75.45 -60.23 75.94 C-51.57 80.21 -45.21 85.78 -38.44 92.5 C-37.58 93.3 -36.73 94.11 -35.85 94.94 C-30.04 100.51 -25.13 106.55 -20.22 112.91 C-8.95 127.5 2.47 141.47 20.56 147.5 C22.37 147.59 24.19 147.63 26 147.62 C26.95 147.63 27.89 147.63 28.87 147.63 C32.31 147.48 32.31 147.48 35.56 146.5 C38.67 142.08 38.37 136.64 37.56 131.5 C31.3 118.68 16.03 112.4 3.64 107.13 C-2.12 104.68 -7.69 101.96 -13.26 99.11 C-15.21 98.12 -17.17 97.16 -19.14 96.23 C-34.45 89.02 -44.58 78.77 -50.41 62.84 C-54.32 50.18 -52.81 38.64 -47.12 26.74 C-40.09 14.19 -28.91 6.03 -15.46 1.31 C-10.31 -0.07 -5.3 -0.09 0 0 Z " fill="#153826" transform="translate(219.4375,41.5)"/>
<path d="M0 0 C6.93 0 13.86 0 21 0 C22.69 5.07 24.33 10 25.75 15.12 C27.64 21.79 29.58 28.43 31.56 35.06 C31.86 36.06 32.15 37.06 32.45 38.09 C33.87 42.8 35.26 46.86 38 51 C38 51.66 38 52.32 38 53 C36.72 53.05 35.45 53.1 34.13 53.15 C32.46 53.22 30.79 53.3 29.12 53.38 C27.86 53.42 27.86 53.42 26.57 53.47 C25.37 53.53 25.37 53.53 24.13 53.59 C23.39 53.62 22.65 53.65 21.88 53.68 C19.76 53.85 19.76 53.85 18 56 C17.67 55.67 17.34 55.34 17 55 C17 56.32 17 57.64 17 59 C17.99 59 18.98 59 20 59 C20 59.99 20 60.98 20 62 C21.98 62 23.96 62 26 62 C26 61.34 26 60.68 26 60 C32.63 59.17 39.68 58.47 46 61 C50.65 65.48 52.81 71.72 55.05 77.66 C56.4 80.98 58.14 83.94 60 87 C60.03 83.4 60.05 79.79 60.06 76.19 C60.08 74.65 60.08 74.65 60.09 73.08 C60.09 71.61 60.09 71.61 60.1 70.11 C60.11 68.75 60.11 68.75 60.11 67.36 C60.1 64.85 60.1 64.85 59 62 C63.62 61.67 68.24 61.34 73 61 C72.01 59.02 72.01 59.02 71 57 C71 56.01 71 55.02 71 54 C61.43 53.67 51.86 53.34 42 53 C42.66 51.02 43.32 49.04 44 47 C44.29 44.77 44.29 44.77 44.26 42.6 C44.27 41.79 44.27 40.98 44.28 40.15 C44.27 39.29 44.27 38.43 44.27 37.55 C44.27 36.66 44.27 35.76 44.27 34.84 C44.27 32.96 44.27 31.08 44.26 29.2 C44.25 26.31 44.26 23.43 44.27 20.54 C44.27 18.71 44.27 16.88 44.27 15.05 C44.27 14.19 44.27 13.33 44.28 12.44 C44.27 11.64 44.27 10.83 44.26 10.01 C44.26 9.31 44.26 8.6 44.25 7.88 C44.09 5.67 44.09 5.67 42 3 C42 2.01 42 1.02 42 0 C47.94 0 53.88 0 60 0 C59.34 1.65 58.68 3.3 58 5 C57.77 7.82 57.63 10.54 57.59 13.36 C57.57 14.16 57.55 14.95 57.53 15.76 C57.47 18.28 57.42 20.8 57.38 23.31 C57.34 25.02 57.3 26.74 57.26 28.45 C57.16 32.63 57.08 36.82 57 41 C59.44 40.89 61.88 40.76 64.31 40.62 C65 40.59 65.69 40.56 66.4 40.53 C70.07 40.32 71.88 40.08 75 38 C75 37.01 75 36.02 75 35 C76.32 35 77.64 35 79 35 C80.77 33.08 80.77 33.08 82 31 C81.67 32.98 81.34 34.96 81 37 C81.66 37 82.32 37 83 37 C82.67 38.32 82.34 39.64 82 41 C81.34 41 80.68 41 80 41 C80 42.65 80 44.3 80 46 C80.66 45.01 81.32 44.02 82 43 C82 44.98 82 46.96 82 49 C83.32 48.34 84.64 47.68 86 47 C86.05 41.25 86.09 35.51 86.11 29.76 C86.12 27.8 86.13 25.85 86.15 23.89 C86.18 21.08 86.19 18.27 86.2 15.46 C86.21 14.59 86.22 13.71 86.23 12.82 C86.23 12 86.23 11.18 86.23 10.33 C86.23 9.61 86.24 8.9 86.24 8.16 C86.03 5.44 86.03 5.44 84 1 C93.24 1 102.48 1 112 1 C112 1.33 112 1.66 112 2 C107.55 2.5 107.55 2.5 103 3 C102.67 3.99 102.34 4.98 102 6 C102 5.34 102 4.68 102 4 C98.37 4 94.74 4 91 4 C94.11 5.21 94.11 5.21 98 5 C98 5.99 98 6.98 98 8 C98.99 7.67 99.98 7.34 101 7 C100.77 7.75 100.77 7.75 100.54 8.52 C99.81 11.9 99.64 15.3 99.44 18.75 C99.37 19.8 99.37 19.8 99.31 20.86 C99.2 22.58 99.1 24.29 99 26 C100.79 25.89 102.58 25.76 104.38 25.62 C105.87 25.52 105.87 25.52 107.4 25.41 C110.16 25.24 110.16 25.24 112 23 C112.14 20.42 112.19 17.95 112.12 15.38 C112.12 14.67 112.11 13.96 112.1 13.23 C112.07 11.49 112.04 9.74 112 8 C112.66 7.67 113.32 7.34 114 7 C114 7.66 114 8.32 114 9 C114.66 9 115.32 9 116 9 C115.01 6.53 115.01 6.53 114 4 C120.4 2.77 120.4 2.77 123.44 3.94 C123.95 4.29 124.47 4.64 125 5 C125.33 4.34 125.66 3.68 126 3 C126.22 3.9 126.22 3.9 126.44 4.81 C127.5 9.17 127.5 9.17 131 12 C131 12.66 131 13.32 131 14 C129.68 14.33 128.36 14.66 127 15 C127 17.64 127 20.28 127 23 C128.32 23 129.64 23 131 23 C131 16.73 131 10.46 131 4 C130.34 4 129.68 4 129 4 C129 3.34 129 2.68 129 2 C131.35 0.83 132.74 0.88 135.35 0.9 C136.2 0.91 137.05 0.91 137.93 0.91 C138.82 0.92 139.71 0.93 140.62 0.94 C141.52 0.94 142.42 0.95 143.34 0.95 C145.56 0.96 147.78 0.98 150 1 C149.12 4.88 149.12 4.88 148 6 C147.89 9.04 147.84 12.06 147.83 15.11 C147.83 16.03 147.83 16.95 147.82 17.89 C147.82 19.84 147.81 21.79 147.81 23.75 C147.81 26.72 147.79 29.7 147.78 32.68 C147.77 34.57 147.77 36.47 147.77 38.36 C147.76 39.69 147.76 39.69 147.75 41.06 C147.76 45.48 147.91 48.97 150 53 C146.88 53.03 143.75 53.05 140.62 53.06 C139.74 53.07 138.85 53.08 137.93 53.09 C137.08 53.09 136.23 53.09 135.35 53.1 C134.17 53.11 134.17 53.11 132.97 53.11 C131 53 131 53 129 52 C129.33 53.98 129.66 55.96 130 58 C129.01 58.33 128.02 58.66 127 59 C126.34 59.99 125.68 60.98 125 62 C125.37 62.52 125.74 63.03 126.12 63.56 C127.18 66.51 126.55 67.97 125.59 70.87 C123.81 77.3 123.43 82.86 126 89 C125.62 92.31 125.62 92.31 125 95 C126.32 95 127.64 95 129 95 C129.16 97.02 129.33 99.04 129.49 101.05 C129.87 103.4 129.87 103.4 133 105 C133 106.32 133 107.64 133 109 C133.99 109 134.98 109 136 109 C136.05 102.95 136.09 96.9 136.11 90.85 C136.12 88.79 136.13 86.73 136.15 84.67 C136.18 81.71 136.19 78.76 136.2 75.8 C136.21 74.88 136.22 73.96 136.23 73.01 C136.23 71.72 136.23 71.72 136.23 70.4 C136.23 69.65 136.24 68.89 136.24 68.11 C136.07 65.58 136.07 65.58 134 62 C140.27 62 146.54 62 153 62 C152.34 63.65 151.68 65.3 151 67 C150.76 70.13 150.76 70.13 150.88 73.31 C150.89 74.38 150.91 75.45 150.93 76.55 C150.95 77.36 150.98 78.17 151 79 C152.52 77.11 154.01 75.22 155.5 73.31 C155.93 72.78 156.36 72.25 156.8 71.71 C159.68 67.98 160 66.97 160 62 C165.94 62 171.88 62 178 62 C175.92 67.2 173.25 70.46 169.63 74.54 C167.01 77.57 165.03 80.11 164 84 C164.88 86.54 164.88 86.54 166.58 88.94 C167.16 89.85 167.75 90.77 168.35 91.71 C169.29 93.12 169.29 93.12 170.25 94.56 C171.46 96.44 172.68 98.31 173.89 100.19 C174.44 101.02 174.98 101.85 175.55 102.7 C179 108.17 179 108.17 179 112 C172.73 112 166.46 112 160 112 C160.33 110.35 160.66 108.7 161 107 C159.83 103.88 159.83 103.88 158.06 100.81 C155 95.15 155 95.15 155 93 C152.84 93.95 152.84 93.95 151 96 C150.63 98.75 150.82 101.2 151 104 C151.66 103.67 152.32 103.34 153 103 C153.33 103.99 153.66 104.98 154 106 C154.33 105.01 154.66 104.02 155 103 C155.33 103 155.66 103 156 103 C156.21 106.06 156.29 108.35 155.03 111.19 C151.81 114.06 148.47 113.43 144.31 113.25 C143.52 113.23 142.72 113.21 141.9 113.2 C139.93 113.15 137.97 113.08 136 113 C136 113.99 136 114.98 136 116 C135.01 116 134.02 116 133 116 C134.32 116.33 135.64 116.66 137 117 C137 117.99 137 118.98 137 120 C136.01 120 135.02 120 134 120 C134 120.99 134 121.98 134 123 C129.55 123.5 129.55 123.5 125 124 C125 122.35 125 120.7 125 119 C125.33 119.66 125.66 120.32 126 121 C126.33 120.01 126.66 119.02 127 118 C124.36 118.33 121.72 118.66 119 119 C119 124.28 119 129.56 119 135 C120.65 134.67 122.3 134.34 124 134 C124.33 134.66 124.66 135.32 125 136 C124.01 136.99 123.02 137.98 122 139 C123.32 139.66 124.64 140.32 126 141 C126 141.33 126 141.66 126 142 C124.02 142 122.04 142 120 142 C120 145.3 120 148.6 120 152 C117.69 151.34 115.38 150.68 113 150 C113.33 149.34 113.66 148.68 114 148 C114.99 148 115.98 148 117 148 C116.67 146.68 116.34 145.36 116 144 C114.35 144 112.7 144 111 144 C110.34 146.97 109.68 149.94 109 153 C63.32 154.09 19.02 132 -15 103 C-15.33 102.67 -15.66 102.34 -16 102 C-16 100.02 -16 98.04 -16 96 C-12.04 96 -8.08 96 -4 96 C-3.67 97.98 -3.34 99.96 -3 102 C0.63 102 4.26 102 8 102 C8 100.02 8 98.04 8 96 C7.12 95.68 7.12 95.68 6.23 95.34 C3.56 94.35 0.91 93.33 -1.75 92.31 C-2.67 91.97 -3.59 91.63 -4.54 91.28 C-9.59 89.32 -13.14 87.86 -16 83 C-17.89 77.34 -17.91 71.89 -15.31 66.5 C-11.24 62.1 -7 61.73 -1.19 61.38 C-0.03 61.3 1.14 61.23 2.33 61.15 C3.21 61.1 4.09 61.05 5 61 C5 60.34 5 59.68 5 59 C4.34 58.67 3.68 58.34 3 58 C3 56.68 3 55.36 3 54 C-2.61 54 -8.22 54 -14 54 C-14 52.68 -14 51.36 -14 50 C-13.34 50 -12.68 50 -12 50 C-9.44 41.54 -6.97 33.06 -4.52 24.57 C-4.07 23.04 -4.07 23.04 -3.62 21.48 C-3.34 20.51 -3.06 19.54 -2.77 18.54 C-2 16 -2 16 -0.79 12.89 C0.44 8.89 0.44 8.89 0 0 Z " fill="#ECE7DC" transform="translate(82,249)"/>
<path d="M0 0 C5.94 0 11.88 0 18 0 C17.34 1.65 16.68 3.3 16 5 C15.77 7.82 15.63 10.54 15.59 13.36 C15.57 14.16 15.55 14.95 15.53 15.76 C15.47 18.28 15.42 20.8 15.38 23.31 C15.34 25.02 15.3 26.74 15.26 28.45 C15.16 32.63 15.08 36.82 15 41 C17.44 40.89 19.88 40.76 22.31 40.62 C23 40.59 23.69 40.56 24.4 40.53 C28.07 40.32 29.88 40.08 33 38 C33 37.01 33 36.02 33 35 C34.32 35 35.64 35 37 35 C38.77 33.08 38.77 33.08 40 31 C39.67 32.98 39.34 34.96 39 37 C39.66 37 40.32 37 41 37 C40.67 38.32 40.34 39.64 40 41 C39.34 41 38.68 41 38 41 C38 42.65 38 44.3 38 46 C38.66 45.01 39.32 44.02 40 43 C40 44.98 40 46.96 40 49 C41.32 48.34 42.64 47.68 44 47 C44.05 41.25 44.09 35.51 44.11 29.76 C44.12 27.8 44.13 25.85 44.15 23.89 C44.18 21.08 44.19 18.27 44.2 15.46 C44.21 14.59 44.22 13.71 44.23 12.82 C44.23 12 44.23 11.18 44.23 10.33 C44.23 9.26 44.23 9.26 44.24 8.16 C44.03 5.44 44.03 5.44 42 1 C51.24 1 60.48 1 70 1 C70 1.33 70 1.66 70 2 C65.55 2.5 65.55 2.5 61 3 C60.67 3.99 60.34 4.98 60 6 C60 5.34 60 4.68 60 4 C56.37 4 52.74 4 49 4 C52.11 5.21 52.11 5.21 56 5 C56 5.99 56 6.98 56 8 C56.99 7.67 57.98 7.34 59 7 C58.77 7.75 58.77 7.75 58.54 8.52 C57.81 11.9 57.64 15.3 57.44 18.75 C57.37 19.8 57.37 19.8 57.31 20.86 C57.2 22.58 57.1 24.29 57 26 C58.79 25.89 60.58 25.76 62.38 25.62 C63.87 25.52 63.87 25.52 65.4 25.41 C68.16 25.24 68.16 25.24 70 23 C70.14 20.42 70.19 17.95 70.12 15.38 C70.12 14.67 70.11 13.96 70.1 13.23 C70.07 11.49 70.04 9.74 70 8 C70.66 7.67 71.32 7.34 72 7 C72 7.66 72 8.32 72 9 C72.66 9 73.32 9 74 9 C73.01 6.53 73.01 6.53 72 4 C78.4 2.77 78.4 2.77 81.44 3.94 C81.95 4.29 82.47 4.64 83 5 C83.33 4.34 83.66 3.68 84 3 C84.22 3.9 84.22 3.9 84.44 4.81 C85.5 9.17 85.5 9.17 89 12 C89 12.66 89 13.32 89 14 C87.68 14.33 86.36 14.66 85 15 C85 17.64 85 20.28 85 23 C86.32 23 87.64 23 89 23 C89 16.73 89 10.46 89 4 C88.34 4 87.68 4 87 4 C87 3.34 87 2.68 87 2 C89.35 0.83 90.74 0.88 93.35 0.9 C94.63 0.91 94.63 0.91 95.93 0.91 C96.82 0.92 97.71 0.93 98.62 0.94 C99.52 0.94 100.42 0.95 101.34 0.95 C103.56 0.96 105.78 0.98 108 1 C107.12 4.88 107.12 4.88 106 6 C105.89 9.04 105.84 12.06 105.83 15.11 C105.83 16.03 105.83 16.95 105.82 17.89 C105.82 19.84 105.81 21.79 105.81 23.75 C105.81 26.72 105.79 29.7 105.78 32.68 C105.77 34.57 105.77 36.47 105.77 38.36 C105.76 39.69 105.76 39.69 105.75 41.06 C105.76 45.48 105.91 48.97 108 53 C104.88 53.03 101.75 53.05 98.62 53.06 C97.74 53.07 96.85 53.08 95.93 53.09 C95.08 53.09 94.23 53.09 93.35 53.1 C92.17 53.11 92.17 53.11 90.97 53.11 C89 53 89 53 87 52 C87.5 54.97 87.5 54.97 88 58 C86.51 58.5 86.51 58.5 85 59 C84.34 59.99 83.68 60.98 83 62 C83.37 62.52 83.74 63.03 84.12 63.56 C85.18 66.51 84.55 67.97 83.59 70.87 C82.21 75.85 81.07 81.68 83.03 86.55 C84.15 89.37 83.94 90.58 83.31 93.5 C82.37 100.42 85.27 105.74 88 112 C82.06 112 76.12 112 70 112 C70.33 109.69 70.66 107.38 71 105 C71 104.01 71 103.02 71 102 C65.72 102 60.44 102 55 102 C54.63 108.42 54.63 108.42 56 112 C50.06 112 44.12 112 38 112 C38.99 109.69 39.98 107.38 41 105 C42.14 101.72 43.1 98.4 44.06 95.06 C44.33 94.15 44.59 93.24 44.86 92.29 C47.09 84.24 48.32 76.32 49 68 C48.67 68.66 48.34 69.32 48 70 C47.01 69.67 46.02 69.34 45 69 C45.21 68.3 45.41 67.6 45.62 66.88 C46.08 63.4 45.16 61.26 44 58 C44.5 57.01 44.5 57.01 45 56 C47 55.67 49 55.33 51 55 C51.5 54.01 51.5 54.01 52 53 C48.7 53 45.4 53 42 53 C41.5 53.99 41.5 53.99 41 55 C40.67 54.01 40.34 53.02 40 52 C39.01 52 38.02 52 37 52 C37.99 52.5 37.99 52.5 39 53 C38 56 38 56 36 58 C33.88 58.62 33.88 58.62 32 59 C32.66 60.65 33.32 62.3 34 64 C33.34 64.66 32.68 65.32 32 66 C31.67 68.1 31.67 68.1 31.68 70.54 C31.66 71.48 31.64 72.42 31.62 73.39 C31.6 74.92 31.6 74.92 31.59 76.48 C31.57 77.52 31.55 78.56 31.53 79.63 C31.47 82.96 31.42 86.29 31.38 89.62 C31.34 91.88 31.3 94.14 31.26 96.39 C31.16 101.93 31.08 107.46 31 113 C26.05 113 21.1 113 16 113 C15.6 112.02 15.2 111.05 14.78 110.04 C12.92 105.69 10.73 101.54 8.5 97.38 C8.11 96.64 7.72 95.9 7.32 95.14 C5.31 91.36 3.22 87.66 1 84 C0.94 87.92 0.91 91.83 0.88 95.75 C0.86 96.86 0.84 97.97 0.82 99.12 C0.81 100.72 0.81 100.72 0.8 102.36 C0.79 103.84 0.79 103.84 0.77 105.34 C0.86 108.35 0.86 108.35 3 112 C-2.28 112 -7.56 112 -13 112 C-12.67 110.35 -12.34 108.7 -12 107 C-11.91 105.64 -11.86 104.27 -11.85 102.9 C-11.85 102.13 -11.84 101.36 -11.84 100.56 C-11.83 99.75 -11.83 98.93 -11.83 98.09 C-11.83 97.23 -11.83 96.38 -11.82 95.51 C-11.82 93.71 -11.81 91.92 -11.81 90.12 C-11.81 87.38 -11.79 84.63 -11.78 81.88 C-11.77 80.14 -11.77 78.39 -11.77 76.65 C-11.76 75.83 -11.76 75 -11.75 74.16 C-11.76 70.25 -11.78 68.32 -14 65 C-14 64.01 -14 63.02 -14 62 C-8.06 62 -2.12 62 4 62 C6.15 65.79 8.29 69.58 10.44 73.38 C11.35 75 11.35 75 12.29 76.65 C13.17 78.2 13.17 78.2 14.06 79.77 C14.6 80.73 15.14 81.68 15.69 82.66 C16.49 84.09 17.27 85.54 18 87 C18.03 83.4 18.05 79.79 18.06 76.19 C18.08 74.65 18.08 74.65 18.09 73.08 C18.09 72.1 18.09 71.12 18.1 70.11 C18.1 69.2 18.11 68.29 18.11 67.36 C18.1 64.85 18.1 64.85 17 62 C21.62 61.67 26.24 61.34 31 61 C30.34 59.68 29.68 58.36 29 57 C29 56.01 29 55.02 29 54 C19.43 53.67 9.86 53.34 0 53 C0.66 51.02 1.32 49.04 2 47 C2.29 44.77 2.29 44.77 2.26 42.6 C2.27 41.79 2.27 40.98 2.28 40.15 C2.27 39.29 2.27 38.43 2.27 37.55 C2.27 36.66 2.27 35.76 2.27 34.84 C2.27 32.96 2.27 31.08 2.26 29.2 C2.25 26.31 2.26 23.43 2.27 20.54 C2.27 18.71 2.27 16.88 2.27 15.05 C2.27 14.19 2.27 13.33 2.28 12.44 C2.27 11.64 2.27 10.83 2.26 10.01 C2.26 9.31 2.26 8.6 2.25 7.88 C2.09 5.67 2.09 5.67 0 3 C0 2.01 0 1.02 0 0 Z " fill="#EAE7DC" transform="translate(124,249)"/>
<path d="M0 0 C1.32 0.33 2.64 0.66 4 1 C3.34 2.65 2.68 4.3 2 6 C1.34 6 0.68 6 0 6 C0 6.66 0 7.32 0 8 C3.73 6.88 3.73 6.88 6 4 C6.99 4 7.98 4 9 4 C9 3.01 9 2.02 9 1 C9.66 1 10.32 1 11 1 C10.99 1.85 10.98 2.71 10.96 3.59 C10.96 4.69 10.95 5.8 10.94 6.94 C10.93 8.04 10.91 9.14 10.9 10.28 C10.69 12.91 10.69 12.91 12 14 C11.96 15.13 11.92 16.27 11.88 17.44 C11.92 18.61 11.96 19.79 12 21 C12.99 21.66 13.98 22.32 15 23 C12.69 23.66 10.38 24.32 8 25 C8.33 25.99 8.66 26.98 9 28 C8.34 28.33 7.68 28.66 7 29 C8.3 28.88 9.6 28.75 10.94 28.62 C12.03 28.52 12.03 28.52 13.15 28.41 C13.76 28.28 14.37 28.14 15 28 C15.33 27.34 15.66 26.68 16 26 C15.01 25.67 14.02 25.34 13 25 C14.32 24.67 15.64 24.34 17 24 C17.5 24.99 17.5 24.99 18 26 C18.66 26 19.32 26 20 26 C20.66 24.68 21.32 23.36 22 22 C22.66 22 23.32 22 24 22 C24.5 24.97 24.5 24.97 25 28 C25.93 27.93 26.86 27.87 27.82 27.8 C33.13 27.8 37.94 29.6 42.94 31.25 C43.89 31.55 44.84 31.85 45.82 32.16 C56.61 35.66 67.8 40.3 74.06 50.31 C77.13 56.54 76.79 62.2 74.94 68.75 C69.75 77.45 61.71 80.28 52.38 83.09 C47.22 84.34 42.1 84.34 36.81 84.31 C35.79 84.31 34.78 84.3 33.73 84.3 C18.51 84.05 5.94 80.18 -5.47 69.68 C-7.34 67.63 -8.35 65.7 -9 63 C-4 65 -4 65 -1.56 66 C12.1 71.33 28.06 73.72 42 68 C44.45 66.02 44.97 65.08 46 62 C44.78 62.03 44.78 62.03 43.54 62.06 C40.47 62.13 37.4 62.18 34.32 62.22 C32.37 62.25 30.41 62.3 28.45 62.35 C11.97 62.52 -0.9 57.41 -12.83 46.2 C-17.5 41.46 -19.45 37.83 -20 31 C-19.01 30.34 -18.02 29.68 -17 29 C-17.99 28.22 -18.98 27.43 -20 26.62 C-21.48 25.33 -21.48 25.33 -23 24 C-23 23.34 -23 22.68 -23 22 C-22.36 21.9 -21.72 21.79 -21.06 21.69 C-20.04 21.35 -20.04 21.35 -19 21 C-18.67 20.01 -18.34 19.02 -18 18 C-15.03 18.33 -12.06 18.66 -9 19 C-10.32 18.01 -11.64 17.02 -13 16 C-12.62 14.06 -12.62 14.06 -12 12 C-11.34 11.67 -10.68 11.34 -10 11 C-9.35 8.98 -9.35 8.98 -9 7 C-7.91 6.86 -6.81 6.71 -5.69 6.56 C-2.07 6.12 -2.07 6.12 1 5 C0.67 3.35 0.34 1.7 0 0 Z " fill="#153726" transform="translate(113,155)"/>
<path d="M0 0 C0.62 0.34 1.23 0.68 1.87 1.03 C4.45 2.2 5.36 1.79 8 1 C8.99 1.5 8.99 1.5 10 2 C10.05 7.77 10.09 13.53 10.11 19.3 C10.12 21.26 10.13 23.22 10.15 25.18 C10.18 28 10.19 30.82 10.2 33.64 C10.21 34.52 10.22 35.39 10.23 36.3 C10.23 37.12 10.23 37.94 10.23 38.78 C10.23 39.5 10.24 40.22 10.24 40.96 C10 43 10 43 8 47 C20.21 47 32.42 47 45 47 C44.67 48.32 44.34 49.64 44 51 C44.66 51 45.32 51 46 51 C46 51.66 46 52.32 46 53 C46.68 52.67 47.36 52.34 48.06 52 C51.51 50.83 54.38 50.86 58 51 C35.45 69.63 6.18 79.2 -22 85 C-23.27 85.27 -24.55 85.54 -25.86 85.81 C-32.09 86.87 -38.27 87.08 -44.58 87.11 C-45.26 87.11 -45.93 87.12 -46.63 87.12 C-53.42 87.14 -60.21 87.09 -67 87 C-66.67 83.7 -66.34 80.4 -66 77 C-63.69 77 -61.38 77 -59 77 C-59 78.65 -59 80.3 -59 82 C-60.49 82.5 -60.49 82.5 -62 83 C-60.35 83.66 -58.7 84.32 -57 85 C-56.67 82.03 -56.34 79.06 -56 76 C-53.53 75.5 -53.53 75.5 -51 75 C-53.31 74.67 -55.62 74.34 -58 74 C-57.36 73.55 -56.72 73.09 -56.06 72.62 C-53.9 71.16 -53.9 71.16 -53 69 C-54.32 69 -55.64 69 -57 69 C-57.33 63.39 -57.66 57.78 -58 52 C-55.03 52 -52.06 52 -49 52 C-49 52.66 -49 53.32 -49 54 C-48.34 54.33 -47.68 54.66 -47 55 C-47.99 55 -48.98 55 -50 55 C-50 55.66 -50 56.32 -50 57 C-47.36 57 -44.72 57 -42 57 C-42 56.01 -42 55.02 -42 54 C-41.01 54 -40.02 54 -39 54 C-39 53.01 -39 52.02 -39 51 C-40.98 51.5 -40.98 51.5 -43 52 C-43 51.34 -43 50.68 -43 50 C-42.01 50 -41.02 50 -40 50 C-40 49.01 -40 48.02 -40 47 C-34.39 47 -28.78 47 -23 47 C-22.67 46.01 -22.34 45.02 -22 44 C-21.67 43.67 -21.34 43.34 -21 43 C-21 42.67 -21 42.34 -21 42 C-21.99 41.5 -21.99 41.5 -23 41 C-23.33 40.01 -23.66 39.02 -24 38 C-24.66 38.99 -25.32 39.98 -26 41 C-26.08 39.23 -26.14 37.46 -26.19 35.69 C-26.24 34.21 -26.24 34.21 -26.29 32.7 C-26 30 -26 30 -24.61 28.14 C-23 27 -23 27 -21 27 C-19.77 29.22 -18.57 31.45 -17.38 33.69 C-17.02 34.31 -16.67 34.94 -16.31 35.58 C-15.34 37.45 -15.34 37.45 -14 41 C-14.66 42.65 -15.32 44.3 -16 46 C-9.73 46 -3.46 46 3 46 C-0.95 37.77 -4.93 30.08 -10.33 22.71 C-12.11 20.14 -13.11 18.68 -12.6 15.52 C-10.46 12.15 -8.01 9.18 -5.38 6.19 C-4.6 5.29 -4.6 5.29 -3.81 4.38 C-2.55 2.91 -1.27 1.46 0 0 Z " fill="#EEE8DE" transform="translate(258,315)"/>
<path d="M0 0 C0.99 0.66 1.98 1.32 3 2 C2.34 2 1.68 2 1 2 C1 2.66 1 3.32 1 4 C-1.64 4.33 -4.28 4.66 -7 5 C-6.67 5.76 -6.34 6.53 -6 7.31 C-5 10 -5 10 -5 13 C-1.58 14.14 1.09 14.1 4.69 14.06 C5.87 14.05 7.05 14.04 8.26 14.04 C9.17 14.02 10.07 14.01 11 14 C11 14.66 11 15.32 11 16 C12.2 15.94 13.39 15.88 14.62 15.81 C18.73 15.79 21.45 16.87 25 19 C25 19.33 25 19.66 25 20 C23.02 20 21.04 20 19 20 C19.66 21.65 20.32 23.3 21 25 C20.01 24.67 19.02 24.34 18 24 C18.05 25.57 18.05 25.57 18.11 27.18 C18.13 28.55 18.16 29.93 18.19 31.31 C18.21 32 18.24 32.69 18.26 33.4 C18.31 36.27 18.32 38.46 16.84 40.97 C14.25 42.42 12.26 42.29 9.31 42.19 C8.32 42.16 7.32 42.13 6.3 42.11 C5.54 42.07 4.78 42.04 4 42 C3.97 39.56 3.95 37.13 3.94 34.69 C3.93 34 3.92 33.31 3.91 32.6 C3.9 29.45 4 27.01 5 24 C4.34 24 3.68 24 3 24 C3 23.01 3 22.02 3 21 C1.68 21 0.36 21 -1 21 C-1.33 21.66 -1.66 22.32 -2 23 C-2.66 23 -3.32 23 -4 23 C-4 22.01 -4 21.02 -4 20 C-3.22 20.01 -2.44 20.02 -1.63 20.04 C-0.62 20.04 0.39 20.05 1.44 20.06 C2.45 20.07 3.46 20.09 4.5 20.1 C6.94 20.29 6.94 20.29 8 19 C4.7 19 1.4 19 -2 19 C-2 18.67 -2 18.34 -2 18 C-4.64 18 -7.28 18 -10 18 C-9.51 18.86 -9.51 18.86 -9.02 19.74 C-7.95 22.1 -7.73 23.6 -7.69 26.17 C-7.68 26.98 -7.66 27.79 -7.65 28.63 C-7.64 29.93 -7.64 29.93 -7.63 31.25 C-7.62 32.6 -7.62 32.6 -7.6 33.97 C-7.59 35.87 -7.58 37.76 -7.57 39.65 C-7.56 42.56 -7.51 45.46 -7.46 48.36 C-7.45 50.2 -7.45 52.04 -7.44 53.88 C-7.42 54.75 -7.4 55.62 -7.38 56.51 C-7.4 58.79 -7.44 60.79 -8 63 C-10.53 65.07 -10.53 65.07 -13 66 C-13.66 65.01 -14.32 64.02 -15 63 C-15.5 62.5 -15.5 62.5 -16 62 C-16.04 60 -16.04 58 -16 56 C-14.51 56.5 -14.51 56.5 -13 57 C-12.67 55.68 -12.34 54.36 -12 53 C-12.66 53 -13.32 53 -14 53 C-14.33 53.66 -14.66 54.32 -15 55 C-15 53.68 -15 52.36 -15 51 C-16.95 51.19 -16.95 51.19 -19 52 C-20.15 53.97 -20.15 53.97 -21 56 C-24.07 57.53 -27.27 57.1 -30.62 57.06 C-31.33 57.06 -32.04 57.05 -32.77 57.05 C-34.51 57.04 -36.26 57.02 -38 57 C-38.07 51.98 -38.13 46.97 -38.16 41.95 C-38.18 40.24 -38.2 38.54 -38.23 36.83 C-38.26 34.38 -38.28 31.92 -38.29 29.46 C-38.31 28.7 -38.32 27.95 -38.34 27.17 C-38.34 22.37 -37.53 19.22 -35 15 C-34.01 15 -33.02 15 -32 15 C-32 14.01 -32 13.02 -32 12 C-30.35 11.67 -28.7 11.34 -27 11 C-29.97 10.5 -29.97 10.5 -33 10 C-33.33 11.32 -33.66 12.64 -34 14 C-35.32 13.34 -36.64 12.68 -38 12 C-37.01 10.02 -36.02 8.04 -35 6 C-33.79 5.97 -32.58 5.95 -31.34 5.92 C-20.51 5.58 -9.89 4.95 0 0 Z " fill="#E9E6DB" transform="translate(177,233)"/>
<path d="M0 0 C6.27 0 12.54 0 19 0 C19.84 1.63 20.69 3.25 21.55 4.93 C22.66 7.05 23.77 9.18 24.88 11.31 C25.43 12.38 25.99 13.46 26.56 14.56 C27.36 16.1 27.36 16.1 28.18 17.68 C28.67 18.62 29.16 19.57 29.67 20.55 C31.03 23.14 31.03 23.14 33 26 C33.03 22.23 33.05 18.46 33.06 14.69 C33.08 13.08 33.08 13.08 33.09 11.44 C33.09 10.41 33.09 9.38 33.1 8.32 C33.1 7.38 33.11 6.43 33.11 5.45 C33.1 2.86 33.1 2.86 32 0 C37.61 0 43.22 0 49 0 C48.34 1.65 47.68 3.3 47 5 C46.68 7.36 46.68 7.36 46.68 9.79 C46.66 10.71 46.64 11.63 46.62 12.58 C46.6 14.05 46.6 14.05 46.59 15.55 C46.57 16.56 46.55 17.58 46.53 18.62 C46.47 21.85 46.42 25.08 46.38 28.31 C46.34 30.51 46.3 32.7 46.26 34.89 C46.16 40.26 46.08 45.63 46 51 C41.05 51 36.1 51 31 51 C30 49.13 29 47.27 27.97 45.35 C27.01 43.55 26.04 41.75 25.07 39.95 C24.4 38.69 23.73 37.44 23.06 36.18 C22.09 34.38 21.13 32.58 20.16 30.79 C19.58 29.7 19 28.62 18.4 27.5 C17.22 25.13 17.22 25.13 16 24 C15.94 27.75 15.91 31.5 15.88 35.25 C15.86 36.31 15.84 37.38 15.82 38.47 C15.81 40.01 15.81 40.01 15.8 41.58 C15.79 42.99 15.79 42.99 15.77 44.43 C15.87 47.36 15.87 47.36 18 51 C12.39 51 6.78 51 1 51 C1.33 49.35 1.66 47.7 2 46 C2.09 44.62 2.14 43.24 2.15 41.86 C2.15 41.07 2.16 40.29 2.16 39.49 C2.17 38.66 2.17 37.83 2.17 36.97 C2.17 35.67 2.17 35.67 2.18 34.35 C2.18 32.52 2.19 30.69 2.19 28.86 C2.19 26.08 2.21 23.29 2.22 20.5 C2.23 18.72 2.23 16.94 2.23 15.16 C2.24 14.33 2.24 13.5 2.25 12.65 C2.25 11.87 2.25 11.08 2.24 10.27 C2.25 9.25 2.25 9.25 2.25 8.21 C2 5.3 2 5.3 0 0 Z " fill="#193927" transform="translate(239,250)"/>
<path d="M0 0 C5.94 0 11.88 0 18 0 C20.15 3.79 22.29 7.58 24.44 11.38 C25.05 12.46 25.66 13.54 26.29 14.65 C27.17 16.2 27.17 16.2 28.06 17.77 C28.6 18.73 29.14 19.68 29.69 20.66 C30.49 22.09 31.27 23.54 32 25 C32.03 21.4 32.05 17.79 32.06 14.19 C32.08 12.65 32.08 12.65 32.09 11.08 C32.09 10.1 32.09 9.12 32.1 8.11 C32.1 7.2 32.11 6.29 32.11 5.36 C32.1 2.85 32.1 2.85 31 0 C36.61 0 42.22 0 48 0 C47.34 1.32 46.68 2.64 46 4 C45.68 6.3 45.68 6.3 45.68 8.77 C45.66 9.71 45.64 10.65 45.62 11.62 C45.6 13.13 45.6 13.13 45.59 14.67 C45.57 15.71 45.55 16.75 45.53 17.82 C45.47 21.13 45.42 24.44 45.38 27.75 C45.34 30 45.3 32.24 45.26 34.49 C45.16 39.99 45.08 45.5 45 51 C40.05 51 35.1 51 30 51 C29.6 50.02 29.2 49.05 28.78 48.04 C26.92 43.69 24.73 39.54 22.5 35.38 C21.91 34.27 21.91 34.27 21.32 33.14 C19.31 29.36 17.22 25.66 15 22 C14.94 25.92 14.91 29.83 14.88 33.75 C14.86 34.86 14.84 35.97 14.82 37.12 C14.81 38.72 14.81 38.72 14.8 40.36 C14.79 41.84 14.79 41.84 14.77 43.34 C14.86 46.35 14.86 46.35 17 50 C11.72 50 6.44 50 1 50 C1.33 48.35 1.66 46.7 2 45 C2.09 43.64 2.14 42.27 2.15 40.9 C2.15 40.13 2.16 39.36 2.16 38.56 C2.17 37.75 2.17 36.93 2.17 36.09 C2.17 35.23 2.17 34.38 2.18 33.51 C2.18 31.71 2.19 29.92 2.19 28.12 C2.19 25.38 2.21 22.63 2.22 19.88 C2.23 18.14 2.23 16.39 2.23 14.65 C2.24 13.83 2.24 13 2.25 12.16 C2.24 8.25 2.22 6.32 0 3 C0 2.01 0 1.02 0 0 Z " fill="#173726" transform="translate(110,311)"/>
<path d="M0 0 C6.93 0 13.86 0 21 0 C22.69 5.07 24.33 10 25.75 15.12 C27.63 21.78 29.61 28.39 31.62 35 C31.93 35.99 32.23 36.98 32.54 38 C33.97 42.69 35.45 47.35 37 52 C31.06 52 25.12 52 19 52 C19.33 49.69 19.66 47.38 20 45 C19.67 44.01 19.34 43.02 19 42 C14.05 41.67 9.1 41.34 4 41 C3.98 42.26 3.96 43.52 3.94 44.81 C3.93 45.52 3.91 46.23 3.9 46.96 C3.92 49.2 3.92 49.2 5 52 C-0.94 52 -6.88 52 -13 52 C-12.61 50.85 -12.22 49.69 -11.81 48.5 C-9.68 42.09 -7.66 35.64 -5.68 29.19 C-4.99 26.97 -4.28 24.75 -3.57 22.54 C-3.11 21.07 -2.65 19.6 -2.19 18.12 C-1.97 17.46 -1.75 16.8 -1.52 16.11 C0.26 10.27 0 6.62 0 0 Z " fill="#193927" transform="translate(82,249)"/>
<path d="M0 0 C6.93 0 13.86 0 21 0 C22.23 3.98 23.46 7.96 24.69 11.94 C25.05 13.12 25.42 14.3 25.79 15.52 C28.25 23.49 30.62 31.48 32.89 39.51 C34.03 43.09 35.52 46.55 37 50 C31.06 50 25.12 50 19 50 C19.33 47.69 19.66 45.38 20 43 C20 42.01 20 41.02 20 40 C14.72 40 9.44 40 4 40 C3.63 46.42 3.63 46.42 5 50 C-0.94 50 -6.88 50 -13 50 C-12.01 47.69 -11.02 45.38 -10 43 C-9.45 41.31 -8.94 39.61 -8.46 37.9 C-8.09 36.54 -8.09 36.54 -7.7 35.16 C-7.45 34.24 -7.2 33.32 -6.94 32.38 C-6.43 30.53 -5.92 28.68 -5.4 26.84 C-5.18 26.03 -4.96 25.22 -4.73 24.38 C-3.96 21.86 -2.99 19.45 -2 17 C-1.22 14.02 -0.62 11.01 0 8 C0.23 7.05 0.45 6.1 0.69 5.12 C1.19 2.82 1.19 2.82 0 0 Z " fill="#173725" transform="translate(175,311)"/>
<path d="M0 0 C6.27 0 12.54 0 19 0 C18.34 1.65 17.68 3.3 17 5 C16.76 8.13 16.76 8.13 16.88 11.31 C16.9 12.92 16.9 12.92 16.93 14.55 C16.95 15.36 16.98 16.17 17 17 C18.52 15.11 20.01 13.22 21.5 11.31 C21.93 10.78 22.36 10.25 22.8 9.71 C25.68 5.98 26 4.97 26 0 C31.94 0 37.88 0 44 0 C41.92 5.2 39.25 8.46 35.63 12.54 C33.01 15.57 31.03 18.11 30 22 C30.88 24.54 30.88 24.54 32.58 26.94 C33.16 27.85 33.75 28.77 34.35 29.71 C34.98 30.65 35.6 31.59 36.25 32.56 C37.46 34.44 38.68 36.31 39.89 38.19 C40.44 39.02 40.98 39.85 41.55 40.7 C45 46.17 45 46.17 45 50 C38.73 50 32.46 50 26 50 C26.33 48.35 26.66 46.7 27 45 C25.83 41.88 25.83 41.88 24.06 38.81 C21 33.15 21 33.15 21 31 C18.9 32.1 18.9 32.1 17 34 C16.48 36.83 16.48 36.83 16.69 39.94 C16.71 40.98 16.74 42.02 16.76 43.09 C16.94 46.21 16.94 46.21 18 50 C12.06 50 6.12 50 0 50 C0.66 48.35 1.32 46.7 2 45 C2.3 42.87 2.3 42.87 2.26 40.73 C2.27 39.92 2.27 39.12 2.28 38.29 C2.27 37.43 2.27 36.57 2.27 35.68 C2.27 34.79 2.27 33.9 2.27 32.98 C2.27 31.09 2.27 29.21 2.26 27.33 C2.25 24.44 2.26 21.56 2.27 18.68 C2.27 16.85 2.27 15.02 2.27 13.18 C2.27 12.32 2.27 11.46 2.28 10.58 C2.27 9.77 2.27 8.97 2.26 8.14 C2.26 7.43 2.26 6.73 2.25 6 C2.06 3.56 2.06 3.56 0 0 Z " fill="#193927" transform="translate(216,311)"/>
<path d="M0 0 C4.97 0.57 9.75 0.71 14.75 0.62 C15.25 2.11 15.25 2.11 15.75 3.62 C13.28 3.13 13.28 3.13 10.75 2.62 C10.75 3.94 10.75 5.27 10.75 6.62 C8.28 5.64 8.28 5.64 5.75 4.62 C5.75 7.27 5.75 9.91 5.75 12.62 C6.41 12.62 7.07 12.62 7.75 12.62 C8.08 10.97 8.41 9.32 8.75 7.62 C10.4 7.62 12.05 7.62 13.75 7.62 C13.09 7.96 12.43 8.28 11.75 8.62 C12.25 10.6 12.25 10.6 12.75 12.62 C14.73 12.29 16.71 11.97 18.75 11.62 C18.75 12.28 18.75 12.94 18.75 13.62 C18.09 13.62 17.43 13.62 16.75 13.62 C16.75 14.28 16.75 14.94 16.75 15.62 C18.4 15.29 20.05 14.97 21.75 14.62 C21.25 13.14 21.25 13.14 20.75 11.62 C22.4 11.29 24.05 10.97 25.75 10.62 C25.09 10.96 24.43 11.28 23.75 11.62 C23.75 12.28 23.75 12.94 23.75 13.62 C26.22 14.12 26.22 14.12 28.75 14.62 C29.12 21.1 29.12 21.1 27.44 23.5 C25.75 24.62 25.75 24.62 22.75 25.62 C22.75 26.28 22.75 26.94 22.75 27.62 C22.15 27.8 21.54 27.97 20.92 28.14 C15.75 29.63 15.75 29.63 11.56 32.88 C10.96 33.45 10.37 34.03 9.75 34.62 C6.69 34.44 4.49 33.99 1.75 32.62 C1.75 31.97 1.75 31.31 1.75 30.62 C1.09 30.62 0.43 30.62 -0.25 30.62 C-0.58 29.63 -0.91 28.65 -1.25 27.62 C-1.91 27.3 -2.57 26.97 -3.25 26.62 C-3.25 27.62 -3.25 28.6 -3.25 29.62 C-2.59 29.62 -1.93 29.62 -1.25 29.62 C-1.25 30.62 -1.25 31.6 -1.25 32.62 C-3.72 33.12 -3.72 33.12 -6.25 33.62 C-6.25 34.28 -6.25 34.94 -6.25 35.62 C-5.26 35.62 -4.27 35.62 -3.25 35.62 C-3.25 36.62 -3.25 37.6 -3.25 38.62 C-5.23 38.3 -7.21 37.97 -9.25 37.62 C-9.58 36.31 -9.91 34.99 -10.25 33.62 C-9.26 33.13 -9.26 33.13 -8.25 32.62 C-10.23 33.12 -10.23 33.12 -12.25 33.62 C-11.92 35.28 -11.59 36.93 -11.25 38.62 C-12.57 38.3 -13.89 37.97 -15.25 37.62 C-14.92 36.97 -14.59 36.31 -14.25 35.62 C-16.56 35.62 -18.87 35.62 -21.25 35.62 C-20.92 36.62 -20.59 37.6 -20.25 38.62 C-19.59 38.95 -18.93 39.28 -18.25 39.62 C-17.84 41.95 -17.51 44.28 -17.25 46.62 C-17.91 46.62 -18.57 46.62 -19.25 46.62 C-19.58 45.97 -19.91 45.31 -20.25 44.62 C-21.24 45.12 -21.24 45.12 -22.25 45.62 C-24.25 45.66 -26.25 45.67 -28.25 45.62 C-28.94 30.42 -26.6 19.14 -16.26 7.36 C-11.24 2.1 -7.56 -0.99 0 0 Z " fill="#133725" transform="translate(115.25,120.375)"/>
<path d="M0 0 C0.33 0 0.66 0 1 0 C1 2.97 1 5.94 1 9 C3.97 9 6.94 9 10 9 C9.67 16.59 9.34 24.18 9 32 C8.01 32 7.02 32 6 32 C6 32.99 6 33.98 6 35 C7.32 35 8.64 35 10 35 C11.25 41.5 11.25 41.5 9 46 C14.94 46 20.88 46 27 46 C26.34 47.32 25.68 48.64 25 50 C25.99 50.5 25.99 50.5 27 51 C27 52.32 27 53.64 27 55 C22.05 55 17.1 55 12 55 C12.5 57.48 12.5 57.48 13 60 C11.64 62.32 10.36 64.19 8.69 66.25 C8.27 66.79 7.85 67.33 7.42 67.89 C4.33 71.83 4.33 71.83 2 73 C1.92 70.94 1.86 68.88 1.81 66.81 C1.76 65.09 1.76 65.09 1.71 63.33 C2 60 2 60 5 55 C-1.27 55 -7.54 55 -14 55 C-13.01 56.32 -12.02 57.64 -11 59 C-10.63 61.02 -10.63 61.02 -10.64 63.19 C-10.64 64 -10.64 64.81 -10.63 65.65 C-10.65 66.52 -10.66 67.39 -10.67 68.29 C-10.67 69.19 -10.68 70.09 -10.68 71.02 C-10.68 72.91 -10.7 74.81 -10.72 76.71 C-10.75 79.62 -10.76 82.53 -10.77 85.45 C-10.77 87.29 -10.79 89.13 -10.8 90.98 C-10.8 92.29 -10.8 92.29 -10.81 93.62 C-10.88 99.77 -10.88 99.77 -12 102 C-12.99 102 -13.98 102 -15 102 C-15.33 100.68 -15.66 99.36 -16 98 C-16.99 98.5 -16.99 98.5 -18 99 C-19.28 95.15 -19.07 92.05 -19 88 C-21.47 88.5 -21.47 88.5 -24 89 C-23.79 87.97 -23.59 86.94 -23.38 85.88 C-22.72 82.12 -22.72 82.12 -24.03 79.27 C-25.23 75.24 -24.81 71.88 -24.19 67.81 C-24.09 67.1 -24 66.39 -23.9 65.66 C-23.48 62.65 -22.96 59.89 -22 57 C-22.66 56.34 -23.32 55.68 -24 55 C-22.69 53 -22.69 53 -21 51 C-20.01 51 -19.02 51 -18 51 C-18.66 50.67 -19.32 50.34 -20 50 C-20 48.02 -20 46.04 -20 44 C-18.51 43.5 -18.51 43.5 -17 43 C-17 43.99 -17 44.98 -17 46 C-10.73 46 -4.46 46 2 46 C1.34 44.68 0.68 43.36 0 42 C-0.24 39.92 -0.24 39.92 -0.23 37.69 C-0.23 36.85 -0.23 36.01 -0.23 35.14 C-0.22 34.25 -0.21 33.35 -0.2 32.42 C-0.19 31.5 -0.19 30.57 -0.19 29.61 C-0.18 26.66 -0.15 23.7 -0.12 20.75 C-0.11 18.74 -0.11 16.74 -0.1 14.73 C-0.08 9.82 -0.04 4.91 0 0 Z " fill="#EBE9DE" transform="translate(230,256)"/>
<path d="M0 0 C1.52 3.8 1.07 7.99 1 12 C-2.63 12 -6.26 12 -10 12 C-10.33 10.68 -10.66 9.36 -11 8 C-14.96 7.67 -18.92 7.34 -23 7 C-22.67 8.98 -22.34 10.96 -22 13 C-21.25 13.23 -20.5 13.46 -19.73 13.7 C-0.43 19.85 -0.43 19.85 3 26 C3.83 31.81 3.79 37.24 1.38 42.62 C-3.12 47.12 -7.8 48.54 -14.06 48.88 C-20.71 48.77 -24.38 47.15 -29.44 42.88 C-30 42.4 -30.56 41.93 -31.14 41.44 C-32.68 39.99 -32.68 39.99 -35 37 C-35 35.02 -35 33.04 -35 31 C-31.04 31 -27.08 31 -23 31 C-22.67 32.98 -22.34 34.96 -22 37 C-18.37 37 -14.74 37 -11 37 C-11 35.02 -11 33.04 -11 31 C-11.58 30.78 -12.17 30.57 -12.77 30.34 C-15.44 29.35 -18.09 28.33 -20.75 27.31 C-21.67 26.97 -22.59 26.63 -23.54 26.28 C-28.59 24.32 -32.14 22.86 -35 18 C-36.89 12.34 -36.91 6.89 -34.31 1.5 C-25.89 -7.6 -9.92 -4.96 0 0 Z " fill="#1A3928" transform="translate(101,314)"/>
<path d="M0 0 C11.88 0 23.76 0 36 0 C36 4.29 36 8.58 36 13 C33.52 12.5 33.52 12.5 31 12 C29.67 11.87 28.34 11.76 27.01 11.68 C26.31 11.64 25.6 11.6 24.87 11.56 C24.15 11.52 23.43 11.48 22.69 11.44 C21.95 11.39 21.21 11.35 20.44 11.31 C18.63 11.2 16.81 11.1 15 11 C15 13.97 15 16.94 15 20 C19.95 20 24.9 20 30 20 C30 23.3 30 26.6 30 30 C25.05 30 20.1 30 15 30 C15 33.3 15 36.6 15 40 C17.56 39.89 20.13 39.76 22.69 39.62 C23.77 39.58 23.77 39.58 24.87 39.53 C25.58 39.49 26.28 39.45 27.01 39.41 C27.66 39.38 28.3 39.35 28.96 39.32 C31.57 38.99 31.57 38.99 36 37 C36 41.62 36 46.24 36 51 C24.12 51 12.24 51 0 51 C0.33 49.68 0.66 48.36 1 47 C1.09 45.56 1.13 44.11 1.13 42.66 C1.13 41.81 1.14 40.97 1.14 40.09 C1.14 39.19 1.13 38.28 1.13 37.34 C1.13 36.4 1.13 35.47 1.14 34.5 C1.14 32.51 1.13 30.53 1.13 28.55 C1.13 25.51 1.13 22.48 1.14 19.44 C1.14 17.51 1.13 15.58 1.13 13.66 C1.13 12.75 1.14 11.84 1.14 10.91 C1.13 9.64 1.13 9.64 1.13 8.34 C1.13 7.59 1.13 6.85 1.13 6.09 C1.04 3.65 1.04 3.65 0 0 Z " fill="#163726" transform="translate(266,311)"/>
<path d="M0 0 C12.21 0 24.42 0 37 0 C37 3.96 37 7.92 37 12 C30.07 11.67 23.14 11.34 16 11 C16 13.97 16 16.94 16 20 C21.28 20 26.56 20 32 20 C32 23.3 32 26.6 32 30 C26.72 30 21.44 30 16 30 C16 33.3 16 36.6 16 40 C18.73 39.89 21.46 39.76 24.19 39.62 C25.34 39.58 25.34 39.58 26.52 39.53 C27.27 39.49 28.02 39.45 28.79 39.41 C29.48 39.38 30.17 39.35 30.87 39.32 C33.55 39 33.55 39 38 37 C38 41.62 38 46.24 38 51 C26.12 51 14.24 51 2 51 C2.33 49.68 2.66 48.36 3 47 C3.1 45.62 3.15 44.23 3.16 42.85 C3.18 41.63 3.18 41.63 3.19 40.4 C3.19 39.53 3.2 38.67 3.2 37.78 C3.21 36.89 3.21 35.99 3.22 35.07 C3.23 33.18 3.24 31.29 3.24 29.4 C3.25 26.51 3.28 23.62 3.31 20.73 C3.32 18.89 3.32 17.06 3.33 15.22 C3.34 14.36 3.35 13.49 3.37 12.6 C3.35 8.07 3.27 5.43 0 2 C0 1.34 0 0.68 0 0 Z " fill="#183826" transform="translate(294,250)"/>
<path d="M0 0 C9.24 0 18.48 0 28 0 C28 0.33 28 0.66 28 1 C23.55 1.5 23.55 1.5 19 2 C18.67 2.99 18.34 3.98 18 5 C18 4.34 18 3.68 18 3 C14.37 3 10.74 3 7 3 C10.11 4.21 10.11 4.21 14 4 C14 4.99 14 5.98 14 7 C14.99 6.67 15.98 6.34 17 6 C16.85 6.5 16.69 7 16.54 7.52 C15.81 10.9 15.64 14.3 15.44 17.75 C15.39 18.45 15.35 19.14 15.31 19.86 C15.2 21.58 15.1 23.29 15 25 C16.79 24.89 18.58 24.76 20.38 24.62 C21.87 24.52 21.87 24.52 23.4 24.41 C26.16 24.24 26.16 24.24 28 22 C28.14 19.42 28.19 16.95 28.12 14.38 C28.12 13.67 28.11 12.96 28.1 12.23 C28.07 10.49 28.04 8.74 28 7 C28.66 6.67 29.32 6.34 30 6 C30 6.66 30 7.32 30 8 C30.66 8 31.32 8 32 8 C31.34 6.35 30.68 4.7 30 3 C36.43 1.67 36.43 1.67 38.81 3.06 C42.78 9.54 42.61 16.66 42 24 C40.53 28.26 38.99 30.85 35 33 C28.61 35.13 22.7 35.22 16 35 C16.14 36.73 16.29 38.46 16.44 40.19 C16.56 41.63 16.56 41.63 16.68 43.11 C16.97 45.76 17.48 48.38 18 51 C12.06 51 6.12 51 0 51 C0.66 49.35 1.32 47.7 2 46 C2.3 43.88 2.3 43.88 2.26 41.75 C2.27 40.94 2.27 40.14 2.28 39.31 C2.27 38.46 2.27 37.6 2.27 36.72 C2.27 35.83 2.27 34.94 2.27 34.02 C2.27 32.14 2.27 30.26 2.26 28.38 C2.25 25.51 2.26 22.64 2.27 19.77 C2.27 17.94 2.27 16.11 2.27 14.28 C2.27 13.43 2.27 12.57 2.28 11.69 C2.27 10.88 2.27 10.08 2.26 9.25 C2.26 8.2 2.26 8.2 2.25 7.12 C2.03 4.44 2.03 4.44 0 0 Z " fill="#163624" transform="translate(166,250)"/>
<path d="M0 0 C0.68 0.03 1.35 0.06 2.05 0.09 C6.59 0.41 9.94 1.44 13.81 3.81 C15.63 7.45 14.86 11.82 14.81 15.81 C11.18 15.81 7.55 15.81 3.81 15.81 C3.48 14.49 3.15 13.17 2.81 11.81 C-1.15 11.48 -5.11 11.15 -9.19 10.81 C-8.86 12.79 -8.53 14.77 -8.19 16.81 C-7.64 17 -7.09 17.19 -6.52 17.39 C-4.01 18.27 -1.51 19.17 1 20.06 C1.86 20.36 2.73 20.66 3.62 20.97 C8.35 22.68 12.08 24.32 15.81 27.81 C14.95 32.47 12.11 34.93 8.81 38.12 C8.22 38.7 7.63 39.27 7.03 39.86 C5.3 41.53 3.56 43.17 1.81 44.81 C0.97 45.62 0.13 46.42 -0.73 47.25 C-4.4 50.47 -6.95 52.31 -11.94 52.06 C-14.91 51.41 -16.6 50.56 -19.25 48.94 C-22.2 44.19 -21.52 40.34 -21.19 34.81 C-17.23 34.81 -13.27 34.81 -9.19 34.81 C-8.86 37.12 -8.53 39.43 -8.19 41.81 C-2.74 41.32 -2.74 41.32 2.81 40.81 C2.81 38.83 2.81 36.85 2.81 34.81 C0.95 34.14 0.95 34.14 -0.95 33.46 C-2.59 32.85 -4.23 32.24 -5.88 31.62 C-6.69 31.33 -7.51 31.04 -8.35 30.74 C-13.44 28.82 -16.65 26.96 -20.19 22.81 C-20.52 22.48 -20.85 22.15 -21.19 21.81 C-21.37 19.38 -21.47 17 -21.5 14.56 C-21.53 13.89 -21.56 13.22 -21.59 12.54 C-21.63 8.98 -21.28 6.96 -19.4 3.91 C-14.11 -1.11 -6.84 -0.34 0 0 Z " fill="#193927" transform="translate(330.1875,310.1875)"/>
<path d="M0 0 C0.95 0.35 0.95 0.35 1.91 0.7 C2.81 1.03 3.7 1.35 4.62 1.69 C5.62 2.05 6.61 2.42 7.63 2.79 C9.99 3.64 12.36 4.45 14.74 5.24 C15.98 5.65 17.22 6.07 18.5 6.5 C20.25 7.07 20.25 7.07 22.03 7.66 C25.22 9.1 26.46 9.88 28 13 C28.84 18.5 26.75 22.28 24.25 27 C23.73 28.03 23.73 28.03 23.2 29.08 C21.05 33.24 18.8 37.24 16 41 C15.34 41 14.68 41 14 41 C14.99 36.71 15.98 32.42 17 28 C15.35 28 13.7 28 12 28 C11.75 29.07 11.5 30.14 11.25 31.25 C10 35 8.98 36.52 6 39 C4.51 38.5 4.51 38.5 3 38 C3.66 37.01 4.32 36.02 5 35 C5.66 32.69 6.32 30.38 7 28 C-3.56 28 -14.12 28 -25 28 C-25 27.67 -25 27.34 -25 27 C-21.04 26.5 -21.04 26.5 -17 26 C-17 25.34 -17 24.68 -17 24 C-16.01 24 -15.02 24 -14 24 C-14 23.34 -14 22.68 -14 22 C-14.99 22 -15.98 22 -17 22 C-16.67 21.34 -16.34 20.68 -16 20 C-13.32 19.59 -10.69 19.27 -8 19 C-4.83 18.52 -2.04 18.01 1 17 C1.33 16.34 1.66 15.68 2 15 C1.34 15 0.68 15 0 15 C-0.33 15.66 -0.66 16.32 -1 17 C-2.98 17.73 -4.98 18.4 -7 19 C-7 18.34 -7 17.68 -7 17 C-9.31 16.67 -11.62 16.34 -14 16 C-13.67 16.99 -13.34 17.98 -13 19 C-14.32 19 -15.64 19 -17 19 C-17 18.34 -17 17.68 -17 17 C-17.66 16.67 -18.32 16.34 -19 16 C-19 15.34 -19 14.68 -19 14 C-19.66 14 -20.32 14 -21 14 C-21 13.01 -21 12.02 -21 11 C-20.34 11 -19.68 11 -19 11 C-19 10.01 -19 9.02 -19 8 C-19.62 7.88 -20.24 7.75 -20.88 7.62 C-23 7 -23 7 -25 5 C-19.2 4.9 -13.74 5.12 -8 6 C-6 6.04 -4 6.05 -2 6 C-1.67 5.01 -1.34 4.02 -1 3 C-0.67 2.67 -0.34 2.34 0 2 C0 1.34 0 0.68 0 0 Z " fill="#163826" transform="translate(273,53)"/>
<path d="M0 0 C5.94 0 11.88 0 18 0 C17.34 1.65 16.68 3.3 16 5 C15.77 7.82 15.63 10.54 15.59 13.36 C15.57 14.16 15.55 14.95 15.53 15.76 C15.47 18.28 15.42 20.8 15.38 23.31 C15.34 25.02 15.3 26.74 15.26 28.45 C15.16 32.63 15.08 36.82 15 41 C17.38 40.91 19.75 40.81 22.12 40.69 C23.12 40.65 23.12 40.65 24.14 40.62 C29.18 40.35 31.18 39.41 36 37 C36 41.95 36 46.9 36 52 C24.12 52 12.24 52 0 52 C0.66 50.35 1.32 48.7 2 47 C2.3 44.87 2.3 44.87 2.26 42.72 C2.27 41.91 2.27 41.09 2.28 40.26 C2.27 39.4 2.27 38.54 2.27 37.65 C2.27 36.75 2.27 35.86 2.27 34.93 C2.27 33.05 2.27 31.16 2.26 29.27 C2.25 26.38 2.26 23.49 2.27 20.59 C2.27 18.76 2.27 16.92 2.27 15.09 C2.27 14.22 2.27 13.35 2.28 12.46 C2.27 11.66 2.27 10.85 2.26 10.02 C2.26 9.32 2.26 8.61 2.25 7.88 C2.1 5.67 2.1 5.67 0 3 C0 2.01 0 1.02 0 0 Z " fill="#173624" transform="translate(124,249)"/>
<path d="M0 0 C0.99 0.33 1.98 0.66 3 1 C3 1.99 3 2.98 3 4 C3.66 4 4.32 4 5 4 C5 4.66 5 5.32 5 6 C8.98 6.9 8.98 6.9 13 7 C14.47 5.76 15.94 4.5 17.32 3.17 C20.19 1.17 22.94 1.33 26.34 1.52 C34.05 2.92 40.02 7.11 45 13 C45 13.66 45 14.32 45 15 C44.49 14.84 43.99 14.69 43.46 14.52 C40.15 13.82 36.95 13.71 33.56 13.62 C32.26 13.58 30.97 13.53 29.63 13.48 C25.9 13.73 25.9 13.73 23.05 16.1 C20.54 19.65 20.47 21.52 20.69 25.81 C20.73 26.97 20.78 28.14 20.82 29.33 C20.88 30.21 20.94 31.09 21 32 C15.93 29.21 13.17 26.38 11 21 C10.47 16.92 10.13 12.75 12 9 C11.34 9 10.68 9 10 9 C10 9.99 10 10.98 10 12 C9.01 12 8.02 12 7 12 C6.34 13.32 5.68 14.64 5 16 C3.68 16 2.36 16 1 16 C1 15.34 1 14.68 1 14 C2 13 3 12 4 11 C4 10.34 4 9.68 4 9 C3.01 8.67 2.02 8.34 1 8 C1.33 9.65 1.66 11.3 2 13 C1.34 13 0.68 13 0 13 C-0.33 13.66 -0.66 14.32 -1 15 C-3.31 15 -5.62 15 -8 15 C-8.33 16.65 -8.66 18.3 -9 20 C-9.66 20 -10.32 20 -11 20 C-11 20.66 -11 21.32 -11 22 C-10.01 22.33 -9.02 22.66 -8 23 C-8.99 23.33 -9.98 23.66 -11 24 C-9.68 24.66 -8.36 25.32 -7 26 C-7.33 26.66 -7.66 27.32 -8 28 C-10.97 27.67 -13.94 27.34 -17 27 C-17.33 28.32 -17.66 29.64 -18 31 C-18.66 31 -19.32 31 -20 31 C-19.36 31.41 -18.72 31.82 -18.06 32.25 C-16 34 -16 34 -15.12 36 C-15 38 -15 38 -17 41 C-17 41.99 -17 42.98 -17 44 C-17.99 44.5 -17.99 44.5 -19 45 C-19.99 42.77 -20.96 40.54 -21.94 38.31 C-22.22 37.69 -22.49 37.06 -22.78 36.42 C-25.07 31.15 -26.13 26.65 -26.1 20.92 C-26.09 19.99 -26.09 19.06 -26.09 18.1 C-26.08 17.14 -26.07 16.18 -26.06 15.19 C-26.06 14.21 -26.05 13.23 -26.05 12.22 C-26.04 9.81 -26.02 7.41 -26 5 C-25.67 5 -25.34 5 -25 5 C-24.67 9.29 -24.34 13.58 -24 18 C-18.52 18.45 -18.52 18.45 -16 17 C-16 17.99 -16 18.98 -16 20 C-15.34 20 -14.68 20 -14 20 C-14.33 17.69 -14.66 15.38 -15 13 C-15.99 12.67 -16.98 12.34 -18 12 C-18 11.01 -18 10.02 -18 9 C-15.69 9 -13.38 9 -11 9 C-11 9.66 -11 10.32 -11 11 C-10.01 11.33 -9.02 11.66 -8 12 C-8 10.68 -8 9.36 -8 8 C-8.66 7.67 -9.32 7.34 -10 7 C-9.34 6.34 -8.68 5.68 -8 5 C-5.88 5.38 -5.88 5.38 -4 6 C-4.99 6.33 -5.98 6.66 -7 7 C-6.67 8.32 -6.34 9.64 -6 11 C-3.03 11.5 -3.03 11.5 0 12 C0 11.01 0 10.02 0 9 C-0.99 9 -1.98 9 -3 9 C-3 8.34 -3 7.68 -3 7 C-1.35 6.67 0.3 6.34 2 6 C2 5.01 2 4.02 2 3 C1.34 3 0.68 3 0 3 C0 2.01 0 1.02 0 0 Z " fill="#183B29" transform="translate(112,147)"/>
<path d="M0 0 C0.99 0 1.98 0 3 0 C3.66 0.99 4.32 1.98 5 3 C5.33 2.34 5.66 1.68 6 1 C6.99 1.33 7.98 1.66 9 2 C8.34 3.32 7.68 4.64 7 6 C6.01 6 5.02 6 4 6 C3.67 6.99 3.34 7.98 3 9 C3.99 8.67 4.98 8.34 6 8 C6 8.66 6 9.32 6 10 C7.32 10 8.64 10 10 10 C10 9.34 10 8.68 10 8 C9.34 8 8.68 8 8 8 C8 7.34 8 6.68 8 6 C9.32 6 10.64 6 12 6 C12 5.34 12 4.68 12 4 C17.44 3.5 17.44 3.5 23 3 C22.01 2.34 21.02 1.68 20 1 C23 0 23 0 25.19 0.94 C26.08 1.46 26.08 1.46 27 2 C26.81 2.78 26.63 3.57 26.44 4.38 C26.07 7.41 26.09 9.44 26.47 12.41 C27.14 18.65 27.11 24.85 27.06 31.12 C27.06 32.27 27.05 33.42 27.05 34.6 C27.04 37.4 27.02 40.2 27 43 C25.02 43.5 25.02 43.5 23 44 C22.67 43.01 22.34 42.02 22 41 C21.5 40.5 21.5 40.5 21 40 C20.96 38 20.96 36 21 34 C22.49 34.5 22.49 34.5 24 35 C24.33 33.68 24.66 32.36 25 31 C24.34 31 23.68 31 23 31 C22.67 31.66 22.34 32.32 22 33 C22 31.68 22 30.36 22 29 C20.05 29.19 20.05 29.19 18 30 C17.34 31.32 16.68 32.64 16 34 C11.38 34 6.76 34 2 34 C0.82 30.45 0.94 27.62 1 23.88 C1.04 21.58 1.05 19.29 1 17 C0.67 16.67 0.34 16.34 0 16 C-0.07 13.3 -0.09 10.63 -0.06 7.94 C-0.06 7.18 -0.05 6.42 -0.05 5.64 C-0.04 3.76 -0.02 1.88 0 0 Z " fill="#EEE9DE" transform="translate(140,255)"/>
<path d="M0 0 C0.6 0.82 1.2 1.65 1.81 2.5 C2.53 3.32 3.26 4.15 4 5 C4.99 5 5.98 5 7 5 C7.4 6.3 7.4 6.3 7.8 7.63 C8.16 8.79 8.51 9.94 8.88 11.12 C9.22 12.26 9.57 13.4 9.93 14.57 C10.91 17.73 11.95 20.86 13 24 C7.06 24 1.12 24 -5 24 C-4.67 21.69 -4.34 19.38 -4 17 C-4.5 15.51 -4.5 15.51 -5 14 C-9.95 13.67 -14.9 13.34 -20 13 C-20.02 14.26 -20.04 15.52 -20.06 16.81 C-20.07 17.52 -20.09 18.23 -20.1 18.96 C-20.08 21.2 -20.08 21.2 -19 24 C-24.94 24 -30.88 24 -37 24 C-33.86 14.43 -33.86 14.43 -32 10 C-31.34 10 -30.68 10 -30 10 C-29.88 8.87 -29.75 7.73 -29.62 6.56 C-29.42 5.39 -29.21 4.21 -29 3 C-28.34 2.67 -27.68 2.34 -27 2 C-26.67 2.66 -26.34 3.32 -26 4 C-25.34 3.34 -24.68 2.68 -24 2 C-20.88 1.88 -20.88 1.88 -18 2 C-18 2.66 -18 3.32 -18 4 C-12.72 4 -7.44 4 -2 4 C-1.34 2.68 -0.68 1.36 0 0 Z " fill="#163725" transform="translate(106,277)"/>
<path d="M0 0 C5.94 0 11.88 0 18 0 C17 4 17 4 16 5 C15.89 8.06 15.84 11.09 15.83 14.14 C15.83 15.07 15.83 15.99 15.82 16.94 C15.82 18.89 15.81 20.85 15.81 22.8 C15.81 25.79 15.79 28.78 15.78 31.77 C15.77 33.66 15.77 35.56 15.77 37.46 C15.76 38.35 15.76 39.25 15.75 40.17 C15.75 41.01 15.75 41.84 15.76 42.71 C15.75 43.81 15.75 43.81 15.75 44.93 C15.93 47.43 15.93 47.43 18 51 C12.06 51 6.12 51 0 51 C0.66 49.35 1.32 47.7 2 46 C2.3 43.88 2.3 43.88 2.26 41.75 C2.27 40.94 2.27 40.14 2.28 39.31 C2.27 38.46 2.27 37.6 2.27 36.72 C2.27 35.83 2.27 34.94 2.27 34.02 C2.27 32.14 2.27 30.26 2.26 28.38 C2.25 25.51 2.26 22.64 2.27 19.77 C2.27 17.94 2.27 16.11 2.27 14.28 C2.27 13.43 2.27 12.57 2.28 11.69 C2.27 10.88 2.27 10.08 2.26 9.25 C2.26 8.2 2.26 8.2 2.25 7.12 C2.03 4.44 2.03 4.44 0 0 Z " fill="#163624" transform="translate(214,250)"/>
<path d="M0 0 C6.93 0 13.86 0 21 0 C21.85 2.6 22.69 5.2 23.56 7.88 C23.83 8.69 24.1 9.51 24.38 10.35 C26.11 15.78 26.11 15.78 25 18 C22.56 17.31 22.56 17.31 20 16 C19.12 13.5 19.12 13.5 19 11 C19.33 10.34 19.66 9.68 20 9 C19.01 9.33 18.02 9.66 17 10 C16.67 10 16.34 10 16 10 C16.37 10.52 16.74 11.03 17.12 11.56 C18.4 15.11 17.06 17.42 16 21 C15.83 24.02 15.91 26.97 16 30 C13.03 30 10.06 30 7 30 C6.24 25.68 5.84 22.26 7 18 C6.34 18 5.68 18 5 18 C4.34 18.66 3.68 19.32 3 20 C2.67 20 2.34 20 2 20 C2 20.66 2 21.32 2 22 C1.34 22 0.68 22 0 22 C0.06 23.14 0.06 23.14 0.12 24.31 C0 27 0 27 -2 30 C-1.34 30 -0.68 30 0 30 C-0.33 30.99 -0.66 31.98 -1 33 C-4.06 34.19 -4.06 34.19 -7 35 C-6.42 32.6 -5.84 30.21 -5.25 27.81 C-5.07 27.09 -4.9 26.37 -4.71 25.62 C-3.3 19.94 -1.57 14.4 0.36 8.87 C1.3 5.49 1.3 5.49 0 0 Z " fill="#163625" transform="translate(175,311)"/>
<path d="M0 0 C6.93 0 13.86 0 21 0 C21 0.33 21 0.66 21 1 C12.59 1.5 12.59 1.5 4 2 C3.67 3.32 3.34 4.64 3 6 C3.33 6.33 3.66 6.66 4 7 C4.04 8.67 4.04 10.33 4 12 C4.33 10.02 4.66 8.04 5 6 C7.64 6.33 10.28 6.66 13 7 C13.33 8.98 13.66 10.96 14 13 C13.4 13.14 12.8 13.29 12.19 13.44 C10.44 13.89 8.71 14.43 7 15 C7.99 15.99 8.98 16.98 10 18 C10.66 17.01 11.32 16.02 12 15 C13.53 18.96 15 22.83 16.06 26.94 C16.53 28.45 16.53 28.45 17 30 C17.66 30.33 18.32 30.66 19 31 C18 32 18 32 15.28 32.1 C14.18 32.09 13.07 32.07 11.94 32.06 C10.83 32.05 9.73 32.04 8.59 32.04 C7.74 32.02 6.88 32.01 6 32 C6 31.34 6 30.68 6 30 C1.52 30.45 1.52 30.45 -2 33 C-2.66 32.34 -3.32 31.68 -4 31 C-4.66 33.31 -5.32 35.62 -6 38 C-6.66 38 -7.32 38 -8 38 C-6.29 29.59 -4.11 21.19 -0.88 13.23 C0.44 8.95 0.44 8.95 0 0 Z " fill="#163A27" transform="translate(82,249)"/>
<path d="M0 0 C6.58 2.26 11.53 5.71 16 11 C16 11.66 16 12.32 16 13 C15.49 12.84 14.99 12.69 14.46 12.52 C11.15 11.82 7.95 11.71 4.56 11.62 C3.26 11.58 1.97 11.53 0.63 11.48 C-3.1 11.73 -3.1 11.73 -5.95 14.1 C-8.46 17.65 -8.53 19.52 -8.31 23.81 C-8.27 24.97 -8.22 26.14 -8.18 27.33 C-8.09 28.65 -8.09 28.65 -8 30 C-13.09 27.2 -15.79 24.38 -18 19 C-18.91 13.9 -18.61 10.2 -16.25 5.56 C-11.26 -0.13 -7.42 -1.13 0 0 Z " fill="#E9E8DD" transform="translate(141,149)"/>
<path d="M0 0 C4.16 -0.07 8.32 -0.13 12.49 -0.16 C13.9 -0.18 15.32 -0.2 16.73 -0.23 C18.77 -0.26 20.81 -0.28 22.85 -0.29 C24.08 -0.31 25.3 -0.32 26.56 -0.34 C30.33 0.03 32.75 1.11 36 3 C36 3.33 36 3.66 36 4 C34.02 4 32.04 4 30 4 C30.66 5.65 31.32 7.3 32 9 C31.01 8.67 30.02 8.34 29 8 C29.05 9.57 29.05 9.57 29.11 11.18 C29.13 12.55 29.16 13.93 29.19 15.31 C29.21 16 29.24 16.69 29.26 17.4 C29.31 20.27 29.32 22.46 27.84 24.97 C25.25 26.42 23.26 26.29 20.31 26.19 C18.82 26.15 18.82 26.15 17.3 26.11 C16.54 26.07 15.78 26.04 15 26 C14.97 23.56 14.95 21.13 14.94 18.69 C14.93 18 14.92 17.31 14.91 16.6 C14.9 13.45 15 11.01 16 8 C15.34 8 14.68 8 14 8 C14 7.01 14 6.02 14 5 C12.68 5 11.36 5 10 5 C9.67 5.66 9.34 6.32 9 7 C8.34 7 7.68 7 7 7 C7 6.01 7 5.02 7 4 C8.17 4.02 8.17 4.02 9.37 4.04 C10.38 4.04 11.39 4.05 12.44 4.06 C13.95 4.08 13.95 4.08 15.5 4.1 C17.94 4.29 17.94 4.29 19 3 C15.7 3 12.4 3 9 3 C9 2.67 9 2.34 9 2 C6.03 1.67 3.06 1.34 0 1 C0 0.67 0 0.34 0 0 Z " fill="#2A4836" transform="translate(166,249)"/>
<path d="M0 0 C7.35 -0.73 12.53 0.71 19.21 3.75 C22.44 5.2 25.58 6.14 29 7 C29.12 11.75 29.12 11.75 28 14 C29.32 14.66 30.64 15.32 32 16 C32 16.66 32 17.32 32 18 C28.49 19.6 25.86 20.22 22 20 C22 20.66 22 21.32 22 22 C19.15 22.81 16.63 23.12 13.67 23.1 C12.87 23.09 12.07 23.09 11.25 23.09 C10.43 23.08 9.6 23.07 8.75 23.06 C7.91 23.06 7.07 23.05 6.2 23.05 C4.14 23.04 2.07 23.02 0 23 C0 22.67 0 22.34 0 22 C3.96 21.5 3.96 21.5 8 21 C8 20.34 8 19.68 8 19 C8.99 19 9.98 19 11 19 C11 18.34 11 17.68 11 17 C10.01 17 9.02 17 8 17 C8.33 16.34 8.66 15.68 9 15 C11.68 14.59 14.31 14.27 17 14 C20.17 13.52 22.96 13.01 26 12 C26.33 11.34 26.66 10.68 27 10 C26.34 10 25.68 10 25 10 C24.67 10.66 24.34 11.32 24 12 C22.02 12.73 20.02 13.4 18 14 C18 13.34 18 12.68 18 12 C15.69 11.67 13.38 11.34 11 11 C11.33 11.99 11.66 12.98 12 14 C10.68 14 9.36 14 8 14 C8 13.34 8 12.68 8 12 C7.34 11.67 6.68 11.34 6 11 C6 10.34 6 9.68 6 9 C5.34 9 4.68 9 4 9 C4 8.01 4 7.02 4 6 C4.66 6 5.32 6 6 6 C6 5.01 6 4.02 6 3 C5.38 2.88 4.76 2.75 4.12 2.62 C2 2 2 2 0 0 Z " fill="#213D2D" transform="translate(248,58)"/>
<path d="M0 0 C5.61 0 11.22 0 17 0 C16.34 1.32 15.68 2.64 15 4 C14.68 6.3 14.68 6.3 14.68 8.77 C14.66 9.71 14.64 10.65 14.62 11.62 C14.6 13.13 14.6 13.13 14.59 14.67 C14.57 15.71 14.55 16.75 14.53 17.82 C14.47 21.13 14.42 24.44 14.38 27.75 C14.34 30 14.3 32.24 14.26 34.49 C14.16 39.99 14.08 45.5 14 51 C9.05 51 4.1 51 -1 51 C-0.67 50.34 -0.34 49.68 0 49 C4.29 49.33 8.58 49.66 13 50 C13 37.46 13 24.92 13 12 C12.34 12 11.68 12 11 12 C11 14.97 11 17.94 11 21 C8.69 21 6.38 21 4 21 C3.67 23.31 3.34 25.62 3 28 C1 26 1 26 0.79 23.71 C0.81 22.78 0.82 21.84 0.84 20.88 C0.85 19.86 0.86 18.84 0.87 17.79 C0.89 16.73 0.92 15.66 0.94 14.56 C0.97 12.46 1 10.36 1.03 8.25 C1.05 7.32 1.06 6.38 1.08 5.42 C1.11 2.86 1.11 2.86 0 0 Z " fill="#36503F" transform="translate(141,311)"/>
<path d="M0 0 C2.41 2.41 2.76 4.1 3.62 7.38 C4.02 8.81 4.02 8.81 4.41 10.27 C5 13 5 13 5 17 C2.03 17 -0.94 17 -4 17 C-4.76 12.68 -5.16 9.26 -4 5 C-4.66 5 -5.32 5 -6 5 C-6.66 5.66 -7.32 6.32 -8 7 C-8.33 7 -8.66 7 -9 7 C-9 7.66 -9 8.32 -9 9 C-9.66 9 -10.32 9 -11 9 C-10.94 10.14 -10.94 10.14 -10.88 11.31 C-11 14 -11 14 -13 17 C-12.34 17 -11.68 17 -11 17 C-11.33 17.99 -11.66 18.98 -12 20 C-15.06 21.19 -15.06 21.19 -18 22 C-17.36 19.37 -16.71 16.75 -16.06 14.12 C-15.88 13.38 -15.7 12.63 -15.51 11.86 C-14.11 6.23 -14.11 6.23 -13 4 C-10.18 3.06 -8.81 2.96 -5.94 3.12 C-4.64 3.08 -3.34 3.04 -2 3 C-1.34 2.01 -0.68 1.02 0 0 Z " fill="#213F2D" transform="translate(186,324)"/>
<path d="M0 0 C0.33 0 0.66 0 1 0 C1.33 12.21 1.66 24.42 2 37 C4.31 37.66 6.62 38.32 9 39 C8.67 40.65 8.34 42.3 8 44 C15.59 44 23.18 44 31 44 C31.33 42.35 31.66 40.7 32 39 C29.36 38.67 26.72 38.34 24 38 C24 37.34 24 36.68 24 36 C25.14 35.85 25.14 35.85 26.31 35.69 C29.22 34.94 30.04 34.15 32 32 C32.66 32 33.32 32 34 32 C34 36.62 34 41.24 34 46 C22.12 46 10.24 46 -2 46 C-1.67 44.68 -1.34 43.36 -1 42 C-0.89 40.57 -0.82 39.13 -0.79 37.69 C-0.77 36.85 -0.75 36.01 -0.73 35.14 C-0.72 34.25 -0.7 33.35 -0.68 32.42 C-0.66 31.5 -0.64 30.57 -0.62 29.61 C-0.56 26.66 -0.5 23.7 -0.44 20.75 C-0.39 18.74 -0.35 16.74 -0.31 14.73 C-0.2 9.82 -0.1 4.91 0 0 Z " fill="#43594A" transform="translate(268,316)"/>
<path d="M0 0 C2 1 2 1 2.82 3.4 C3.06 4.38 3.31 5.36 3.56 6.38 C4.31 9.29 5.05 12.14 6 15 C6.66 15.33 7.32 15.66 8 16 C7 17 7 17 4.28 17.1 C3.18 17.09 2.07 17.07 0.94 17.06 C-0.17 17.05 -1.27 17.04 -2.41 17.04 C-3.26 17.02 -4.12 17.01 -5 17 C-5 16.34 -5 15.68 -5 15 C-9.48 15.45 -9.48 15.45 -13 18 C-13.66 17.34 -14.32 16.68 -15 16 C-15.99 19.46 -15.99 19.46 -17 23 C-17.66 23 -18.32 23 -19 23 C-18.01 18.16 -17.04 13.52 -15 9 C-14.34 9.33 -13.68 9.66 -13 10 C-11.3 10.23 -9.59 10.41 -7.88 10.56 C-6.27 10.71 -4.66 10.85 -3 11 C-2.01 7.37 -1.02 3.74 0 0 Z " fill="#233F2F" transform="translate(93,264)"/>
<path d="M0 0 C3.96 0 7.92 0 12 0 C13.16 2.33 13.2 3.85 13.25 6.44 C13.29 7.61 13.29 7.61 13.33 8.81 C13 11 13 11 11.81 12.77 C9.37 14.43 7.73 14.3 4.81 14.19 C3.22 14.13 1.64 14.06 0 14 C0 9.38 0 4.76 0 0 Z " fill="#E4E6DB" transform="translate(182,261)"/>
<path d="M0 0 C3.07 2.96 4.28 5.14 4.45 9.33 C4.45 11.04 4.43 12.75 4.39 14.46 C4.38 15.36 4.38 16.26 4.37 17.19 C4.35 20.07 4.3 22.94 4.25 25.81 C4.23 27.76 4.21 29.72 4.2 31.67 C4.15 36.45 4.08 41.22 4 46 C3.67 46 3.34 46 3 46 C2.67 39.73 2.34 33.46 2 27 C1.67 27.99 1.34 28.98 1 30 C0.34 30 -0.32 30 -1 30 C-1 28.68 -1 27.36 -1 26 C-2.65 26 -4.3 26 -6 26 C-5.97 24.5 -5.97 24.5 -5.93 22.96 C-5.91 21.62 -5.89 20.28 -5.88 18.94 C-5.84 16.97 -5.84 16.97 -5.8 14.96 C-6.01 10.88 -6.73 7.85 -8 4 C-7.34 4 -6.68 4 -6 4 C-5.67 3.34 -5.34 2.68 -5 2 C-4.86 2.6 -4.71 3.2 -4.56 3.81 C-3.5 8.17 -3.5 8.17 0 11 C0 11.66 0 12.32 0 13 C-1.32 13.33 -2.64 13.66 -4 14 C-4 16.64 -4 19.28 -4 22 C-2.68 22 -1.36 22 0 22 C0 15.73 0 9.46 0 3 C-0.66 3 -1.32 3 -2 3 C-2 2.34 -2 1.68 -2 1 C-1.34 0.67 -0.68 0.34 0 0 Z " fill="#D2D6CA" transform="translate(213,250)"/>
<path d="M0 0 C1 3 1 3 0 6 C0.66 6 1.32 6 2 6 C1.67 7.32 1.34 8.64 1 10 C0.34 10 -0.32 10 -1 10 C-1 11.65 -1 13.3 -1 15 C-0.34 14.01 0.32 13.02 1 12 C1 13.98 1 15.96 1 18 C1.99 18.33 2.98 18.66 4 19 C3.67 19.66 3.34 20.32 3 21 C8.94 21 14.88 21 21 21 C21.33 20.34 21.66 19.68 22 19 C22 19.99 22 20.98 22 22 C15.73 22 9.46 22 3 22 C2.67 22.66 2.34 23.32 2 24 C1.5 22.51 1.5 22.51 1 21 C0.01 21 -0.98 21 -2 21 C-1.34 21.33 -0.68 21.66 0 22 C-1 25 -1 25 -3 27 C-5.12 27.62 -5.12 27.62 -7 28 C-7 28.99 -7 29.98 -7 31 C-10 26.38 -10 26.38 -10 23 C-19.57 22.67 -29.14 22.34 -39 22 C-39 21.67 -39 21.34 -39 21 C-27.12 21 -15.24 21 -3 21 C-2.75 8.35 -2.75 8.35 -6 4 C-4.68 4 -3.36 4 -2 4 C-1.34 2.68 -0.68 1.36 0 0 Z " fill="#CDCEC2" transform="translate(163,280)"/>
<path d="M0 0 C11.88 0 23.76 0 36 0 C36 4.29 36 8.58 36 13 C33.52 12.5 33.52 12.5 31 12 C29.67 11.87 28.34 11.76 27.01 11.68 C26.31 11.64 25.6 11.6 24.87 11.56 C24.15 11.52 23.43 11.48 22.69 11.44 C21.95 11.39 21.21 11.35 20.44 11.31 C18.63 11.2 16.81 11.1 15 11 C15 10.01 15 9.02 15 8 C18.96 8 22.92 8 27 8 C27 6.68 27 5.36 27 4 C26.01 3.34 25.02 2.68 24 2 C27.3 2 30.6 2 34 2 C22.78 1.67 11.56 1.34 0 1 C0 0.67 0 0.34 0 0 Z " fill="#354C3D" transform="translate(266,311)"/>
<path d="M0 0 C1.65 0 3.3 0 5 0 C4.07 2.25 3.13 4.5 2.19 6.75 C1.93 7.38 1.67 8.02 1.4 8.67 C-0.05 12.11 -1.46 15.24 -4 18 C-4.66 18 -5.32 18 -6 18 C-5.01 13.71 -4.02 9.42 -3 5 C-4.65 5 -6.3 5 -8 5 C-8.25 6.07 -8.5 7.14 -8.75 8.25 C-10 12 -11.02 13.52 -14 16 C-14.99 15.67 -15.98 15.34 -17 15 C-16.34 14.01 -15.68 13.02 -15 12 C-14.29 9.68 -13.62 7.35 -13 5 C-16.3 4.67 -19.6 4.34 -23 4 C-23 3.67 -23 3.34 -23 3 C-22.06 2.91 -22.06 2.91 -21.1 2.82 C-19.88 2.69 -19.88 2.69 -18.62 2.56 C-17.81 2.48 -17 2.4 -16.16 2.32 C-13.96 2.11 -13.96 2.11 -12 1 C-11.34 1.99 -10.68 2.98 -10 4 C-8.89 3.65 -7.77 3.3 -6.62 2.94 C-3 2 -3 2 -1 3 C-1.33 3.66 -1.66 4.32 -2 5 C-1.34 5 -0.68 5 0 5 C0 3.35 0 1.7 0 0 Z " fill="#314535" transform="translate(293,76)"/>
<path d="M0 0 C0.33 0 0.66 0 1 0 C1.05 5.77 1.09 11.53 1.11 17.3 C1.12 19.26 1.13 21.22 1.15 23.18 C1.18 26 1.19 28.82 1.2 31.64 C1.21 32.52 1.22 33.39 1.23 34.3 C1.23 35.12 1.23 35.94 1.23 36.78 C1.23 37.5 1.24 38.22 1.24 38.96 C1 41 1 41 -1 45 C10.88 45 22.76 45 35 45 C35 45.33 35 45.66 35 46 C29.5 46.02 24 46.04 18.5 46.05 C16.63 46.06 14.76 46.07 12.89 46.08 C10.2 46.09 7.51 46.09 4.82 46.1 C3.99 46.1 3.15 46.11 2.29 46.11 C-1.06 46.11 -3.8 46.07 -7 45 C-7 44.34 -7 43.68 -7 43 C-8.49 43.5 -8.49 43.5 -10 44 C-9.67 42.68 -9.34 41.36 -9 40 C-9.66 40 -10.32 40 -11 40 C-11 37.69 -11 35.38 -11 33 C-10.01 32.5 -10.01 32.5 -9 32 C-9 33.32 -9 34.64 -9 36 C-8.34 36 -7.68 36 -7 36 C-6.67 37.65 -6.34 39.3 -6 41 C-3.03 40.5 -3.03 40.5 0 40 C0 26.8 0 13.6 0 0 Z " fill="#BAC0B3" transform="translate(297,256)"/>
<path d="M0 0 C0.33 0 0.66 0 1 0 C1.05 5.46 1.09 10.93 1.11 16.39 C1.12 18.25 1.13 20.1 1.15 21.96 C1.18 24.63 1.19 27.31 1.2 29.98 C1.21 30.81 1.22 31.64 1.23 32.49 C1.23 33.27 1.23 34.05 1.23 34.85 C1.23 35.53 1.24 36.22 1.24 36.92 C1 39 1 39 -1 44 C3.95 43.67 8.9 43.34 14 43 C14.33 42.01 14.66 41.02 15 40 C15.66 40.66 16.32 41.32 17 42 C16.62 44.62 16.62 44.62 16 47 C15.34 47 14.68 47 14 47 C14.33 47.99 14.66 48.98 15 50 C13.52 50.5 13.52 50.5 12 51 C12.33 49.35 12.66 47.7 13 46 C11.96 45.97 10.93 45.95 9.86 45.92 C8.49 45.87 7.12 45.81 5.75 45.75 C5.07 45.74 4.39 45.72 3.68 45.71 C0.26 45.54 -1.71 45.21 -4.48 43.14 C-6 41 -6 41 -6 38.06 C-5 35 -5 35 -2.98 32.75 C-0.48 29.28 -0.46 27.19 -0.39 22.95 C-0.37 22.29 -0.36 21.63 -0.34 20.95 C-0.29 18.86 -0.27 16.78 -0.25 14.69 C-0.22 13.26 -0.19 11.84 -0.16 10.42 C-0.09 6.95 -0.04 3.47 0 0 Z " fill="#D2DACD" transform="translate(112,317)"/>
<path d="M0 0 C8.44 -0.84 14.43 1.46 22 5 C23.66 5.68 25.33 6.35 27 7 C27 7.33 27 7.66 27 8 C24.69 7.67 22.38 7.34 20 7 C20 7.66 20 8.32 20 9 C17.77 10.11 16.47 10.16 14 10.19 C12.95 10.21 12.95 10.21 11.88 10.23 C10 10 10 10 8 8 C7.38 5.38 7.38 5.38 7 3 C4.69 2.34 2.38 1.68 0 1 C0 0.67 0 0.34 0 0 Z " fill="#DFE6D7" transform="translate(248,58)"/>
<path d="M0 0 C5.94 0 11.88 0 18 0 C16 5 16 5 15 7 C14.34 7 13.68 7 13 7 C12.67 5.68 12.34 4.36 12 3 C9.36 3 6.72 3 4 3 C4 16.86 4 30.72 4 45 C3.67 45 3.34 45 3 45 C2.98 43.83 2.96 42.67 2.94 41.47 C2.86 37.15 2.78 32.82 2.68 28.5 C2.64 26.63 2.61 24.76 2.58 22.89 C2.53 20.2 2.47 17.51 2.41 14.82 C2.4 13.99 2.39 13.15 2.38 12.29 C2.28 8.38 2.22 6.32 0 3 C0 2.01 0 1.02 0 0 Z " fill="#324637" transform="translate(124,249)"/>
<path d="M0 0 C3 2 3 2 3.36 3.8 C3.35 4.52 3.35 5.24 3.34 5.99 C3.34 6.81 3.34 7.63 3.34 8.48 C3.32 9.36 3.31 10.25 3.29 11.16 C3.29 12.07 3.28 12.98 3.28 13.91 C3.26 16.82 3.23 19.72 3.19 22.62 C3.17 24.59 3.16 26.56 3.15 28.52 C3.11 33.35 3.06 38.17 3 43 C1.51 43.5 1.51 43.5 0 44 C0.01 43.33 0.01 42.66 0.02 41.97 C0.04 38.88 0.05 35.78 0.06 32.69 C0.07 31.63 0.08 30.58 0.09 29.5 C0.11 23.41 -0.14 17.49 -0.88 11.45 C-1.01 8.79 -0.56 6.6 0 4 C0 2.68 0 1.36 0 0 Z " fill="#CCD5C8" transform="translate(166,253)"/>
<path d="M0 0 C0.66 0.33 1.32 0.66 2 1 C2 1.99 2 2.98 2 4 C1.34 4 0.68 4 0 4 C0 8.95 0 13.9 0 19 C-2.97 19.33 -5.94 19.66 -9 20 C-9.33 20.99 -9.66 21.98 -10 23 C-10.99 23 -11.98 23 -13 23 C-13 23.66 -13 24.32 -13 25 C-13.66 25 -14.32 25 -15 25 C-15 25.66 -15 26.32 -15 27 C-10.05 27 -5.1 27 0 27 C0 27.33 0 27.66 0 28 C-5.28 28 -10.56 28 -16 28 C-16 24.7 -16 21.4 -16 18 C-11.05 18 -6.1 18 -1 18 C-1 14.7 -1 11.4 -1 8 C-5.95 8 -10.9 8 -16 8 C-16 7.67 -16 7.34 -16 7 C-11.05 7 -6.1 7 -1 7 C-1 5.02 -1 3.04 -1 1 C-0.67 0.67 -0.34 0.34 0 0 Z " fill="#C3CABE" transform="translate(297,323)"/>
<path d="M0 0 C2.41 2.41 2.76 4.1 3.62 7.38 C3.89 8.33 4.15 9.29 4.41 10.27 C5 13 5 13 5 17 C2.03 17 -0.94 17 -4 17 C-2.75 11.31 -1.44 5.65 0 0 Z " fill="#D3DDD3" transform="translate(186,324)"/>
<path d="M0 0 C2 1 2 1 2.85 3.36 C3.23 4.82 3.23 4.82 3.62 6.31 C3.89 7.28 4.15 8.24 4.41 9.24 C5 12 5 12 5 16 C2.03 16 -0.94 16 -4 16 C-2.98 10.53 -1.93 5.24 0 0 Z " fill="#D1DDD1" transform="translate(93,264)"/>
<path d="M0 0 C0.33 0 0.66 0 1 0 C1.02 1.22 1.04 2.44 1.06 3.7 C1.14 8.23 1.22 12.77 1.32 17.3 C1.36 19.26 1.39 21.22 1.42 23.18 C1.47 26 1.53 28.82 1.59 31.64 C1.6 32.52 1.61 33.39 1.62 34.3 C1.64 35.12 1.66 35.94 1.68 36.78 C1.7 37.86 1.7 37.86 1.72 38.96 C1.95 41.43 1.95 41.43 4 45 C0.7 44.67 -2.6 44.34 -6 44 C-5.01 43.5 -5.01 43.5 -4 43 C-4 42.34 -4 41.68 -4 41 C-3.34 41 -2.68 41 -2 41 C-2.02 40.03 -2.04 39.06 -2.06 38.06 C-2 35 -2 35 -1 34 C-0.84 31.48 -0.74 28.99 -0.68 26.46 C-0.66 25.71 -0.64 24.96 -0.62 24.18 C-0.56 21.77 -0.5 19.35 -0.44 16.94 C-0.39 15.3 -0.35 13.67 -0.31 12.04 C-0.2 8.02 -0.1 4.01 0 0 Z " fill="#2F4132" transform="translate(228,256)"/>
<path d="M0 0 C0.66 0.33 1.32 0.66 2 1 C1.98 2.1 1.98 2.1 1.97 3.23 C1.93 6.57 1.9 9.91 1.88 13.25 C1.86 14.41 1.84 15.57 1.82 16.76 C1.81 18.43 1.81 18.43 1.8 20.14 C1.79 21.68 1.79 21.68 1.77 23.25 C1.86 26.33 1.86 26.33 4 30 C0.04 29.67 -3.92 29.34 -8 29 C-7.34 28.67 -6.68 28.34 -6 28 C-6 27.34 -6 26.68 -6 26 C-6.66 25.67 -7.32 25.34 -8 25 C-7.34 25 -6.68 25 -6 25 C-6 24.34 -6 23.68 -6 23 C-6.66 23 -7.32 23 -8 23 C-8.33 21.02 -8.66 19.04 -9 17 C-8.67 17.66 -8.34 18.32 -8 19 C-7.34 19 -6.68 19 -6 19 C-5.67 20.98 -5.34 22.96 -5 25 C-3.35 25 -1.7 25 0 25 C0 16.75 0 8.5 0 0 Z " fill="#334C3B" transform="translate(253,271)"/>
<path d="M0 0 C0.33 0 0.66 0 1 0 C1.06 1.22 1.12 2.43 1.18 3.68 C1.27 5.27 1.35 6.85 1.44 8.44 C1.48 9.24 1.52 10.04 1.56 10.87 C1.41 14.75 1.41 14.75 3 18 C3.07 21.6 3 25.18 2.94 28.78 C2.77 31.89 2.77 31.89 4 34 C6.59 34.47 6.59 34.47 9.56 34.62 C10.57 34.7 11.59 34.77 12.63 34.85 C13.41 34.9 14.19 34.95 15 35 C15 35.33 15 35.66 15 36 C10.05 36 5.1 36 0 36 C0 24.12 0 12.24 0 0 Z " fill="#BCC5B7" transform="translate(139,254)"/>
<path d="M0 0 C0.33 0 0.66 0 1 0 C1 4.62 1 9.24 1 14 C-0.65 14.33 -2.3 14.66 -4 15 C-3.67 15.66 -3.34 16.32 -3 17 C-3.66 17.99 -4.32 18.98 -5 20 C-7.79 20.22 -10.35 20.28 -13.12 20.19 C-14.26 20.17 -14.26 20.17 -15.41 20.15 C-17.27 20.11 -19.14 20.06 -21 20 C-21 19.67 -21 19.34 -21 19 C-16.38 19 -11.76 19 -7 19 C-7.33 18.34 -7.66 17.68 -8 17 C-8.33 16.34 -8.66 15.68 -9 15 C-8.01 14.34 -7.02 13.68 -6 13 C-10.95 13 -15.9 13 -21 13 C-21 12.34 -21 11.68 -21 11 C-18.06 10.97 -15.13 10.95 -12.19 10.94 C-11.35 10.93 -10.52 10.92 -9.66 10.91 C-8.86 10.91 -8.06 10.91 -7.23 10.9 C-6.49 10.9 -5.75 10.89 -4.99 10.89 C-3 11 -3 11 0 12 C0 8.04 0 4.08 0 0 Z " fill="#BBC2B4" transform="translate(331,250)"/>
<path d="M0 0 C3.63 0 7.26 0 11 0 C11 0.66 11 1.32 11 2 C11.66 2.33 12.32 2.66 13 3 C13 3.66 13 4.32 13 5 C15.31 5.66 17.62 6.32 20 7 C20 7.33 20 7.66 20 8 C16.37 8 12.74 8 9 8 C9 12.62 9 17.24 9 22 C8.67 22 8.34 22 8 22 C7.97 19.56 7.95 17.13 7.94 14.69 C7.93 14 7.92 13.31 7.91 12.6 C7.9 9.45 8 7.01 9 4 C8.34 4 7.68 4 7 4 C7 3.01 7 2.02 7 1 C5.68 1 4.36 1 3 1 C2.67 1.66 2.34 2.32 2 3 C1.34 3 0.68 3 0 3 C0 2.01 0 1.02 0 0 Z " fill="#3D5647" transform="translate(173,253)"/>
<path d="M0 0 C-1.74 1.57 -1.74 1.57 -4 3 C-6.11 2.71 -6.11 2.71 -8.19 1.81 C-8.88 1.53 -9.58 1.25 -10.29 0.96 C-12 0 -12 0 -13 -2 C-15.82 -2.47 -15.82 -2.47 -19.06 -2.62 C-20.72 -2.74 -20.72 -2.74 -22.41 -2.85 C-23.26 -2.9 -24.12 -2.95 -25 -3 C-25.33 -2.01 -25.66 -1.02 -26 0 C-28.44 -0.38 -28.44 -0.38 -31 -1 C-31.33 -1.66 -31.66 -2.32 -32 -3 C-21.54 -6.28 -9.8 -4.16 0 0 Z " fill="#233C2B" transform="translate(156,116)"/>
<path d="M0 0 C1.12 3.75 1.12 3.75 0 6 C5.44 6.99 5.44 6.99 11 8 C11 8.33 11 8.66 11 9 C7.37 9 3.74 9 0 9 C0.14 10.73 0.29 12.46 0.44 14.25 C0.52 15.22 0.6 16.2 0.68 17.2 C0.95 19.56 1.35 21.72 2 24 C0.35 24 -1.3 24 -3 24 C-2.67 23.01 -2.34 22.02 -2 21 C-1.78 18.77 -1.59 16.54 -1.44 14.31 C-1.35 13.13 -1.27 11.95 -1.18 10.74 C-1.12 9.83 -1.06 8.93 -1 8 C-2.32 7.67 -3.64 7.34 -5 7 C-4.01 6.67 -3.02 6.34 -2 6 C-2.78 2.93 -2.78 2.93 -5 1 C-2 0 -2 0 0 0 Z " fill="#354D3D" transform="translate(182,276)"/>
<path d="M0 0 C0.76 0.19 1.53 0.37 2.31 0.56 C5.09 1.23 5.09 1.23 8 0 C8.33 0.99 8.66 1.98 9 3 C8.01 4.49 8.01 4.49 7 6 C6.01 6 5.02 6 4 6 C4 7.32 4 8.64 4 10 C3.01 9.67 2.02 9.34 1 9 C1 8.34 1 7.68 1 7 C-4.94 7 -10.88 7 -17 7 C-17 6.67 -17 6.34 -17 6 C-10.73 6 -4.46 6 2 6 C1.34 4.02 0.68 2.04 0 0 Z " fill="#CACEC1" transform="translate(259,355)"/>
<path d="M0 0 C6.27 0 12.54 0 19 0 C18.34 1.65 17.68 3.3 17 5 C16.76 8.58 16.76 8.58 16.88 12.31 C16.9 14.19 16.9 14.19 16.93 16.11 C16.95 17.07 16.98 18.02 17 19 C16.34 19 15.68 19 15 19 C15 15.04 15 11.08 15 7 C14.34 7 13.68 7 13 7 C12.67 7.66 12.34 8.32 12 9 C12 6.69 12 4.38 12 2 C8.04 2 4.08 2 0 2 C0 1.34 0 0.68 0 0 Z " fill="#425546" transform="translate(216,311)"/>
<path d="M0 0 C1.77 0.14 3.54 0.29 5.31 0.44 C6.3 0.52 7.28 0.6 8.3 0.68 C11 1 11 1 14 2 C14 1.34 14 0.68 14 0 C16.67 1.33 19.33 2.67 22 4 C21.34 5.32 20.68 6.64 20 8 C19.06 7.66 18.12 7.32 17.15 6.98 C15.89 6.53 14.63 6.08 13.38 5.62 C12.15 5.18 10.92 4.74 9.65 4.29 C6.44 3.16 3.23 2.06 0 1 C0 0.67 0 0.34 0 0 Z " fill="#D3DCCF" transform="translate(278,55)"/>
<path d="M0 0 C2.19 0.31 2.19 0.31 4 1 C3.67 1.99 3.34 2.98 3 4 C1.91 8.62 1.49 13.29 1 18 C-3.29 18 -7.58 18 -12 18 C-12 16.35 -12 14.7 -12 13 C-11.67 14.32 -11.34 15.64 -11 17 C-7.37 17 -3.74 17 0 17 C-0.19 14.65 -0.19 14.65 -0.38 12.25 C-0.44 11.37 -0.51 10.49 -0.59 9.58 C-1 7.01 -1.71 5.24 -3 3 C-1.75 1.44 -1.75 1.44 0 0 Z " fill="#C2C8BA" transform="translate(345,309)"/>
<path d="M0 0 C6.93 0 13.86 0 21 0 C21 0.33 21 0.66 21 1 C12.59 1.5 12.59 1.5 4 2 C3.67 3.32 3.34 4.64 3 6 C3.33 6.33 3.66 6.66 4 7 C3.81 9.94 3.81 9.94 3 13 C0.94 14.38 0.94 14.38 -1 15 C-0.83 14.38 -0.67 13.76 -0.5 13.12 C0.19 8.8 0 4.38 0 0 Z " fill="#3F5545" transform="translate(82,249)"/>
<path d="M0 0 C2.64 0 5.28 0 8 0 C8 2.31 8 4.62 8 7 C7.34 7 6.68 7 6 7 C6 6.01 6 5.02 6 4 C-3.57 4 -13.14 4 -23 4 C-23 3.67 -23 3.34 -23 3 C-15.41 2.67 -7.82 2.34 0 2 C0 1.34 0 0.68 0 0 Z " fill="#3C5042" transform="translate(153,213)"/>
<path d="M0 0 C0.99 0 1.98 0 3 0 C3.33 0.99 3.66 1.98 4 3 C3.67 3.66 3.34 4.32 3 5 C6.82 4.72 6.82 4.72 10 3 C9.01 2.67 8.02 2.34 7 2 C8.65 1.67 10.3 1.34 12 1 C12.33 2.65 12.66 4.3 13 6 C9.71 8.91 7.4 10.5 3 11 C3 9.35 3 7.7 3 6 C2.34 5.67 1.68 5.34 1 5 C1.33 4.01 1.66 3.02 2 2 C1.34 2 0.68 2 0 2 C0 1.34 0 0.68 0 0 Z " fill="#193E2B" transform="translate(284,63)"/>
<path d="M0 0 C4.95 0 9.9 0 15 0 C15 0.33 15 0.66 15 1 C9.06 1.5 9.06 1.5 3 2 C4.32 2.33 5.64 2.66 7 3 C6.67 4.32 6.34 5.64 6 7 C3.69 7.33 1.38 7.66 -1 8 C-0.67 5.36 -0.34 2.72 0 0 Z " fill="#D2D1C8" transform="translate(86,290)"/>
<path d="M0 0 C5.61 0 11.22 0 17 0 C16.67 0.66 16.34 1.32 16 2 C12.04 2 8.08 2 4 2 C3.67 10.91 3.34 19.82 3 29 C2.34 28.67 1.68 28.34 1 28 C1.01 27.26 1.01 26.52 1.02 25.75 C1.04 22.4 1.05 19.04 1.06 15.69 C1.07 14.52 1.08 13.35 1.09 12.15 C1.09 11.03 1.09 9.91 1.1 8.76 C1.1 7.73 1.11 6.7 1.11 5.64 C1.12 2.89 1.12 2.89 0 0 Z " fill="#3B4E3F" transform="translate(271,250)"/>
<path d="M0 0 C0.66 0 1.32 0 2 0 C2.66 1.98 3.32 3.96 4 6 C3.34 6 2.68 6 2 6 C2.33 6.99 2.66 7.98 3 9 C1.02 9.99 1.02 9.99 -1 11 C-1.33 10.34 -1.66 9.68 -2 9 C-4.55 8.69 -7 8.49 -9.56 8.38 C-10.27 8.34 -10.98 8.3 -11.72 8.26 C-13.48 8.16 -15.24 8.08 -17 8 C-16.67 7.01 -16.34 6.02 -16 5 C-16 5.66 -16 6.32 -16 7 C-8.08 6.5 -8.08 6.5 0 6 C-0.66 4.68 -1.32 3.36 -2 2 C-1.34 1.34 -0.68 0.68 0 0 Z " fill="#C7CCBF" transform="translate(256,294)"/>
<path d="M0 0 C0.66 0.33 1.32 0.66 2 1 C2 2.32 2 3.64 2 5 C4.44 6.72 4.44 6.72 7 8 C7 8.33 7 8.66 7 9 C9.31 9.33 11.62 9.66 14 10 C14 10.33 14 10.66 14 11 C12.25 11.05 10.5 11.09 8.75 11.12 C7.78 11.15 6.8 11.17 5.8 11.2 C2.94 11 1.35 10.63 -1 9 C-1.88 6.06 -1.88 6.06 -2 3 C-1.34 2.01 -0.68 1.02 0 0 Z " fill="#D6D6CA" transform="translate(290,91)"/>
<path d="M0 0 C4.85 0.59 8.61 1.98 13 4 C13 4.33 13 4.66 13 5 C10.69 4.67 8.38 4.34 6 4 C6 4.66 6 5.32 6 6 C3.29 7.35 0.99 7.07 -2 7 C-1.01 6.67 -0.02 6.34 1 6 C1 5.01 1 4.02 1 3 C0.34 3 -0.32 3 -1 3 C-0.67 2.01 -0.34 1.02 0 0 Z " fill="#EBF1E4" transform="translate(262,61)"/>
<path d="M0 0 C2.64 0.33 5.28 0.66 8 1 C5.43 3.57 3.52 3.54 0 4 C1.65 4.33 3.3 4.66 5 5 C5 5.33 5 5.66 5 6 C0.05 6 -4.9 6 -10 6 C-9.67 5.01 -9.34 4.02 -9 3 C-6.93 2.27 -6.93 2.27 -4.44 1.81 C-3.61 1.65 -2.78 1.5 -1.93 1.33 C-1.3 1.22 -0.66 1.11 0 1 C0 0.67 0 0.34 0 0 Z " fill="#2C4637" transform="translate(189,345)"/>
<path d="M0 0 C5.94 0 11.88 0 18 0 C18.99 1.98 19.98 3.96 21 6 C18.69 6.33 16.38 6.66 14 7 C12.88 3.25 12.88 3.25 14 1 C9.38 1 4.76 1 0 1 C0 0.67 0 0.34 0 0 Z " fill="#304A39" transform="translate(110,311)"/>
<path d="M0 0 C3 3.75 3 3.75 3 6 C7.95 6 12.9 6 18 6 C18 6.33 18 6.66 18 7 C15.4 7.19 12.79 7.38 10.19 7.56 C9.45 7.62 8.71 7.67 7.95 7.73 C4.63 7.96 2.19 8.06 -1 7 C-1.33 7.66 -1.66 8.32 -2 9 C-3.94 8.69 -3.94 8.69 -6 8 C-6.33 7.01 -6.66 6.02 -7 5 C-6.34 5 -5.68 5 -5 5 C-4.67 5.33 -4.34 5.66 -4 6 C-3.01 5.67 -2.02 5.34 -1 5 C-0.67 3.35 -0.34 1.7 0 0 Z " fill="#CDD1C5" transform="translate(267,295)"/>
<path d="M0 0 C1.65 0 3.3 0 5 0 C5 0.99 5 1.98 5 3 C5.66 3.33 6.32 3.66 7 4 C6.67 4.66 6.34 5.32 6 6 C11.94 6 17.88 6 24 6 C24 6.33 24 6.66 24 7 C20.88 7.03 17.75 7.05 14.62 7.06 C13.74 7.07 12.85 7.08 11.93 7.09 C10.65 7.09 10.65 7.09 9.35 7.1 C8.17 7.11 8.17 7.11 6.97 7.11 C5 7 5 7 3 6 C2.34 6.99 1.68 7.98 1 9 C0.67 6.03 0.34 3.06 0 0 Z " fill="#C9CCC0" transform="translate(208,295)"/>
<path d="M0 0 C4.49 -0.21 7.81 0.42 12 2 C12.99 2.33 13.98 2.66 15 3 C15 2.01 15 1.02 15 0 C15.99 0.33 16.98 0.66 18 1 C17.67 2.65 17.34 4.3 17 6 C13.14 7.29 12.11 6.41 8.5 4.69 C7.54 4.24 6.58 3.79 5.59 3.32 C3 2 3 2 0 0 Z " fill="#D8DBCF" transform="translate(262,48)"/>
<path d="M0 0 C0.66 0.99 1.32 1.98 2 3 C2.33 2.01 2.66 1.02 3 0 C3.33 0 3.66 0 4 0 C4.21 3.05 4.28 5.36 3.06 8.19 C-0.28 11.12 -3.91 10.42 -8.19 10.25 C-9.03 10.23 -9.88 10.21 -10.75 10.2 C-12.83 10.15 -14.92 10.08 -17 10 C-17 9.67 -17 9.34 -17 9 C-11.39 9 -5.78 9 0 9 C-0.66 7.35 -1.32 5.7 -2 4 C-1.12 1.69 -1.12 1.69 0 0 Z " fill="#C6C9BD" transform="translate(234,352)"/>
<path d="M0 0 C1.98 0 3.96 0 6 0 C6.33 0.99 6.66 1.98 7 3 C6.34 3 5.68 3 5 3 C5 3.66 5 4.32 5 5 C8.3 5.33 11.6 5.66 15 6 C15 6.33 15 6.66 15 7 C10.05 7 5.1 7 0 7 C0 4.69 0 2.38 0 0 Z " fill="#EDEEE4" transform="translate(281,323)"/>
<path d="M0 0 C5.63 -0.24 10.55 0.61 16 2 C16 3.65 16 5.3 16 7 C10.53 5.25 5.24 3.34 0 1 C0 0.67 0 0.34 0 0 Z " fill="#D6E0D3" transform="translate(239,79)"/>
<path d="M0 0 C0.33 0 0.66 0 1 0 C1.06 0.76 1.12 1.52 1.18 2.3 C1.27 3.29 1.35 4.29 1.44 5.31 C1.52 6.3 1.6 7.28 1.68 8.3 C1.92 11.09 1.92 11.09 3 14 C1.02 14 -0.96 14 -3 14 C-4.12 7.38 -4.12 7.38 -3 4 C-3.66 3.34 -4.32 2.68 -5 2 C-3.68 2 -2.36 2 -1 2 C-1 4.64 -1 7.28 -1 10 C-0.67 6.7 -0.34 3.4 0 0 Z " fill="#314738" transform="translate(231,346)"/>
<path d="M0 0 C3.96 0 7.92 0 12 0 C12.33 1.65 12.66 3.3 13 5 C16.63 5 20.26 5 24 5 C24.33 3.68 24.66 2.36 25 1 C25 2.65 25 4.3 25 6 C20.71 6 16.42 6 12 6 C11.67 5.01 11.34 4.02 11 3 C5.52 2.26 5.52 2.26 0 2 C0 1.34 0 0.68 0 0 Z " fill="#ADB6A9" transform="translate(78,321)"/>
<path d="M0 0 C0.66 0.66 1.32 1.32 2 2 C1.62 4.62 1.62 4.62 1 7 C0.34 7 -0.32 7 -1 7 C-0.67 7.99 -0.34 8.98 0 10 C-0.99 10.33 -1.98 10.66 -3 11 C-2.67 9.35 -2.34 7.7 -2 6 C-6.95 5.67 -11.9 5.34 -17 5 C-16.67 4.34 -16.34 3.68 -16 3 C-11.05 3 -6.1 3 -1 3 C-0.67 2.01 -0.34 1.02 0 0 Z " fill="#C2C5B8" transform="translate(127,357)"/>
<path d="M0 0 C1.65 0 3.3 0 5 0 C4.67 0.66 4.34 1.32 4 2 C2.89 4.79 2.89 4.79 3 7 C3.66 7.33 4.32 7.66 5 8 C4.01 8.33 3.02 8.66 2 9 C1.01 8.01 0.02 7.02 -1 6 C-0.34 5.01 0.32 4.02 1 3 C-4.61 3 -10.22 3 -16 3 C-16 2.67 -16 2.34 -16 2 C-8.08 1.5 -8.08 1.5 0 1 C0 0.67 0 0.34 0 0 Z " fill="#D7DACE" transform="translate(287,247)"/>
<path d="M0 0 C0.99 0.33 1.98 0.66 3 1 C2.87 1.59 2.73 2.18 2.6 2.79 C1.69 6.85 0.79 10.91 0 15 C-0.66 14.67 -1.32 14.34 -2 14 C-2.05 12.42 -2.09 10.83 -2.12 9.25 C-2.15 8.37 -2.17 7.49 -2.2 6.58 C-1.99 3.89 -1.37 2.3 0 0 Z " fill="#D4D8CD" transform="translate(125,154)"/>
<path d="M0 0 C5.94 0 11.88 0 18 0 C18 0.33 18 0.66 18 1 C10.08 1.5 10.08 1.5 2 2 C2 3.98 2 5.96 2 8 C0.35 8.66 -1.3 9.32 -3 10 C-2.5 9.28 -2.01 8.56 -1.5 7.81 C0.39 4.8 0.39 4.8 0 0 Z " fill="#425547" transform="translate(242,311)"/>
<path d="M0 0 C1.46 0.4 2.92 0.82 4.38 1.25 C5.19 1.48 6 1.71 6.84 1.95 C9 3 9 3 11 7 C7.37 6.34 3.74 5.68 0 5 C0 3.35 0 1.7 0 0 Z " fill="#374634" transform="translate(306,102)"/>
<path d="M0 0 C1.5 1.25 1.5 1.25 3 3 C3 4.32 3 5.64 3 7 C2.01 7.5 2.01 7.5 1 8 C0.31 10.81 0.31 10.81 -0.12 14.06 C-0.29 15.17 -0.46 16.27 -0.63 17.41 C-0.75 18.26 -0.88 19.12 -1 20 C-1.33 20 -1.66 20 -2 20 C-2.21 12.96 -2.08 6.76 0 0 Z " fill="#405A47" transform="translate(169,76)"/>
<path d="M0 0 C2.97 0 5.94 0 9 0 C8.67 1.65 8.34 3.3 8 5 C5.03 5 2.06 5 -1 5 C-0.01 4.67 0.98 4.34 2 4 C2 3.01 2 2.02 2 1 C1.34 0.67 0.68 0.34 0 0 Z " fill="#F0EBE1" transform="translate(288,323)"/>
<path d="M0 0 C0.33 0 0.66 0 1 0 C1.66 2.31 2.32 4.62 3 7 C-3.27 7 -9.54 7 -16 7 C-16 6.67 -16 6.34 -16 6 C-9.56 5.51 -9.56 5.51 -3 5 C-3.99 4.34 -4.98 3.68 -6 3 C-4.35 3 -2.7 3 -1 3 C-0.67 2.01 -0.34 1.02 0 0 Z " fill="#D0D7C9" transform="translate(227,35)"/>
<path d="M0 0 C0.33 1.32 0.66 2.64 1 4 C0.01 4 -0.98 4 -2 4 C-1.67 4.99 -1.34 5.98 -1 7 C-1.99 7.33 -2.98 7.66 -4 8 C-4 6.02 -4 4.04 -4 2 C-9.61 2 -15.22 2 -21 2 C-21 1.67 -21 1.34 -21 1 C-14.33 1 -7.67 1 -1 1 C-0.67 0.67 -0.34 0.34 0 0 Z " fill="#C2C4B8" transform="translate(183,360)"/>
<path d="M0 0 C1.17 0.95 2.34 1.91 3.5 2.88 C4.15 3.41 4.8 3.94 5.47 4.49 C6.23 5.24 6.23 5.24 7 6 C7 6.66 7 7.32 7 8 C6.22 7.77 6.22 7.77 5.42 7.54 C2.37 6.86 -0.63 6.66 -3.75 6.44 C-4.92 6.35 -6.09 6.27 -7.3 6.18 C-8.19 6.12 -9.08 6.06 -10 6 C-10 5.67 -10 5.34 -10 5 C-6.7 4.67 -3.4 4.34 0 4 C-0.33 3.34 -0.66 2.68 -1 2 C-0.67 1.34 -0.34 0.68 0 0 Z " fill="#AAB8AB" transform="translate(150,154)"/>
<path d="M0 0 C2.31 0.66 4.62 1.32 7 2 C7.33 3.32 7.66 4.64 8 6 C4.62 5.69 4.62 5.69 1 5 C0.34 4.01 -0.32 3.02 -1 2 C-0.67 1.34 -0.34 0.68 0 0 Z " fill="#CFDCCD" transform="translate(270,98)"/>
<path d="M0 0 C0.75 0 1.49 0.01 2.26 0.01 C4.09 0.03 5.92 0.04 7.75 0.06 C7.75 0.39 7.75 0.72 7.75 1.06 C3.46 1.06 -0.83 1.06 -5.25 1.06 C-5.58 2.05 -5.91 3.04 -6.25 4.06 C-8.69 3.69 -8.69 3.69 -11.25 3.06 C-11.58 2.4 -11.91 1.74 -12.25 1.06 C-8.16 -0.09 -4.22 -0.05 0 0 Z " fill="#4B6554" transform="translate(136.25,111.9375)"/>
<path d="M0 0 C3.07 4.01 4.13 6.04 4.06 11.12 C4.05 12.04 4.04 12.95 4.04 13.88 C4.02 14.58 4.01 15.28 4 16 C3.67 16 3.34 16 3 16 C2.91 14.11 2.91 14.11 2.81 12.19 C2.61 10 2.61 10 2 8 C-0.41 5.94 -0.41 5.94 -3 5 C-2.67 4.34 -2.34 3.68 -2 3 C-1.34 3.33 -0.68 3.66 0 4 C0 2.68 0 1.36 0 0 Z " fill="#3C5242" transform="translate(185,204)"/>
<path d="M0 0 C1.5 1.38 1.5 1.38 3 3 C3 3.66 3 4.32 3 5 C-2.94 5 -8.88 5 -15 5 C-14.67 4.34 -14.34 3.68 -14 3 C-12.74 3.05 -12.74 3.05 -11.45 3.11 C-9.8 3.15 -9.8 3.15 -8.12 3.19 C-7.03 3.22 -5.94 3.26 -4.82 3.29 C-3.42 3.15 -3.42 3.15 -2 3 C-1.34 2.01 -0.68 1.02 0 0 Z " fill="#324233" transform="translate(84,296)"/>
<path d="M0 0 C0.66 0.66 1.32 1.32 2 2 C0.69 3.17 -0.62 4.34 -1.94 5.5 C-2.67 6.15 -3.4 6.8 -4.15 7.47 C-6 9 -6 9 -7 9 C-7 7.35 -7 5.7 -7 4 C-6.34 4 -5.68 4 -5 4 C-5 3.34 -5 2.68 -5 2 C-3.35 1.34 -1.7 0.68 0 0 Z " fill="#D6E0D2" transform="translate(185,51)"/>
<path d="M0 0 C3.96 0 7.92 0 12 0 C12 1.65 12 3.3 12 5 C11.01 5 10.02 5 9 5 C8.34 5.66 7.68 6.32 7 7 C6.67 6.01 6.34 5.02 6 4 C6.33 3.34 6.66 2.68 7 2 C8.32 1.67 9.64 1.34 11 1 C7.37 1 3.74 1 0 1 C0 0.67 0 0.34 0 0 Z " fill="#334B3B" transform="translate(66,345)"/>
<path d="M0 0 C0 0.33 0 0.66 0 1 C-2.05 1.23 -4.1 1.46 -6.15 1.68 C-8.01 1.82 -8.01 1.82 -9 3 C-11.33 3.04 -13.67 3.04 -16 3 C-16.33 2.34 -16.66 1.68 -17 1 C-11.33 -0.23 -5.76 -0.09 0 0 Z " fill="#384D3D" transform="translate(91,310)"/>
<path d="M0 0 C2.97 0.5 2.97 0.5 6 1 C5.67 5.62 5.34 10.24 5 15 C4.67 15 4.34 15 4 15 C4 11.37 4 7.74 4 4 C3.34 4 2.68 4 2 4 C2 3.34 2 2.68 2 2 C1.34 2 0.68 2 0 2 C0 1.34 0 0.68 0 0 Z " fill="#C5CEC1" transform="translate(304,315)"/>
<path d="M0 0 C2.97 0 5.94 0 9 0 C10.33 2.67 9.67 4.17 9 7 C8.44 6.38 7.89 5.76 7.31 5.12 C4.93 2.94 3.04 2.01 0 1 C0 0.67 0 0.34 0 0 Z " fill="#404E42" transform="translate(270,97)"/>
<path d="M0 0 C2.13 3.19 2.5 5.27 3 9 C2.01 9 1.02 9 0 9 C0 7.68 0 6.36 0 5 C-0.99 5 -1.98 5 -3 5 C-3 3 -3 3 -1.5 1.38 C-1 0.92 -0.51 0.47 0 0 Z " fill="#2D4333" transform="translate(112,282)"/>
<path d="M0 0 C1.32 0.66 2.64 1.32 4 2 C3.67 3.32 3.34 4.64 3 6 C2.34 5.34 1.68 4.68 1 4 C0.34 6.31 -0.32 8.62 -1 11 C-1.66 11 -2.32 11 -3 11 C-2.69 9.54 -2.38 8.08 -2.06 6.62 C-1.89 5.81 -1.71 5 -1.54 4.16 C-1 2 -1 2 0 0 Z " fill="#37503F" transform="translate(77,276)"/>
<path d="M0 0 C0.66 0 1.32 0 2 0 C1.53 4.25 -0.97 6.2 -4 9 C-4.33 8.01 -4.66 7.02 -5 6 C-5.33 5.34 -5.66 4.68 -6 4 C-4.02 3.67 -2.04 3.34 0 3 C0 2.01 0 1.02 0 0 Z " fill="#2D4231" transform="translate(186,221)"/>
<path d="M0 0 C1.32 0.99 2.64 1.98 4 3 C1.75 5.06 1.75 5.06 -1 7 C-3.31 6.75 -3.31 6.75 -5 6 C-3.35 4.02 -1.7 2.04 0 0 Z " fill="#D6D9CC" transform="translate(293,207)"/>
<path d="M0 0 C1.65 0 3.3 0 5 0 C4.34 1.32 3.68 2.64 3 4 C-0.63 3.67 -4.26 3.34 -8 3 C-8 2.67 -8 2.34 -8 2 C-5.36 2 -2.72 2 0 2 C0 1.34 0 0.68 0 0 Z " fill="#364F3F" transform="translate(331,318)"/>
<path d="M0 0 C0.66 0 1.32 0 2 0 C2.12 0.95 2.25 1.9 2.38 2.88 C2.72 6.09 2.72 6.09 5 8 C2.69 8 0.38 8 -2 8 C-1.67 7.42 -1.34 6.85 -1 6.25 C0.27 3.8 0.27 3.8 0 0 Z " fill="#EAECE2" transform="translate(93,272)"/>
<path d="M0 0 C3.72 1.21 7.38 2.51 11 4 C11 4.33 11 4.66 11 5 C8.69 4.67 6.38 4.34 4 4 C3.67 4.66 3.34 5.32 3 6 C3 5.01 3 4.02 3 3 C2.01 2.67 1.02 2.34 0 2 C0 1.34 0 0.68 0 0 Z " fill="#D4E3D4" transform="translate(264,61)"/>
<path d="M0 0 C1.62 -0.05 3.25 -0.09 4.88 -0.12 C5.78 -0.15 6.68 -0.17 7.62 -0.2 C10 0 10 0 12 2 C7.48 3.37 4.41 2.47 0 1 C0 0.67 0 0.34 0 0 Z " fill="#B0C3B5" transform="translate(248,58)"/>
<path d="M0 0 C1.9 2.85 2.46 4.42 3.12 7.69 C3.29 8.5 3.46 9.3 3.63 10.14 C3.75 10.75 3.88 11.37 4 12 C2.68 11.34 1.36 10.68 0 10 C0 6.7 0 3.4 0 0 Z " fill="#314235" transform="translate(197,317)"/>
<path d="M0 0 C2.31 1.98 4.62 3.96 7 6 C6.34 6.66 5.68 7.32 5 8 C2.53 7.01 2.53 7.01 0 6 C0.33 5.34 0.66 4.68 1 4 C0.67 2.68 0.34 1.36 0 0 Z " fill="#D5DDCE" transform="translate(171,182)"/>
<path d="M0 0 C1.98 0 3.96 0 6 0 C6 0.66 6 1.32 6 2 C6.66 2 7.32 2 8 2 C8 2.66 8 3.32 8 4 C7.01 4.33 6.02 4.66 5 5 C3.35 3.35 1.7 1.7 0 0 Z " fill="#304536" transform="translate(182,125)"/>
<path d="M0 0 C0.33 0.66 0.66 1.32 1 2 C1.66 2.14 2.32 2.29 3 2.44 C3.99 2.72 3.99 2.72 5 3 C5.33 3.99 5.66 4.98 6 6 C2.42 6 0.95 4.91 -2 3 C-1.34 2.67 -0.68 2.34 0 2 C0 1.34 0 0.68 0 0 Z " fill="#D3DCCF" transform="translate(216,99)"/>
<path d="M0 0 C2.64 0 5.28 0 8 0 C8.33 0.66 8.66 1.32 9 2 C3.25 3 3.25 3 1 3 C0.67 2.01 0.34 1.02 0 0 Z " fill="#2F4433" transform="translate(322,310)"/>
<path d="M0 0 C0 0.33 0 0.66 0 1 C-3.63 1 -7.26 1 -11 1 C-6.47 -2.02 -4.85 -2.23 0 0 Z " fill="#D0DDD1" transform="translate(251,189)"/>
<path d="M0 0 C1.65 1.65 3.3 3.3 5 5 C4.01 5.5 4.01 5.5 3 6 C2.67 6.66 2.34 7.32 2 8 C0.44 6.81 0.44 6.81 -1 5 C-0.69 2.31 -0.69 2.31 0 0 Z " fill="#304B3A" transform="translate(194,149)"/>
<path d="M0 0 C2.64 0.33 5.28 0.66 8 1 C7.67 1.99 7.34 2.98 7 4 C4.69 3.67 2.38 3.34 0 3 C0 2.01 0 1.02 0 0 Z " fill="#C7D8C8" transform="translate(302,106)"/>
<path d="M0 0 C0.99 0 1.98 0 3 0 C3.66 1.32 4.32 2.64 5 4 C4.01 4 3.02 4 2 4 C2 4.66 2 5.32 2 6 C1.34 6 0.68 6 0 6 C0 4.02 0 2.04 0 0 Z " fill="#ECEADE" transform="translate(281,341)"/>
<path d="M0 0 C-0.99 1.49 -0.99 1.49 -2 3 C-2.56 2.83 -3.11 2.67 -3.69 2.5 C-6.19 1.96 -8.45 1.93 -11 2 C-7.06 -0.62 -4.54 -1.51 0 0 Z " fill="#C5CABE" transform="translate(204,283)"/>
<path d="M0 0 C2.25 2.05 3 3.01 4 6 C2.02 6.99 2.02 6.99 0 8 C0 5.36 0 2.72 0 0 Z " fill="#D4DFD1" transform="translate(255,274)"/>
<path d="M0 0 C0.99 0 1.98 0 3 0 C3 1.65 3 3.3 3 5 C2.01 5.33 1.02 5.66 0 6 C-1.12 2.25 -1.12 2.25 0 0 Z " fill="#263E2B" transform="translate(281,82)"/>
<path d="M0 0 C3.38 -0.12 3.38 -0.12 7 0 C7.66 0.66 8.32 1.32 9 2 C6.19 2.69 6.19 2.69 3 3 C1.12 1.56 1.12 1.56 0 0 Z " fill="#B7CDBD" transform="translate(239,79)"/>
<path d="M0 0 C0.93 3.01 1.04 3.87 0 7 C0.66 7.33 1.32 7.66 2 8 C1.01 8.99 0.02 9.98 -1 11 C-2.42 6.75 -1.19 4.28 0 0 Z " fill="#3D5644" transform="translate(167,346)"/>
<path d="M0 0 C4.45 0.99 4.45 0.99 9 2 C7 2.67 5 3.33 3 4 C2.01 4.5 2.01 4.5 1 5 C0.67 3.35 0.34 1.7 0 0 Z " fill="#364F3E" transform="translate(82,329)"/>
<path d="M0 0 C0.66 0.33 1.32 0.66 2 1 C2 1.66 2 2.32 2 3 C2.66 3 3.32 3 4 3 C3.67 3.99 3.34 4.98 3 6 C0.94 6.69 0.94 6.69 -1 7 C-0.67 4.69 -0.34 2.38 0 0 Z " fill="#2A4838" transform="translate(175,319)"/>
<path d="M0 0 C2.97 0.5 2.97 0.5 6 1 C4.35 2.65 2.7 4.3 1 6 C0 3 0 3 0 0 Z " fill="#D4DBCF" transform="translate(130,161)"/>
<path d="M0 0 C2.31 0.33 4.62 0.66 7 1 C4.64 3.36 3.22 3.49 0 4 C0 2.68 0 1.36 0 0 Z " fill="#698473" transform="translate(287,70)"/>
<path d="M0 0 C0.66 0.66 1.32 1.32 2 2 C1.62 5.62 1.62 5.62 1 9 C-0.75 6.38 -1.39 4.96 -2 2 C-1.34 2 -0.68 2 0 2 C0 1.34 0 0.68 0 0 Z " fill="#CCD1C7" transform="translate(207,252)"/>
<path d="M0 0 C1.32 0 2.64 0 4 0 C4 0.66 4 1.32 4 2 C4.66 2 5.32 2 6 2 C6.33 2.99 6.66 3.98 7 5 C6.01 5 5.02 5 4 5 C1.81 2.5 1.81 2.5 0 0 Z " fill="#2D4432" transform="translate(98,198)"/>
<path d="M0 0 C0.33 0 0.66 0 1 0 C1.33 2.97 1.66 5.94 2 9 C0.35 8.01 -1.3 7.02 -3 6 C-2.34 5.67 -1.68 5.34 -1 5 C-0.34 2.47 -0.34 2.47 0 0 Z " fill="#BFD1C1" transform="translate(131,170)"/>
<path d="M0 0 C0.66 0.33 1.32 0.66 2 1 C2 1.66 2 2.32 2 3 C0.37 4.38 -1.29 5.72 -3 7 C-3.19 4.62 -3.19 4.62 -3 2 C-2.01 1.34 -1.02 0.68 0 0 Z " fill="#C9CFC4" transform="translate(143,169)"/>
<path d="M0 0 C2.31 0 4.62 0 7 0 C7.33 0.66 7.66 1.32 8 2 C5.36 2.33 2.72 2.66 0 3 C0 2.01 0 1.02 0 0 Z " fill="#405342" transform="translate(142,167)"/>
<path d="M0 0 C2.06 0.44 2.06 0.44 4 1 C4 1.66 4 2.32 4 3 C4.99 2.67 5.98 2.34 7 2 C7 2.99 7 3.98 7 5 C1.25 3.25 1.25 3.25 -1 1 C-0.67 0.67 -0.34 0.34 0 0 Z " fill="#CCD8CD" transform="translate(157,115)"/>
<path d="M0 0 C2.31 0.33 4.62 0.66 7 1 C7 1.33 7 1.66 7 2 C1.38 4 1.38 4 -2 4 C-1.34 2.68 -0.68 1.36 0 0 Z " fill="#2E4937" transform="translate(282,106)"/>
<path d="M0 0 C0.99 0.33 1.98 0.66 3 1 C3 1.66 3 2.32 3 3 C-0.47 4.48 -0.47 4.48 -4 6 C-2.85 3.53 -1.95 1.95 0 0 Z " fill="#D1D7C9" transform="translate(203,77)"/>
</svg>
