<?xml version="1.0" encoding="UTF-8"?>
<!-- Generator: https://ezgif.com/png-to-svg -->
<svg version="1.1" xmlns="http://www.w3.org/2000/svg" width="100" height="100">
<path d="M0 0 C1.57 0.74 3.11 1.54 4.62 2.38 C14.01 7.14 23.34 8.44 33.71 9.35 C39.91 9.91 39.91 9.91 41 11 C41.14 13.43 41.21 15.83 41.24 18.26 C41.25 19 41.25 19.75 41.26 20.51 C41.28 22.09 41.29 23.68 41.3 25.26 C41.31 26.86 41.33 28.45 41.36 30.05 C41.72 49.56 37.04 65.09 23.4 79.7 C16.5 86.78 7.47 94.84 -2 98 C-14.28 96.89 -27.32 83.92 -35 75 C-48.98 56.41 -50.95 33.48 -48 11 C-46.12 9.12 -43.34 9.62 -40.82 9.41 C-28.64 8.37 -17.89 6.09 -7.22 -0.14 C-4.35 -1.25 -2.91 -0.91 0 0 Z " fill="#4F657D" transform="translate(54,1)"/>
<path d="M0 0 C3.96 0 7.92 0 12 0 C13.55 4.32 15.1 8.65 16.64 12.97 C17.17 14.44 17.7 15.91 18.22 17.38 C18.99 19.49 19.74 21.61 20.5 23.73 C20.73 24.38 20.97 25.04 21.21 25.71 C22.42 29.11 23.4 32.43 24 36 C21.03 36 18.06 36 15 36 C14.34 33.69 13.68 31.38 13 29 C8.05 28.67 3.1 28.34 -2 28 C-2.33 30.31 -2.66 32.62 -3 35 C-4 36 -4 36 -5.85 36.1 C-7.9 36.07 -9.95 36.03 -12 36 C-11.74 34.67 -11.46 33.33 -11.19 32 C-11.04 31.26 -10.89 30.52 -10.73 29.75 C-9.75 26.06 -8.37 22.56 -7 19 C-6.39 17.36 -5.78 15.71 -5.18 14.06 C-4.87 13.23 -4.56 12.4 -4.25 11.54 C-3.94 10.7 -3.63 9.86 -3.31 9 C-2.99 8.13 -2.67 7.26 -2.34 6.36 C-1.56 4.24 -0.78 2.12 0 0 Z " fill="#D0D9E2" transform="translate(44,29)"/>
<path d="M0 0 C0.66 0 1.32 0 2 0 C2.51 1.6 3 3.21 3.5 4.81 C3.78 5.71 4.06 6.6 4.34 7.52 C5 10 5 10 5 13 C2.03 13 -0.94 13 -4 13 C-3.52 11.21 -3.04 9.42 -2.56 7.62 C-2.3 6.63 -2.03 5.63 -1.75 4.6 C-1 2 -1 2 0 0 Z " fill="#536980" transform="translate(49,38)"/>
</svg>
