<?xml version="1.0" encoding="UTF-8"?>
<!-- Generator: https://ezgif.com/png-to-svg -->
<svg version="1.1" xmlns="http://www.w3.org/2000/svg" width="100" height="100">
<path d="M0 0 C1.57 0.74 3.11 1.54 4.62 2.38 C14.01 7.14 23.34 8.44 33.71 9.35 C39.91 9.91 39.91 9.91 41 11 C41.14 13.43 41.21 15.83 41.24 18.26 C41.25 19 41.25 19.75 41.26 20.51 C41.28 22.09 41.29 23.68 41.3 25.26 C41.31 26.86 41.33 28.45 41.36 30.05 C41.72 49.56 37.04 65.09 23.4 79.7 C16.5 86.78 7.47 94.84 -2 98 C-14.28 96.89 -27.32 83.92 -35 75 C-48.98 56.41 -50.95 33.48 -48 11 C-46.12 9.12 -43.34 9.62 -40.82 9.41 C-28.64 8.37 -17.89 6.09 -7.22 -0.14 C-4.35 -1.25 -2.91 -0.91 0 0 Z " fill="#4F657C" transform="translate(54,1)"/>
<path d="M0 0 C5.51 -0.15 5.51 -0.15 11.12 -0.31 C12.27 -0.36 13.42 -0.4 14.6 -0.45 C23.05 -0.57 23.05 -0.57 26.71 2.26 C29.77 5.92 29.77 5.92 29.56 9.12 C29 13 29 13 27.5 15 C27 15.33 26.51 15.66 26 16 C26.83 16.85 27.65 17.69 28.5 18.56 C30.6 21.11 31.02 22.09 31.62 25.5 C30.8 30.12 29.29 31.71 26 35 C23.39 36.3 21.47 36.11 18.55 36.1 C17.59 36.1 16.62 36.09 15.62 36.09 C14.38 36.08 13.15 36.07 11.88 36.06 C6 36.03 6 36.03 0 36 C0 24.12 0 12.24 0 0 Z " fill="#D3DBE4" transform="translate(35,29)"/>
<path d="M0 0 C1.94 -0.08 3.87 -0.14 5.81 -0.19 C6.89 -0.22 7.97 -0.26 9.08 -0.29 C12 0 12 0 13.9 1.35 C15 3 15 3 14.81 5.56 C14 8 14 8 12 10 C9.18 10.2 9.18 10.2 5.88 10.12 C4.78 10.11 3.68 10.09 2.55 10.07 C1.71 10.05 0.87 10.02 0 10 C0 6.7 0 3.4 0 0 Z " fill="#566B82" transform="translate(43,49)"/>
<path d="M0 0 C1.6 -0.03 3.21 -0.05 4.81 -0.06 C5.71 -0.07 6.6 -0.09 7.52 -0.1 C10 0 10 0 13 1 C13 2.98 13 4.96 13 7 C9.99 8 7.96 8.1 4.81 8.06 C3.46 8.05 3.46 8.05 2.08 8.04 C1.39 8.02 0.71 8.01 0 8 C0 5.36 0 2.72 0 0 Z " fill="#546981" transform="translate(43,35)"/>
</svg>
