<?xml version="1.0" encoding="UTF-8"?>
<!-- Generator: https://ezgif.com/webp-to-svg -->
<svg version="1.1" xmlns="http://www.w3.org/2000/svg" width="100" height="100">
<path d="M0 0 C1.57 0.74 3.11 1.54 4.62 2.38 C14.01 7.14 23.34 8.44 33.71 9.35 C39.91 9.91 39.91 9.91 41 11 C41.14 13.43 41.21 15.83 41.24 18.26 C41.25 19 41.25 19.75 41.26 20.51 C41.28 22.09 41.29 23.68 41.3 25.26 C41.31 26.86 41.33 28.45 41.36 30.05 C41.72 49.56 37.04 65.09 23.4 79.7 C16.5 86.78 7.47 94.84 -2 98 C-14.28 96.89 -27.32 83.92 -35 75 C-48.98 56.41 -50.95 33.48 -48 11 C-46.12 9.12 -43.34 9.62 -40.82 9.41 C-28.64 8.37 -17.89 6.09 -7.22 -0.14 C-4.35 -1.25 -2.91 -0.91 0 0 Z " fill="#4F657D" transform="translate(54,1)"/>
<path d="M0 0 C3.8 2.02 6.19 4.3 7.82 8.28 C7.49 9.27 7.16 10.26 6.82 11.28 C3.51 11.53 3.51 11.53 -0.18 11.28 C-1.2 9.96 -2.2 8.63 -3.18 7.28 C-6.54 6.03 -6.54 6.03 -10.18 6.28 C-13.4 7.75 -13.4 7.75 -15.18 11.28 C-16.12 17.28 -16.33 22.4 -13.11 27.66 C-10.21 29.55 -10.21 29.55 -6.55 29.47 C-2.92 28.58 -2.92 28.58 -1.24 25.22 C-0.71 23.76 -0.71 23.76 -0.18 22.28 C2.46 22.61 5.1 22.94 7.82 23.28 C7.01 27.69 5.21 31.07 1.82 34.03 C-2.83 36.94 -7.86 36.89 -13.18 36.28 C-18.17 33.65 -22.06 30.58 -24.18 25.28 C-24.51 21.82 -24.51 21.82 -24.55 17.91 C-24.58 16.62 -24.61 15.33 -24.64 14.01 C-23.96 8.55 -21.61 5.54 -17.55 1.97 C-12.4 -1.69 -6.02 -1.99 0 0 Z " fill="#D1DAE2" transform="translate(58.17578125,28.71875)"/>
</svg>
