<?xml version="1.0" encoding="UTF-8"?>
<!-- Generator: https://ezgif.com/png-to-svg -->
<svg version="1.1" xmlns="http://www.w3.org/2000/svg" width="100" height="100">
<path d="M0 0 C1.57 0.74 3.11 1.54 4.62 2.38 C14.01 7.14 23.34 8.44 33.71 9.35 C39.91 9.91 39.91 9.91 41 11 C41.14 13.43 41.21 15.83 41.24 18.26 C41.25 19 41.25 19.75 41.26 20.51 C41.28 22.09 41.29 23.68 41.3 25.26 C41.31 26.86 41.33 28.45 41.36 30.05 C41.72 49.56 37.04 65.09 23.4 79.7 C16.5 86.78 7.47 94.84 -2 98 C-14.28 96.89 -27.32 83.92 -35 75 C-48.98 56.41 -50.95 33.48 -48 11 C-46.12 9.12 -43.34 9.62 -40.82 9.41 C-28.64 8.37 -17.89 6.09 -7.22 -0.14 C-4.35 -1.25 -2.91 -0.91 0 0 Z " fill="#4E647C" transform="translate(54,1)"/>
<path d="M0 0 C3.34 -0.08 6.68 -0.16 10.12 -0.25 C11.17 -0.29 12.21 -0.32 13.28 -0.36 C19.04 -0.43 22.49 0.04 27 4 C31.95 10.12 31.79 16.35 31 24 C29.85 29.1 27.39 32.15 23 35 C20.12 35.96 18.32 36.12 15.33 36.1 C14.53 36.1 13.72 36.09 12.89 36.09 C11.37 36.08 11.37 36.08 9.81 36.06 C4.96 36.03 4.96 36.03 0 36 C0 24.12 0 12.24 0 0 Z " fill="#D2DBE3" transform="translate(35,29)"/>
<path d="M0 0 C9 0 9 0 12 1.81 C15.69 5.85 15.27 10.13 15.23 15.33 C14.95 18.58 14.14 20.53 12 23 C10 24 10 24 0 24 C0 16.08 0 8.16 0 0 Z " fill="#546A81" transform="translate(43,35)"/>
</svg>
