<?xml version="1.0" encoding="UTF-8"?>
<!-- Generator: https://ezgif.com/png-to-svg -->
<svg version="1.1" xmlns="http://www.w3.org/2000/svg" width="100" height="100">
<path d="M0 0 C1.57 0.74 3.11 1.54 4.62 2.38 C14.01 7.14 23.34 8.44 33.71 9.35 C39.91 9.91 39.91 9.91 41 11 C41.14 13.43 41.21 15.83 41.24 18.26 C41.25 19 41.25 19.75 41.26 20.51 C41.28 22.09 41.29 23.68 41.3 25.26 C41.31 26.86 41.33 28.45 41.36 30.05 C41.72 49.56 37.04 65.09 23.4 79.7 C16.5 86.78 7.47 94.84 -2 98 C-14.28 96.89 -27.32 83.92 -35 75 C-48.98 56.41 -50.95 33.48 -48 11 C-46.12 9.12 -43.34 9.62 -40.82 9.41 C-28.64 8.37 -17.89 6.09 -7.22 -0.14 C-4.35 -1.25 -2.91 -0.91 0 0 Z " fill="#4F657D" transform="translate(54,1)"/>
<path d="M0 0 C2.64 0 5.28 0 8 0 C8.12 4.32 8.21 8.65 8.27 12.97 C8.3 14.44 8.33 15.91 8.38 17.38 C8.44 19.5 8.47 21.61 8.49 23.73 C8.51 25 8.54 26.28 8.57 27.59 C7.85 31.9 6.38 33.32 3 36 C-1.55 37.52 -6.45 38.2 -10.92 36.09 C-12.56 34.88 -12.56 34.88 -15 32 C-15.38 28.69 -15.38 28.69 -15 26 C-12.29 24.65 -9.99 24.93 -7 25 C-6.34 26.65 -5.68 28.3 -5 30 C-3.68 29.67 -2.36 29.34 -1 29 C-0.67 19.43 -0.34 9.86 0 0 Z " fill="#D0D9E2" transform="translate(52,29)"/>
</svg>
