<?xml version="1.0" encoding="UTF-8"?>
<!-- Generator: https://ezgif.com/png-to-svg -->
<svg version="1.1" xmlns="http://www.w3.org/2000/svg" width="100" height="100">
<path d="M0 0 C1.57 0.74 3.11 1.54 4.62 2.38 C14.01 7.14 23.34 8.44 33.71 9.35 C39.91 9.91 39.91 9.91 41 11 C41.14 13.43 41.21 15.83 41.24 18.26 C41.25 19 41.25 19.75 41.26 20.51 C41.28 22.09 41.29 23.68 41.3 25.26 C41.31 26.86 41.33 28.45 41.36 30.05 C41.72 49.56 37.04 65.09 23.4 79.7 C16.5 86.78 7.47 94.84 -2 98 C-14.28 96.89 -27.32 83.92 -35 75 C-48.98 56.41 -50.95 33.48 -48 11 C-46.12 9.12 -43.34 9.62 -40.82 9.41 C-28.64 8.37 -17.89 6.09 -7.22 -0.14 C-4.35 -1.25 -2.91 -0.91 0 0 Z " fill="#4F657D" transform="translate(54,1)"/>
<path d="M0 0 C3.96 0 7.92 0 12 0 C14.58 6.57 17 12.85 17 20 C17.66 20 18.32 20 19 20 C19.1 18.91 19.21 17.81 19.31 16.69 C21.01 2.99 21.01 2.99 24 0 C27.96 0 31.92 0 36 0 C36 11.88 36 23.76 36 36 C33.36 36 30.72 36 28 36 C27.67 29.07 27.34 22.14 27 15 C25.35 21.93 23.7 28.86 22 36 C19.36 36 16.72 36 14 36 C12.35 29.07 10.7 22.14 9 15 C8.67 21.93 8.34 28.86 8 36 C5.36 36 2.72 36 0 36 C0 24.12 0 12.24 0 0 Z " fill="#CFD8E1" transform="translate(32,29)"/>
</svg>
