<?xml version="1.0" encoding="UTF-8"?>
<!-- Generator: https://ezgif.com/png-to-svg -->
<svg version="1.1" xmlns="http://www.w3.org/2000/svg" width="100" height="100">
<path d="M0 0 C1.57 0.74 3.11 1.54 4.62 2.38 C14.01 7.14 23.34 8.44 33.71 9.35 C39.91 9.91 39.91 9.91 41 11 C41.14 13.43 41.21 15.83 41.24 18.26 C41.25 19 41.25 19.75 41.26 20.51 C41.28 22.09 41.29 23.68 41.3 25.26 C41.31 26.86 41.33 28.45 41.36 30.05 C41.72 49.56 37.04 65.09 23.4 79.7 C16.5 86.78 7.47 94.84 -2 98 C-14.28 96.89 -27.32 83.92 -35 75 C-48.98 56.41 -50.95 33.48 -48 11 C-46.12 9.12 -43.34 9.62 -40.82 9.41 C-28.64 8.37 -17.89 6.09 -7.22 -0.14 C-4.35 -1.25 -2.91 -0.91 0 0 Z " fill="#4F657D" transform="translate(54,1)"/>
<path d="M0 0 C9 0 9 0 11.12 1.84 C11.58 2.67 12.03 3.51 12.5 4.38 C13.02 5.28 13.53 6.18 14.06 7.11 C14.55 8.06 15.05 9.02 15.56 10 C16.09 10.95 16.63 11.91 17.17 12.89 C18.48 15.24 19.74 17.62 21 20 C21.33 13.4 21.66 6.8 22 0 C24.64 0 27.28 0 30 0 C30 11.88 30 23.76 30 36 C21 36 21 36 18.98 34.38 C18.58 33.64 18.17 32.9 17.75 32.13 C17.29 31.33 16.82 30.53 16.35 29.7 C15.9 28.85 15.46 28 15 27.12 C14.52 26.28 14.05 25.44 13.56 24.57 C11.97 21.75 10.45 18.9 9 16 C8.67 22.6 8.34 29.2 8 36 C5.36 36 2.72 36 0 36 C0 24.12 0 12.24 0 0 Z " fill="#CFD8E1" transform="translate(35,29)"/>
</svg>
