<?xml version="1.0" encoding="UTF-8"?>
<!-- Generator: https://ezgif.com/png-to-svg -->
<svg version="1.1" xmlns="http://www.w3.org/2000/svg" width="100" height="100">
<path d="M0 0 C1.57 0.74 3.11 1.54 4.62 2.38 C14.01 7.14 23.34 8.44 33.71 9.35 C39.91 9.91 39.91 9.91 41 11 C41.14 13.43 41.21 15.83 41.24 18.26 C41.25 19 41.25 19.75 41.26 20.51 C41.28 22.09 41.29 23.68 41.3 25.26 C41.31 26.86 41.33 28.45 41.36 30.05 C41.72 49.56 37.04 65.09 23.4 79.7 C16.5 86.78 7.47 94.84 -2 98 C-14.28 96.89 -27.32 83.92 -35 75 C-48.98 56.41 -50.95 33.48 -48 11 C-46.12 9.12 -43.34 9.62 -40.82 9.41 C-28.64 8.37 -17.89 6.09 -7.22 -0.14 C-4.35 -1.25 -2.91 -0.91 0 0 Z " fill="#4F657D" transform="translate(54,1)"/>
<path d="M0 0 C3.97 2.74 7.08 5.17 8.62 9.81 C8.77 12.25 8.85 14.69 8.88 17.12 C8.9 18.42 8.93 19.72 8.95 21.05 C8.55 25.72 7.3 28.98 4.12 32.46 C-1.9 37.15 -6.93 37.52 -14.38 36.81 C-19.07 35.52 -21.69 32.84 -24.31 28.81 C-27.38 22.64 -27.65 15.99 -25.64 9.41 C-23.71 5.15 -21.37 2.37 -17.38 -0.19 C-11.73 -2.07 -5.59 -1.97 0 0 Z " fill="#D1D9E2" transform="translate(58.375,29.1875)"/>
<path d="M0 0 C1.94 0.58 1.94 0.58 4.44 2.39 C7.28 8.41 6.83 15 4.69 21.2 C2.8 23.77 2.02 24.81 -1.06 25.58 C-5.37 25.58 -7.34 25.26 -10.5 22.27 C-13.13 17.58 -12.83 11.75 -12.06 6.58 C-9.24 0.81 -6.56 -1.11 0 0 Z " fill="#51677E" transform="translate(53.05859375,34.421875)"/>
</svg>
