<?xml version="1.0" encoding="UTF-8"?>
<!-- Generator: https://ezgif.com/png-to-svg -->
<svg version="1.1" xmlns="http://www.w3.org/2000/svg" width="100" height="100">
<path d="M0 0 C1.57 0.74 3.11 1.54 4.62 2.38 C14.01 7.14 23.34 8.44 33.71 9.35 C39.91 9.91 39.91 9.91 41 11 C41.14 13.43 41.21 15.83 41.24 18.26 C41.25 19 41.25 19.75 41.26 20.51 C41.28 22.09 41.29 23.68 41.3 25.26 C41.31 26.86 41.33 28.45 41.36 30.05 C41.72 49.56 37.04 65.09 23.4 79.7 C16.5 86.78 7.47 94.84 -2 98 C-14.28 96.89 -27.32 83.92 -35 75 C-48.98 56.41 -50.95 33.48 -48 11 C-46.12 9.12 -43.34 9.62 -40.82 9.41 C-28.64 8.37 -17.89 6.09 -7.22 -0.14 C-4.35 -1.25 -2.91 -0.91 0 0 Z " fill="#4F657D" transform="translate(54,1)"/>
<path d="M0 0 C3.34 -0.1 6.68 -0.21 10.12 -0.31 C11.69 -0.38 11.69 -0.38 13.28 -0.45 C17.79 -0.52 21.02 -0.53 24.62 2.39 C27.43 5.47 27.94 6.17 28.25 10.31 C27.98 14.28 27.47 15.94 25 19 C19.46 23.07 14.67 22.22 8 22 C8 26.62 8 31.24 8 36 C5.36 36 2.72 36 0 36 C0 24.12 0 12.24 0 0 Z " fill="#D3DCE4" transform="translate(37,29)"/>
<path d="M0 0 C1.42 -0.06 2.85 -0.12 4.31 -0.19 C5.51 -0.24 5.51 -0.24 6.74 -0.29 C9 0 9 0 10.8 1.35 C12 3 12 3 11.88 5.56 C11 8 11 8 8 10 C5.96 10.2 5.96 10.2 3.81 10.12 C1.93 10.06 1.93 10.06 0 10 C0 6.7 0 3.4 0 0 Z " fill="#536980" transform="translate(45,35)"/>
</svg>
