<?xml version="1.0" encoding="UTF-8"?>
<!-- Generator: https://ezgif.com/png-to-svg -->
<svg version="1.1" xmlns="http://www.w3.org/2000/svg" width="100" height="100">
<path d="M0 0 C1.57 0.74 3.11 1.54 4.62 2.38 C14.01 7.14 23.34 8.44 33.71 9.35 C39.91 9.91 39.91 9.91 41 11 C41.14 13.43 41.21 15.83 41.24 18.26 C41.25 19 41.25 19.75 41.26 20.51 C41.28 22.09 41.29 23.68 41.3 25.26 C41.31 26.86 41.33 28.45 41.36 30.05 C41.72 49.56 37.04 65.09 23.4 79.7 C16.5 86.78 7.47 94.84 -2 98 C-14.28 96.89 -27.32 83.92 -35 75 C-48.98 56.41 -50.95 33.48 -48 11 C-46.12 9.12 -43.34 9.62 -40.82 9.41 C-28.64 8.37 -17.89 6.09 -7.22 -0.14 C-4.35 -1.25 -2.91 -0.91 0 0 Z " fill="#4F657D" transform="translate(54,1)"/>
<path d="M0 0 C4.59 3.28 8.24 7.34 9.62 12.88 C10.5 20.4 8.85 26.1 5.62 32.88 C6.94 33.2 8.27 33.53 9.62 33.88 C9.3 35.85 8.97 37.84 8.62 39.88 C5.25 39.33 3.54 38.82 0.62 36.88 C-1.79 36.84 -4.21 36.89 -6.62 37 C-12.77 37.12 -16.67 37.07 -21.38 32.88 C-25.97 27.28 -27.14 21.9 -26.79 14.74 C-26.04 9.54 -24.52 5.94 -20.71 2.28 C-14.4 -2.38 -7.28 -2.43 0 0 Z " fill="#D0D9E2" transform="translate(58.375,29.125)"/>
<path d="M0 0 C3.16 1.21 4.29 2.92 6.04 5.78 C6.46 9.26 6.46 9.26 6.35 12.96 C6.32 14.2 6.3 15.43 6.27 16.7 C6.04 19.78 6.04 19.78 5.04 21.78 C0.58 20.79 0.58 20.79 -3.96 19.78 C-3.96 21.43 -3.96 23.08 -3.96 24.78 C-2.97 25.11 -1.98 25.44 -0.96 25.78 C-7.43 25.17 -7.43 25.17 -9.84 23.4 C-12.16 20.06 -12.16 16.84 -12.21 12.9 C-12.25 11.36 -12.25 11.36 -12.29 9.79 C-11.92 6.34 -11.03 4.54 -8.96 1.78 C-5.58 -0.48 -3.95 -0.31 0 0 Z " fill="#52687F" transform="translate(52.96484375,34.22265625)"/>
</svg>
