<?xml version="1.0" encoding="UTF-8"?>
<!-- Generator: https://ezgif.com/png-to-svg -->
<svg version="1.1" xmlns="http://www.w3.org/2000/svg" width="100" height="100">
<path d="M0 0 C1.57 0.74 3.11 1.54 4.62 2.38 C14.01 7.14 23.34 8.44 33.71 9.35 C39.91 9.91 39.91 9.91 41 11 C41.14 13.43 41.21 15.83 41.24 18.26 C41.25 19 41.25 19.75 41.26 20.51 C41.28 22.09 41.29 23.68 41.3 25.26 C41.31 26.86 41.33 28.45 41.36 30.05 C41.72 49.56 37.04 65.09 23.4 79.7 C16.5 86.78 7.47 94.84 -2 98 C-14.28 96.89 -27.32 83.92 -35 75 C-48.98 56.41 -50.95 33.48 -48 11 C-46.12 9.12 -43.34 9.62 -40.82 9.41 C-28.64 8.37 -17.89 6.09 -7.22 -0.14 C-4.35 -1.25 -2.91 -0.91 0 0 Z " fill="#4F657D" transform="translate(54,1)"/>
<path d="M0 0 C3.69 -0.06 7.38 -0.12 11.19 -0.19 C12.34 -0.21 13.5 -0.24 14.69 -0.27 C15.61 -0.28 16.53 -0.29 17.48 -0.29 C18.42 -0.31 19.36 -0.32 20.32 -0.34 C23.56 0.07 25.38 1.08 28 3 C30.46 6.69 30.69 9.72 30 14 C27.93 17.28 26.23 18.85 23 21 C23.39 21.41 23.77 21.83 24.17 22.25 C28.06 26.56 30.59 30.72 33 36 C29.43 36.79 26.54 37.02 23 36 C19.67 32.36 17.42 28.28 15 24 C12.86 21.49 12.86 21.49 8 21 C8 25.95 8 30.9 8 36 C5.36 36 2.72 36 0 36 C0 24.12 0 12.24 0 0 Z " fill="#D2DBE4" transform="translate(35,29)"/>
<path d="M0 0 C1.77 -0.05 3.54 -0.09 5.31 -0.12 C6.3 -0.15 7.28 -0.17 8.3 -0.2 C11 0 11 0 14 2 C14.38 4.5 14.38 4.5 14 7 C10.58 9.28 9.32 9.22 5.31 9.12 C3.82 9.1 3.82 9.1 2.3 9.07 C1.54 9.05 0.78 9.02 0 9 C0 6.03 0 3.06 0 0 Z " fill="#556A81" transform="translate(43,35)"/>
</svg>
