<?xml version="1.0" encoding="UTF-8"?>
<!-- Generator: https://ezgif.com/png-to-svg -->
<svg version="1.1" xmlns="http://www.w3.org/2000/svg" width="100" height="100">
<path d="M0 0 C1.57 0.74 3.11 1.54 4.62 2.38 C14.01 7.14 23.34 8.44 33.71 9.35 C39.91 9.91 39.91 9.91 41 11 C41.14 13.43 41.21 15.83 41.24 18.26 C41.25 19 41.25 19.75 41.26 20.51 C41.28 22.09 41.29 23.68 41.3 25.26 C41.31 26.86 41.33 28.45 41.36 30.05 C41.72 49.56 37.04 65.09 23.4 79.7 C16.5 86.78 7.47 94.84 -2 98 C-14.28 96.89 -27.32 83.92 -35 75 C-48.98 56.41 -50.95 33.48 -48 11 C-46.12 9.12 -43.34 9.62 -40.82 9.41 C-28.64 8.37 -17.89 6.09 -7.22 -0.14 C-4.35 -1.25 -2.91 -0.91 0 0 Z " fill="#4F657D" transform="translate(54,1)"/>
<path d="M0 0 C2.62 1.41 4.53 2.86 6.23 5.31 C6.79 7.25 6.79 7.25 6.79 10.25 C3.82 10.25 0.85 10.25 -2.21 10.25 C-2.54 9.26 -2.87 8.27 -3.21 7.25 C-5.85 6.92 -8.49 6.59 -11.21 6.25 C-11.54 7.57 -11.87 8.89 -12.21 10.25 C-11.65 10.42 -11.09 10.59 -10.52 10.76 C3.42 15.19 3.42 15.19 6.79 20.25 C7.49 25.01 7.49 29.01 5.11 33.25 C0.28 37.42 -4.46 37.62 -10.61 37.5 C-13.84 37.18 -15.73 36.34 -18.21 34.25 C-18.78 33.81 -19.36 33.38 -19.96 32.93 C-21.76 30.49 -21.95 28.22 -22.21 25.25 C-21.21 24.25 -21.21 24.25 -17.64 24.18 C-16.51 24.2 -15.38 24.22 -14.21 24.25 C-13.92 25.05 -13.63 25.85 -13.33 26.68 C-12.47 29.38 -12.47 29.38 -10.21 30.25 C-6.06 30.49 -6.06 30.49 -2.21 29.25 C-1.55 26.22 -1.55 26.22 -1.21 23.25 C-2 23.08 -2.8 22.91 -3.62 22.73 C-16.91 19.69 -16.91 19.69 -21.21 13.25 C-21.64 9.95 -21.9 7.44 -20.19 4.49 C-15.25 -1.69 -7.37 -2.52 0 0 Z " fill="#D2DAE3" transform="translate(57.20703125,28.75390625)"/>
</svg>
