<?xml version="1.0" encoding="UTF-8"?>
<!-- Generator: https://ezgif.com/png-to-svg -->
<svg version="1.1" xmlns="http://www.w3.org/2000/svg" width="240" height="240">
<path d="M0 0 C7.04 6.01 13.8 12.67 15.47 22.03 C16.57 22.01 17.66 22 18.79 21.98 C22.86 21.93 26.93 21.89 31.01 21.86 C32.77 21.85 34.53 21.83 36.29 21.8 C38.82 21.76 41.36 21.75 43.89 21.73 C44.67 21.72 45.46 21.7 46.26 21.69 C50.85 21.69 53.84 22.15 57.47 25.03 C60.46 30.99 57.84 38.84 56.52 44.98 C55.16 48.95 53.32 51.78 49.8 54.15 C46.51 55.39 43.59 55.25 40.08 55.22 C39.38 55.22 38.67 55.22 37.95 55.21 C35.71 55.2 33.46 55.18 31.22 55.15 C29.7 55.14 28.18 55.13 26.65 55.12 C22.93 55.1 19.2 55.07 15.47 55.03 C15.47 56.02 15.47 57.01 15.47 58.03 C50.12 58.03 84.77 58.03 120.47 58.03 C120.14 60.34 119.81 62.65 119.47 65.03 C118.48 65.03 117.49 65.03 116.47 65.03 C116.14 66.68 115.81 68.33 115.47 70.03 C117.12 70.36 118.77 70.69 120.47 71.03 C120.47 71.69 120.47 72.35 120.47 73.03 C96.51 73.86 72.57 74.13 48.59 73.99 C43.29 73.96 38 73.97 32.7 74.01 C30.49 74.02 28.28 74.02 26.07 74.01 C22.69 74 19.31 74.04 15.93 74.09 C14.91 74.08 13.89 74.07 12.85 74.06 C5.03 74.24 1.16 76.88 -4.53 82.03 C-10.87 85.95 -16.1 87.68 -23.53 86.62 C-25.53 86.03 -25.53 86.03 -27.53 84.03 C-30.03 83.69 -30.03 83.69 -32.53 84.03 C-33.19 84.69 -33.85 85.35 -34.53 86.03 C-41.96 88.06 -47.89 86.64 -54.53 83.03 C-57.4 81.23 -59.97 79.24 -62.53 77.03 C-63.2 76.48 -63.87 75.92 -64.55 75.36 C-73.68 67.16 -78.89 55.13 -79.74 43.01 C-80.2 27.93 -75.82 15.37 -65.53 4.28 C-47.62 -12.77 -19.86 -15.5 0 0 Z M-33.53 2.03 C-33.86 4.67 -34.19 7.31 -34.53 10.03 C-35.14 10.16 -35.76 10.3 -36.4 10.44 C-44.1 12.4 -50.62 15.54 -55.06 22.39 C-56.34 24.9 -57.46 27.42 -58.53 30.03 C-59.25 31.67 -59.98 33.32 -60.71 34.96 C-61.02 35.68 -61.32 36.39 -61.63 37.12 C-62.53 39.03 -62.53 39.03 -64.53 42.03 C-62.22 42.69 -59.91 43.35 -57.53 44.03 C-57.86 45.35 -58.19 46.67 -58.53 48.03 C-56.88 51.33 -55.23 54.63 -53.53 58.03 C-38.35 58.03 -23.17 58.03 -7.53 58.03 C-6.87 56.71 -6.21 55.39 -5.53 54.03 C-5.03 53.61 -4.54 53.2 -4.03 52.78 C-1.59 49.94 -1.3 46.65 -0.53 43.03 C4.42 42.53 4.42 42.53 9.47 42.03 C8.98 40.05 8.98 40.05 8.47 38.03 C7.21 37.86 5.96 37.7 4.66 37.53 C1.89 36.87 0.81 36.56 -0.73 34.11 C-1.46 32.1 -2.06 30.12 -2.53 28.03 C-2.85 28.52 -3.18 29.01 -3.52 29.51 C-6.63 31.86 -9.95 31.4 -13.7 31.32 C-14.49 31.32 -15.28 31.31 -16.1 31.31 C-18.64 31.29 -21.18 31.25 -23.71 31.21 C-25.44 31.2 -27.16 31.19 -28.88 31.17 C-33.09 31.14 -37.31 31.09 -41.53 31.03 C-41.53 32.02 -41.53 33.01 -41.53 34.03 C-40.58 34.05 -39.63 34.08 -38.65 34.1 C-35.13 34.2 -31.6 34.3 -28.08 34.4 C-26.55 34.44 -25.03 34.48 -23.5 34.52 C-21.31 34.58 -19.11 34.65 -16.92 34.71 C-16.24 34.73 -15.56 34.74 -14.86 34.76 C-11.62 34.86 -8.63 35.06 -5.53 36.03 C-4.94 47.08 -4.94 47.08 -8.53 52.03 C-13.07 54.55 -17.71 54.37 -22.77 54.44 C-23.65 54.46 -24.53 54.48 -25.43 54.5 C-28.24 54.56 -31.04 54.61 -33.84 54.65 C-35.74 54.69 -37.65 54.73 -39.55 54.77 C-44.21 54.87 -48.87 54.95 -53.53 55.03 C-53.2 52.06 -52.87 49.09 -52.53 46.03 C-50.86 46.05 -50.86 46.05 -49.16 46.07 C-45.05 46.13 -40.94 46.16 -36.83 46.19 C-35.05 46.21 -33.27 46.23 -31.49 46.25 C-28.93 46.29 -26.37 46.31 -23.82 46.32 C-23.02 46.34 -22.22 46.35 -21.4 46.37 C-18.92 46.4 -18.92 46.4 -15.53 46.03 C-14.87 45.04 -14.21 44.05 -13.53 43.03 C-14.57 43.01 -15.62 43 -16.69 42.98 C-20.57 42.93 -24.44 42.85 -28.32 42.76 C-29.99 42.73 -31.67 42.7 -33.35 42.68 C-35.76 42.65 -38.17 42.6 -40.58 42.54 C-41.33 42.53 -42.08 42.53 -42.85 42.52 C-48.01 42.37 -48.01 42.37 -50.5 40.7 C-52.28 37.81 -51.86 35.33 -51.53 32.03 C-50.17 28.76 -49.03 26.53 -46.53 24.03 C-42.39 22.68 -38.14 22.8 -33.82 22.71 C-32.99 22.69 -32.15 22.67 -31.29 22.65 C-28.62 22.58 -25.95 22.52 -23.28 22.46 C-21.46 22.42 -19.65 22.38 -17.84 22.33 C-13.4 22.23 -8.96 22.13 -4.53 22.03 C-5.3 21.41 -6.08 20.79 -6.88 20.16 C-8.59 18.78 -10.29 17.38 -11.96 15.96 C-16.59 12.47 -20.77 10.71 -26.53 10.03 C-26.53 7.72 -26.53 5.41 -26.53 3.03 C-28.84 2.7 -31.15 2.37 -33.53 2.03 Z M22.47 32.03 C20.65 39.14 20.65 39.14 20.47 46.03 C24.6 46.09 28.72 46.12 32.85 46.15 C34.02 46.17 35.2 46.19 36.41 46.2 C37.53 46.21 38.65 46.22 39.81 46.22 C40.85 46.23 41.88 46.24 42.95 46.25 C45.64 46.28 45.64 46.28 47.47 44.03 C47.8 40.07 48.13 36.11 48.47 32.03 C39.89 32.03 31.31 32.03 22.47 32.03 Z M10.47 62.03 C8.99 65.49 8.99 65.49 7.47 69.03 C9.95 69.52 9.95 69.52 12.47 70.03 C12.8 67.39 13.13 64.75 13.47 62.03 C12.48 62.03 11.49 62.03 10.47 62.03 Z M79.47 62.03 C79.14 64.67 78.81 67.31 78.47 70.03 C81.11 70.03 83.75 70.03 86.47 70.03 C86.47 67.39 86.47 64.75 86.47 62.03 C84.16 62.03 81.85 62.03 79.47 62.03 Z M91.47 62.03 C91.47 63.35 91.47 64.67 91.47 66.03 C92.13 66.03 92.79 66.03 93.47 66.03 C93.47 64.71 93.47 63.39 93.47 62.03 C92.81 62.03 92.15 62.03 91.47 62.03 Z M110.47 66.03 C111.47 70.03 111.47 70.03 111.47 70.03 Z M36.47 68.03 C36.47 68.69 36.47 69.35 36.47 70.03 C37.13 70.03 37.79 70.03 38.47 70.03 C38.47 69.37 38.47 68.71 38.47 68.03 C37.81 68.03 37.15 68.03 36.47 68.03 Z M100.47 68.03 C100.47 68.69 100.47 69.35 100.47 70.03 C101.13 69.7 101.79 69.37 102.47 69.03 C101.81 68.7 101.15 68.37 100.47 68.03 Z " fill="#5858C5" transform="translate(97.52734375,68.97265625)"/>
<path d="M0 0 C8.84 6.34 18.19 14.43 20.18 25.57 C21.28 25.55 22.37 25.53 23.5 25.52 C27.57 25.46 31.64 25.43 35.72 25.4 C37.48 25.39 39.24 25.37 41 25.34 C43.53 25.3 46.07 25.29 48.6 25.27 C49.39 25.26 50.17 25.24 50.98 25.23 C55.56 25.23 58.55 25.69 62.18 28.57 C65.17 34.53 62.55 42.38 61.23 48.52 C59.87 52.48 58.03 55.31 54.53 57.69 C51.2 58.93 47.97 58.83 44.46 58.8 C43.72 58.8 42.98 58.8 42.21 58.8 C40.65 58.79 39.08 58.78 37.52 58.77 C35.13 58.75 32.73 58.75 30.34 58.75 C28.82 58.75 27.29 58.74 25.77 58.73 C24.7 58.73 24.7 58.73 23.6 58.73 C20.53 58.7 18.13 58.55 15.18 57.57 C15.68 52.62 15.68 52.62 16.18 47.57 C14.86 46.91 13.54 46.25 12.18 45.57 C12.84 45.57 13.5 45.57 14.18 45.57 C12.45 42.22 12.45 42.22 8.81 41.82 C4.98 40.5 4.59 40.24 2.75 36.94 C2.23 35.83 1.71 34.71 1.18 33.57 C0.52 34.23 -0.14 34.89 -0.82 35.57 C-3.54 35.74 -6.16 35.8 -8.89 35.76 C-9.68 35.76 -10.48 35.76 -11.3 35.75 C-13.85 35.74 -16.39 35.72 -18.94 35.69 C-20.67 35.68 -22.39 35.67 -24.12 35.66 C-28.35 35.64 -32.58 35.61 -36.82 35.57 C-36.82 35.9 -36.82 36.23 -36.82 36.57 C-35.39 36.6 -35.39 36.6 -33.94 36.63 C-30.42 36.7 -26.89 36.79 -23.36 36.88 C-21.84 36.92 -20.31 36.96 -18.79 36.99 C-16.6 37.03 -14.4 37.09 -12.21 37.15 C-11.19 37.17 -11.19 37.17 -10.15 37.19 C-6.58 37.3 -3.8 37.52 -0.82 39.57 C0.79 42.77 0.53 46.08 0.18 49.57 C-1.1 53.33 -2.01 55.04 -5.35 57.22 C-9.77 58.94 -13.45 58.95 -18.15 58.86 C-19.47 58.85 -19.47 58.85 -20.82 58.85 C-23.61 58.83 -26.4 58.79 -29.19 58.75 C-31.09 58.74 -32.99 58.73 -34.89 58.71 C-39.53 58.68 -44.17 58.63 -48.82 58.57 C-48.49 55.6 -48.16 52.63 -47.82 49.57 C-46.7 49.54 -45.59 49.52 -44.44 49.49 C-40.31 49.4 -36.19 49.3 -32.06 49.19 C-30.28 49.15 -28.49 49.11 -26.7 49.07 C-24.14 49.01 -21.57 48.95 -19.01 48.88 C-18.2 48.87 -17.4 48.85 -16.57 48.83 C-12.89 49.07 -12.89 49.07 -9.82 47.57 C-10.83 47.56 -11.83 47.55 -12.87 47.54 C-16.62 47.5 -20.37 47.43 -24.12 47.36 C-25.74 47.33 -27.37 47.31 -28.99 47.3 C-31.32 47.27 -33.65 47.23 -35.99 47.18 C-36.71 47.17 -37.43 47.17 -38.18 47.17 C-41.59 47.07 -43.51 46.79 -46.28 44.74 C-48.54 41.55 -48.28 39.4 -47.82 35.57 C-46.38 32 -44.92 28.92 -41.82 26.57 C-37.92 25.21 -33.85 25.34 -29.77 25.25 C-29 25.23 -28.23 25.21 -27.43 25.19 C-24.98 25.12 -22.52 25.06 -20.07 25 C-18.4 24.96 -16.73 24.92 -15.06 24.87 C-10.98 24.77 -6.9 24.66 -2.82 24.57 C-3.92 23.6 -5.02 22.64 -6.12 21.68 C-7.05 20.87 -7.05 20.87 -7.99 20.05 C-12.1 16.72 -16.82 15.11 -21.82 13.57 C-21.82 11.26 -21.82 8.95 -21.82 6.57 C-24.13 6.24 -26.44 5.91 -28.82 5.57 C-28.82 8.21 -28.82 10.85 -28.82 13.57 C-29.99 13.98 -31.17 14.39 -32.38 14.82 C-36.48 16.35 -40.06 18.31 -43.82 20.57 C-44.48 20.9 -45.14 21.23 -45.82 21.57 C-45.68 21.01 -45.55 20.45 -45.41 19.88 C-44.23 14.78 -43.38 9.77 -42.82 4.57 C-43.58 4.73 -44.34 4.9 -45.13 5.07 C-48.52 5.7 -50.52 5.66 -53.82 4.57 C-45.55 -0.8 -45.55 -0.8 -40.82 -2.43 C-40.82 -3.09 -40.82 -3.75 -40.82 -4.43 C-27.21 -8.06 -12.28 -7.55 0 0 Z M27.18 35.57 C25.36 42.68 25.36 42.68 25.18 49.57 C29.31 49.62 33.43 49.66 37.56 49.69 C38.73 49.71 39.91 49.72 41.12 49.74 C42.24 49.75 43.36 49.76 44.52 49.76 C45.56 49.77 46.59 49.78 47.66 49.79 C50.35 49.82 50.35 49.82 52.18 47.57 C52.51 43.61 52.84 39.65 53.18 35.57 C44.6 35.57 36.02 35.57 27.18 35.57 Z " fill="#C6C5D3" transform="translate(92.81640625,65.43359375)"/>
<path d="M0 0 C2.79 -0.22 5.35 -0.28 8.12 -0.19 C8.88 -0.17 9.63 -0.16 10.41 -0.15 C12.27 -0.11 14.14 -0.06 16 0 C16 0.33 16 0.66 16 1 C11.38 1.33 6.76 1.66 2 2 C42.59 2 83.18 2 125 2 C124.67 4.31 124.34 6.62 124 9 C123.01 9 122.02 9 121 9 C120.67 10.65 120.34 12.3 120 14 C121.65 14.33 123.3 14.66 125 15 C125 15.66 125 16.32 125 17 C99.8 18.01 74.6 18.11 49.38 18.12 C46.74 18.13 44.11 18.13 41.47 18.13 C37.27 18.14 33.06 18.14 28.86 18.13 C27.28 18.13 25.71 18.13 24.13 18.14 C21.95 18.14 19.78 18.13 17.6 18.13 C16.37 18.13 15.14 18.13 13.87 18.13 C11 18 11 18 9 17 C7.15 16.88 5.3 16.82 3.45 16.79 C1.71 16.76 1.71 16.76 -0.07 16.73 C-1.33 16.72 -2.59 16.7 -3.88 16.68 C-5.81 16.65 -5.81 16.65 -7.78 16.62 C-11.19 16.57 -14.61 16.52 -18.02 16.47 C-21.51 16.42 -24.99 16.36 -28.48 16.31 C-35.32 16.2 -42.16 16.1 -49 16 C-49 15.67 -49 15.34 -49 15 C-27.22 14.67 -5.44 14.34 17 14 C17 11.69 17 9.38 17 7 C13.5 5.25 9.28 5.63 5.41 5.48 C0.21 5.21 0.21 5.21 -2 3 C-1.34 2.01 -0.68 1.02 0 0 Z M84 6 C83.67 8.64 83.34 11.28 83 14 C85.64 14 88.28 14 91 14 C91 11.36 91 8.72 91 6 C88.69 6 86.38 6 84 6 Z M96 6 C96 7.32 96 8.64 96 10 C96.66 10 97.32 10 98 10 C98 8.68 98 7.36 98 6 C97.34 6 96.68 6 96 6 Z M115 10 C116 14 116 14 116 14 Z M41 12 C41 12.66 41 13.32 41 14 C41.66 14 42.32 14 43 14 C43 13.34 43 12.68 43 12 C42.34 12 41.68 12 41 12 Z M105 12 C105 12.66 105 13.32 105 14 C105.66 13.67 106.32 13.34 107 13 C106.34 12.67 105.68 12.34 105 12 Z " fill="#6464BC" transform="translate(93,125)"/>
<path d="M0 0 C1.25 -0 1.25 -0 2.52 -0 C4.28 -0 6.04 -0 7.79 0 C10.49 0.01 13.18 0 15.88 -0 C17.59 -0 19.29 -0 21 0 C21.81 -0 22.62 -0 23.45 -0.01 C29.14 0.02 29.14 0.02 31.37 1.13 C30.62 7.88 30.62 7.88 28.37 10.13 C25.64 10.31 23.02 10.36 20.3 10.33 C19.5 10.33 18.7 10.32 17.88 10.32 C15.34 10.31 12.79 10.28 10.24 10.26 C8.52 10.25 6.79 10.24 5.07 10.23 C0.83 10.21 -3.4 10.17 -7.63 10.13 C-7.63 10.46 -7.63 10.79 -7.63 11.13 C-6.21 11.16 -6.21 11.16 -4.76 11.19 C-1.23 11.27 2.29 11.36 5.82 11.45 C7.34 11.49 8.87 11.52 10.39 11.55 C12.59 11.6 14.78 11.66 16.98 11.72 C18 11.74 18 11.74 19.04 11.75 C22.6 11.86 25.38 12.08 28.37 14.13 C29.97 17.34 29.72 20.65 29.37 24.13 C28.09 27.9 27.18 29.61 23.83 31.78 C19.41 33.51 15.73 33.51 11.03 33.43 C10.15 33.42 9.27 33.42 8.37 33.41 C5.57 33.4 2.78 33.36 -0.01 33.32 C-1.91 33.31 -3.81 33.29 -5.71 33.28 C-10.35 33.25 -14.99 33.19 -19.63 33.13 C-19.14 28.68 -19.14 28.68 -18.63 24.13 C-17.52 24.11 -16.4 24.08 -15.25 24.06 C-11.13 23.96 -7 23.86 -2.88 23.76 C-1.09 23.72 0.7 23.68 2.48 23.64 C5.05 23.58 7.61 23.51 10.18 23.45 C10.98 23.43 11.78 23.42 12.61 23.4 C16.29 23.64 16.29 23.64 19.37 22.13 C18.36 22.12 17.35 22.11 16.31 22.1 C12.56 22.06 8.81 22 5.06 21.93 C3.44 21.9 1.82 21.88 0.2 21.86 C-2.14 21.84 -4.47 21.79 -6.8 21.74 C-7.53 21.74 -8.25 21.74 -9 21.74 C-12.4 21.64 -14.33 21.36 -17.09 19.31 C-19.35 16.11 -19.1 13.96 -18.63 10.13 C-17.19 6.57 -15.74 3.49 -12.63 1.13 C-8.46 -0.14 -4.32 -0.01 0 0 Z " fill="#F8F8FA" transform="translate(63.6328125,90.8671875)"/>
<path d="M0 0 C-2.93 2.33 -5.89 4.05 -9.25 5.69 C-10.14 6.12 -11.03 6.56 -11.95 7.01 C-12.97 7.5 -12.97 7.5 -14 8 C-13.09 7.81 -12.19 7.63 -11.25 7.44 C-8.32 7.04 -6.74 7.05 -4 8 C-3.31 17.33 -6.71 24.27 -11.77 31.92 C-13.6 35.02 -14.79 38.32 -16.01 41.7 C-17.05 44.12 -18.34 45.96 -20 48 C-17.69 48.99 -15.38 49.98 -13 51 C-16.74 53.45 -20.44 53.23 -24.75 53.12 C-25.45 53.12 -26.14 53.11 -26.86 53.1 C-28.58 53.07 -30.29 53.04 -32 53 C-28.59 66.12 -24.03 77.77 -12 85 C-8.06 87.13 -4.07 89.12 0 91 C0 91.66 0 92.32 0 93 C-10.17 92.56 -17.87 86.01 -24.67 78.91 C-33.86 67.44 -37.07 54.49 -36 40 C-33.87 25.72 -27.01 15.19 -16 6 C-10.81 2.48 -6.42 -0.43 0 0 Z " fill="#C7C5ED" transform="translate(54,62)"/>
<path d="M0 0 C2.71 -0.3 5.18 -0.42 7.89 -0.4 C8.68 -0.4 9.46 -0.4 10.27 -0.41 C11.93 -0.41 13.6 -0.4 15.26 -0.39 C17.79 -0.38 20.33 -0.39 22.86 -0.41 C24.48 -0.41 26.09 -0.4 27.71 -0.4 C28.46 -0.4 29.22 -0.41 30 -0.42 C34.5 -0.36 37.43 0.2 41 3 C43.98 8.97 41.37 16.81 40.05 22.95 C38.69 26.91 36.85 29.74 33.35 32.12 C30.01 33.37 26.79 33.27 23.28 33.23 C22.54 33.23 21.79 33.23 21.03 33.23 C19.47 33.23 17.9 33.22 16.34 33.21 C13.94 33.19 11.55 33.19 9.15 33.19 C7.63 33.18 6.11 33.17 4.59 33.17 C3.52 33.17 3.52 33.17 2.42 33.16 C-0.66 33.14 -3.06 32.98 -6 32 C-5.67 28.7 -5.34 25.4 -5 22 C-6.32 21.34 -7.64 20.68 -9 20 C-8.34 20 -7.68 20 -7 20 C-6.88 19.38 -6.75 18.76 -6.62 18.12 C-6 16 -6 16 -4 14 C-3.39 11.44 -3.39 11.44 -3 8.56 C-2.45 4.89 -2.1 3.15 0 0 Z M6 10 C4.17 17.11 4.17 17.11 4 24 C8.12 24.06 12.25 24.09 16.38 24.12 C17.55 24.14 18.73 24.16 19.94 24.18 C21.06 24.18 22.18 24.19 23.34 24.2 C24.37 24.21 25.41 24.22 26.48 24.23 C29.17 24.26 29.17 24.26 31 22 C31.33 18.04 31.66 14.08 32 10 C23.42 10 14.84 10 6 10 Z " fill="#F9FAFA" transform="translate(114,91)"/>
<path d="M0 0 C0.33 0.66 0.66 1.32 1 2 C1.99 2 2.98 2 4 2 C5.76 5.09 6 6.23 6 10 C6.66 10 7.32 10 8 10 C8 10.99 8 11.98 8 13 C7.34 13 6.68 13 6 13 C6.99 14.98 7.98 16.96 9 19 C12.85 19.25 12.85 19.25 15.62 17.94 C16.41 17.63 17.19 17.32 18 17 C18.66 17.33 19.32 17.66 20 18 C20.33 18.99 20.66 19.98 21 21 C24.96 21.33 28.92 21.66 33 22 C33 21.34 33 20.68 33 20 C35.31 20 37.62 20 40 20 C40 20.66 40 21.32 40 22 C40.74 21.92 41.48 21.83 42.24 21.75 C49.33 21.03 55.94 21.1 63 22 C63 21.34 63 20.68 63 20 C64.32 20 65.64 20 67 20 C67 20.66 67 21.32 67 22 C71.29 22 75.58 22 80 22 C80.33 20.35 80.66 18.7 81 17 C81.99 17 82.98 17 84 17 C83.83 17.6 83.67 18.2 83.5 18.81 C82.89 21.11 82.89 21.11 83 24 C81.68 24.33 80.36 24.66 79 25 C79.99 25.99 79.99 25.99 81 27 C61.75 40.93 61.75 40.93 51.07 39.55 C49 39 49 39 47 37 C44.5 36.67 44.5 36.67 42 37 C41.34 37.66 40.68 38.32 40 39 C37.62 39.41 37.62 39.41 34.88 39.62 C33.96 39.7 33.05 39.77 32.12 39.85 C31.42 39.9 30.72 39.95 30 40 C30.33 39.01 30.66 38.02 31 37 C30.44 36.85 29.89 36.71 29.31 36.55 C23.19 34.75 18.88 32.06 14 28 C13.19 27.41 12.37 26.83 11.53 26.22 C8.57 23.62 6.67 20.77 4.75 17.38 C4.4 16.76 4.05 16.15 3.69 15.52 C0.94 10.44 -0.21 5.81 0 0 Z " fill="#0A0920" transform="translate(23,116)"/>
<path d="M0 0 C2.05 0.03 4.1 0.07 6.15 0.1 C6.04 2.06 5.91 4.01 5.78 5.97 C5.71 7.06 5.64 8.15 5.57 9.28 C5.06 13.93 4.07 18.51 3.15 23.1 C11.73 23.1 20.31 23.1 29.15 23.1 C30.06 16.65 30.06 16.65 30.95 10.2 C31.06 9.4 31.18 8.59 31.3 7.77 C31.42 6.94 31.53 6.12 31.65 5.27 C32.15 3.1 32.15 3.1 34.15 0.1 C36.1 -0.2 36.1 -0.2 38.28 -0.09 C39.56 -0.03 40.83 0.03 42.15 0.1 C43.72 4.8 42.34 9.1 41.46 13.91 C41.3 14.9 41.14 15.88 40.97 16.9 C39.96 22.55 38.95 26.72 35.15 31.1 C31.58 33.52 27.89 33.44 23.72 33.47 C23 33.48 22.29 33.49 21.55 33.5 C20.04 33.51 18.53 33.52 17.03 33.52 C14.73 33.54 12.43 33.58 10.13 33.63 C8.66 33.64 7.19 33.65 5.72 33.66 C5.04 33.68 4.35 33.7 3.65 33.72 C-0.19 33.68 -1.76 33.17 -4.8 30.74 C-7.32 27.49 -7.34 26.2 -6.85 22.16 C-6.71 21.03 -6.58 19.9 -6.44 18.74 C-3.42 0.18 -3.42 0.18 0 0 Z " fill="#FBFBFB" transform="translate(175.84765625,90.90234375)"/>
<path d="M0 0 C1.32 0 2.64 0 4 0 C4 1.32 4 2.64 4 4 C4.66 4 5.32 4 6 4 C6 3.01 6 2.02 6 1 C6.6 1.16 7.2 1.33 7.81 1.5 C10.11 2.11 10.11 2.11 13 2 C15.19 3 15.19 3 17 4 C17 3.01 17 2.02 17 1 C17.66 1 18.32 1 19 1 C19 2.32 19 3.64 19 5 C19.66 3.68 20.32 2.36 21 1 C21.99 3.97 21.99 3.97 23 7 C23.99 6.67 24.98 6.34 26 6 C26 4.35 26 2.7 26 1 C26.99 1.5 26.99 1.5 28 2 C28 3.98 28 5.96 28 8 C29.65 8.33 31.3 8.66 33 9 C33 9.66 33 10.32 33 11 C12.08 11.69 -8.82 12.11 -29.75 12.12 C-31.25 12.13 -31.25 12.13 -32.78 12.13 C-35.62 12.14 -38.46 12.14 -41.3 12.13 C-42.58 12.14 -42.58 12.14 -43.88 12.14 C-49.77 12.12 -49.77 12.12 -52 11 C-51.67 9.68 -51.34 8.36 -51 7 C-49.35 6.67 -47.7 6.34 -46 6 C-46 4.68 -46 3.36 -46 2 C-46.33 2.66 -46.66 3.32 -47 4 C-48.98 4 -50.96 4 -53 4 C-53 4.99 -53 5.98 -53 7 C-53.66 7 -54.32 7 -55 7 C-54.67 5.02 -54.34 3.04 -54 1 C-48.72 1 -43.44 1 -38 1 C-38 1.99 -38 2.98 -38 4 C-39.98 4 -41.96 4 -44 4 C-44 4.66 -44 5.32 -44 6 C-41.69 6 -39.38 6 -37 6 C-37 4.35 -37 2.7 -37 1 C-32.25 2.88 -32.25 2.88 -30 4 C-30 3.01 -30 2.02 -30 1 C-29.34 1 -28.68 1 -28 1 C-28 2.65 -28 4.3 -28 6 C-25.69 6 -23.38 6 -21 6 C-21 5.34 -21 4.68 -21 4 C-22.98 4 -24.96 4 -27 4 C-27 3.01 -27 2.02 -27 1 C-20.85 0.9 -20.85 0.9 -19 1 C-18.5 1.5 -18.5 1.5 -18 2 C-17.67 1.67 -17.34 1.34 -17 1 C-14.67 0.96 -12.33 0.96 -10 1 C-9.5 4.47 -9.5 4.47 -9 8 C-6.36 8 -3.72 8 -1 8 C-1.02 6.87 -1.04 5.73 -1.06 4.56 C-1 1 -1 1 0 0 Z M13 6 C13 6.66 13 7.32 13 8 C13.66 7.67 14.32 7.34 15 7 C14.34 6.67 13.68 6.34 13 6 Z " fill="#A3A2B6" transform="translate(185,131)"/>
<path d="M0 0 C8.01 1.52 12.92 3.56 18 10 C18.51 10.63 19.01 11.26 19.54 11.91 C23 16.46 23 16.46 23 20 C24.65 20.33 26.3 20.66 28 21 C27.58 23.27 27.14 25.54 26.69 27.81 C26.32 29.71 26.32 29.71 25.95 31.64 C24.63 36.32 24.63 36.32 22 38 C17.52 37.93 15.12 37.86 11.56 35.12 C8.43 30.87 8.92 27.05 9 22 C8.34 22 7.68 22 7 22 C7 21.34 7 20.68 7 20 C6.46 19.94 5.93 19.88 5.38 19.81 C1.83 18.6 -0.26 16.55 -3 14 C-3 13.34 -3 12.68 -3 12 C-1.68 12.33 -0.36 12.66 1 13 C0.67 12.34 0.34 11.68 0 11 C-0.07 9.13 -0.08 7.25 -0.06 5.38 C-0.05 4.37 -0.04 3.37 -0.04 2.34 C-0.02 1.18 -0.02 1.18 0 0 Z " fill="#605F80" transform="translate(86,70)"/>
<path d="M0 0 C1.32 0 2.64 0 4 0 C4.31 16.5 4.31 16.5 0.11 23.98 C-1.51 26.93 -2.76 30.02 -4.07 33.12 C-5 35 -5 35 -7 37 C-6.34 37.33 -5.68 37.66 -5 38 C-5 38.66 -5 39.32 -5 40 C-6.98 40 -8.96 40 -11 40 C-11 38.35 -11 36.7 -11 35 C-12.98 35 -14.96 35 -17 35 C-17 34.01 -17 33.02 -17 32 C-17.66 32 -18.32 32 -19 32 C-19.55 25.63 -17.85 20.69 -15 15 C-14.34 14.34 -13.68 13.68 -13 13 C-12.01 13 -11.02 13 -10 13 C-9.67 11.68 -9.34 10.36 -9 9 C-8.34 9 -7.68 9 -7 9 C-6.34 7.68 -5.68 6.36 -5 5 C-4.34 5 -3.68 5 -3 5 C-3 4.34 -3 3.68 -3 3 C-2.34 3 -1.68 3 -1 3 C-0.67 2.01 -0.34 1.02 0 0 Z " fill="#3B3B4F" transform="translate(41,73)"/>
<path d="M0 0 C2.79 -0.22 5.35 -0.28 8.12 -0.19 C8.88 -0.17 9.63 -0.16 10.41 -0.15 C12.27 -0.11 14.14 -0.06 16 0 C16 0.33 16 0.66 16 1 C11.38 1.33 6.76 1.66 2 2 C4.13 2.2 4.13 2.2 6.31 2.4 C8.21 2.58 10.1 2.76 12 2.94 C12.93 3.02 13.87 3.11 14.83 3.2 C31.19 4.75 31.19 4.75 36 7 C36 7.99 36 8.98 36 10 C34.02 10 32.04 10 30 10 C30 10.66 30 11.32 30 12 C31.98 12 33.96 12 36 12 C36 12.33 36 12.66 36 13 C31.55 13.5 31.55 13.5 27 14 C31.95 14.5 31.95 14.5 37 15 C37 15.66 37 16.32 37 17 C37.66 17.33 38.32 17.66 39 18 C35.05 18.02 31.1 18.04 27.15 18.05 C25.14 18.06 23.13 18.08 21.13 18.09 C19.24 18.09 19.24 18.09 17.32 18.1 C16.16 18.1 15 18.11 13.8 18.11 C11 18 11 18 9 17 C7.15 16.88 5.3 16.82 3.45 16.79 C1.71 16.76 1.71 16.76 -0.07 16.73 C-1.33 16.72 -2.59 16.7 -3.88 16.68 C-5.81 16.65 -5.81 16.65 -7.78 16.62 C-11.19 16.57 -14.61 16.52 -18.02 16.47 C-21.51 16.42 -24.99 16.36 -28.48 16.31 C-35.32 16.2 -42.16 16.1 -49 16 C-49 15.67 -49 15.34 -49 15 C-27.22 14.67 -5.44 14.34 17 14 C17 11.69 17 9.38 17 7 C13.5 5.25 9.28 5.63 5.41 5.48 C0.21 5.21 0.21 5.21 -2 3 C-1.34 2.01 -0.68 1.02 0 0 Z " fill="#7574BB" transform="translate(93,125)"/>
<path d="M0 0 C8.17 5.86 18.25 14.14 20.18 24.57 C18.86 24.57 17.54 24.57 16.18 24.57 C15.71 23.62 15.23 22.67 14.75 21.69 C9.78 13.24 3.85 7.4 -4.88 3 C-5.87 2.5 -5.87 2.5 -6.88 1.99 C-11.54 -0.2 -15.69 -1.02 -20.82 -1.43 C-21.15 -0.11 -21.48 1.21 -21.82 2.57 C-24.13 2.24 -26.44 1.91 -28.82 1.57 C-28.82 0.25 -28.82 -1.07 -28.82 -2.43 C-38.43 -0.01 -38.43 -0.01 -47.5 3.88 C-48.6 4.44 -49.69 4.99 -50.82 5.57 C-51.81 5.24 -52.8 4.91 -53.82 4.57 C-45.55 -0.8 -45.55 -0.8 -40.82 -2.43 C-40.82 -3.09 -40.82 -3.75 -40.82 -4.43 C-27.21 -8.06 -12.28 -7.55 0 0 Z " fill="#EDECFB" transform="translate(92.81640625,65.43359375)"/>
<path d="M0 0 C0.73 1.85 0.73 1.85 1.19 4.06 C1.35 4.8 1.5 5.53 1.67 6.29 C1.78 6.85 1.89 7.42 2 8 C1.34 8 0.68 8 0 8 C0.66 9.98 1.32 11.96 2 14 C2.66 14 3.32 14 4 14 C4 14.66 4 15.32 4 16 C4.66 16.33 5.32 16.66 6 17 C5.67 17.99 5.34 18.98 5 20 C6.98 20 8.96 20 11 20 C11 20.66 11 21.32 11 22 C8.69 22.33 6.38 22.66 4 23 C3.34 22.01 2.68 21.02 2 20 C1.01 19.67 0.02 19.34 -1 19 C-3.19 20.37 -3.19 20.37 -5 22 C-8.16 20.63 -8.99 20.01 -11 17 C-11 16.01 -11 15.02 -11 14 C-10.34 14 -9.68 14 -9 14 C-9 13.01 -9 12.02 -9 11 C-9.66 11 -10.32 11 -11 11 C-11.66 8.36 -12.32 5.72 -13 3 C-14.65 3 -16.3 3 -18 3 C-18 2.01 -18 1.02 -18 0 C-15.56 -0.19 -13.13 -0.38 -10.69 -0.56 C-10 -0.62 -9.31 -0.67 -8.6 -0.73 C-5.37 -0.97 -3.1 -1.03 0 0 Z " fill="#47476C" transform="translate(40,115)"/>
<path d="M0 0 C2.4 -0.05 4.79 -0.09 7.19 -0.12 C8.2 -0.15 8.2 -0.15 9.23 -0.18 C13.29 -0.22 16.35 0.2 20 2 C19.58 4.27 19.14 6.54 18.69 8.81 C18.44 10.08 18.2 11.34 17.95 12.64 C16.63 17.32 16.63 17.32 14 19 C9.84 18.93 7.2 18.7 3.62 16.62 C0.6 11.74 0 5.69 0 0 Z " fill="#433EC0" transform="translate(94,89)"/>
<path d="M0 0 C3 1 3 1 4 3 C20.34 3.5 20.34 3.5 37 4 C37 4.66 37 5.32 37 6 C35.02 6.33 33.04 6.66 31 7 C31.19 7.58 31.37 8.16 31.56 8.75 C32.04 11.21 31.76 12.64 31 15 C28.36 15 25.72 15 23 15 C23 14.34 23 13.68 23 13 C20.69 13 18.38 13 16 13 C16 13.66 16 14.32 16 15 C12.37 15 8.74 15 5 15 C5 14.67 5 14.34 5 14 C6.98 14 8.96 14 11 14 C11 13.34 11 12.68 11 12 C9.02 12 7.04 12 5 12 C4.67 10.02 4.34 8.04 4 6 C3.34 6 2.68 6 2 6 C1.34 4.02 0.68 2.04 0 0 Z " fill="#6666B1" transform="translate(40,123)"/>
<path d="M0 0 C12.87 0 25.74 0 39 0 C39 0.99 39 1.98 39 3 C37.68 3 36.36 3 35 3 C34.67 4.65 34.34 6.3 34 8 C29.71 8 25.42 8 21 8 C21 7.34 21 6.68 21 6 C19.68 6 18.36 6 17 6 C17 6.66 17 7.32 17 8 C14.62 8.03 12.25 8.05 9.88 8.06 C8.88 8.08 8.88 8.08 7.86 8.09 C3.79 8.11 -0.01 7.79 -4 7 C-4 6.67 -4 6.34 -4 6 C-1.69 6 0.62 6 3 6 C3 5.34 3 4.68 3 4 C1.02 4 -0.96 4 -3 4 C-3 3.67 -3 3.34 -3 3 C-1.02 3 0.96 3 3 3 C3 2.34 3 1.68 3 1 C2.01 0.67 1.02 0.34 0 0 Z " fill="#35366C" transform="translate(69,130)"/>
<path d="M0 0 C0.5 1.49 0.5 1.49 1 3 C0.34 3.66 -0.32 4.32 -1 5 C-4.56 4.75 -4.56 4.75 -8 4 C-8.5 3.01 -8.5 3.01 -9 2 C-9 2.99 -9 3.98 -9 5 C-7.02 5 -5.04 5 -3 5 C-3 5.66 -3 6.32 -3 7 C-5.64 7.33 -8.28 7.66 -11 8 C-10.67 6.02 -10.34 4.04 -10 2 C-10.66 2 -11.32 2 -12 2 C-12 2.99 -12 3.98 -12 5 C-16.75 3.12 -16.75 3.12 -19 2 C-19 3.65 -19 5.3 -19 7 C-21.31 7 -23.62 7 -26 7 C-26 5.68 -26 4.36 -26 3 C-29.3 2.67 -32.6 2.34 -36 2 C-36.33 3.98 -36.66 5.96 -37 8 C-36.34 8 -35.68 8 -35 8 C-35 6.35 -35 4.7 -35 3 C-32.69 3 -30.38 3 -28 3 C-28 4.32 -28 5.64 -28 7 C-29.65 7.33 -31.3 7.66 -33 8 C-33.33 9.32 -33.66 10.64 -34 12 C-33.34 12.33 -32.68 12.66 -32 13 C-33.65 12.67 -35.3 12.34 -37 12 C-37 11.34 -37 10.68 -37 10 C-40.63 10 -44.26 10 -48 10 C-47 8 -47 8 -44 7 C-44 5.68 -44 4.36 -44 3 C-43.34 2.67 -42.68 2.34 -42 2 C-42.33 1.34 -42.66 0.68 -43 0 C-28.57 -0.87 -14.42 -1.03 0 0 Z " fill="#575885" transform="translate(167,130)"/>
<path d="M0 0 C1.14 0 1.14 0 2.29 0.01 C3.47 0.02 3.47 0.02 4.68 0.04 C5.47 0.04 6.27 0.04 7.09 0.05 C9.06 0.06 11.02 0.08 12.99 0.1 C12.66 2.74 12.33 5.38 11.99 8.1 C12.98 8.1 13.97 8.1 14.99 8.1 C14.99 8.76 14.99 9.42 14.99 10.1 C12.03 12.89 9.74 13.52 5.74 13.79 C4.85 13.85 3.95 13.92 3.04 13.98 C2.36 14.02 1.68 14.06 0.99 14.1 C1.32 13.11 1.65 12.12 1.99 11.1 C1.38 10.93 0.78 10.76 0.16 10.58 C-4.52 9.16 -7.86 8.07 -11.01 4.1 C-10.02 3.77 -9.03 3.44 -8.01 3.1 C-7.68 2.44 -7.35 1.78 -7.01 1.1 C-4.3 0.2 -2.77 -0.02 0 0 Z " fill="#030311" transform="translate(52.01171875,141.90234375)"/>
<path d="M0 0 C1.32 0 2.64 0 4 0 C4.16 8.64 4.29 16.48 -0.01 24.17 C-1.36 26.67 -2.19 29.28 -3 32 C-3.99 31.67 -4.98 31.34 -6 31 C-6.73 28.93 -6.73 28.93 -7.19 26.44 C-7.35 25.61 -7.5 24.78 -7.67 23.93 C-7.83 22.98 -7.83 22.98 -8 22 C-7.34 22 -6.68 22 -6 22 C-6.33 17.05 -6.66 12.1 -7 7 C-5.68 6.34 -4.36 5.68 -3 5 C-3 4.34 -3 3.68 -3 3 C-2.34 3 -1.68 3 -1 3 C-0.67 2.01 -0.34 1.02 0 0 Z " fill="#504F70" transform="translate(41,73)"/>
<path d="M0 0 C2.47 0.5 2.47 0.5 5 1 C1.36 4.94 -2.27 7.64 -6.94 10.25 C-7.53 10.6 -8.13 10.95 -8.74 11.31 C-14.97 14.85 -20.02 15.52 -27 14 C-29.94 12.56 -29.94 12.56 -32 11 C-32 10.34 -32 9.68 -32 9 C-32.99 9 -33.98 9 -35 9 C-35 7.35 -35 5.7 -35 4 C-32.36 4 -29.72 4 -27 4 C-26.34 6.31 -25.68 8.62 -25 11 C-22.03 11.5 -22.03 11.5 -19 12 C-19 11.34 -19 10.68 -19 10 C-18.29 9.84 -17.57 9.68 -16.84 9.52 C-10.48 7.97 -6.01 6.24 -1 2 C-0.67 1.34 -0.34 0.68 0 0 Z " fill="#272643" transform="translate(99,141)"/>
<path d="M0 0 C5.81 1.74 10.83 3.81 16 7 C14 8 14 8 12.05 7.44 C10.04 6.63 8.02 5.81 6 5 C6.33 9.29 6.66 13.58 7 18 C1.35 18 -0.37 17.65 -5 15 C-5 14.34 -5 13.68 -5 13 C-4.01 13 -3.02 13 -2 13 C-2.02 12.23 -2.05 11.46 -2.07 10.66 C-2.09 9.66 -2.11 8.66 -2.12 7.62 C-2.15 6.63 -2.17 5.63 -2.2 4.6 C-2 2 -2 2 0 0 Z " fill="#B8B9C3" transform="translate(80,65)"/>
<path d="M0 0 C-0.33 3.3 -0.66 6.6 -1 10 C-1.99 9.67 -2.98 9.34 -4 9 C-4 9.66 -4 10.32 -4 11 C-4.7 10.86 -5.4 10.71 -6.12 10.56 C-9.08 9.99 -12.03 9.48 -15 9 C-14.01 5.7 -13.02 2.4 -12 -1 C-7.31 -2.12 -4.46 -1.81 0 0 Z " fill="#564CD9" transform="translate(109,113)"/>
<path d="M0 0 C1.21 0.43 1.21 0.43 2.44 0.88 C2.95 7.78 1.31 12.62 -1.56 18.88 C-2.55 18.88 -3.54 18.88 -4.56 18.88 C-3.9 13.92 -3.24 8.97 -2.56 3.88 C-3.88 4.2 -5.2 4.53 -6.56 4.88 C-6.89 5.53 -7.22 6.19 -7.56 6.88 C-8.22 6.88 -8.88 6.88 -9.56 6.88 C-9.56 7.53 -9.56 8.19 -9.56 8.88 C-11.44 11 -11.44 11 -13.56 12.88 C-14.22 12.88 -14.88 12.88 -15.56 12.88 C-15.89 14.19 -16.22 15.52 -16.56 16.88 C-17.55 16.55 -18.54 16.22 -19.56 15.88 C-15.39 8.57 -9.3 -0.33 0 0 Z " fill="#92919E" transform="translate(47.5625,69.125)"/>
<path d="M0 0 C3.63 0.33 7.26 0.66 11 1 C11.81 5.03 12.27 8.74 12.56 12.81 C12.65 13.97 12.73 15.14 12.82 16.33 C12.88 17.21 12.94 18.09 13 19 C13.99 19.33 14.98 19.66 16 20 C14.35 20.66 12.7 21.32 11 22 C7 17.38 7 17.38 7 14 C7.66 14 8.32 14 9 14 C9 13.01 9 12.02 9 11 C8.34 11 7.68 11 7 11 C6.34 8.36 5.68 5.72 5 3 C3.35 3 1.7 3 0 3 C0 2.01 0 1.02 0 0 Z " fill="#3A3B4F" transform="translate(22,115)"/>
<path d="M0 0 C1.26 3.79 0.9 6.12 0 10 C-2.06 11.94 -2.06 11.94 -4 13 C-4 11.68 -4 10.36 -4 9 C-5.3 9.02 -6.6 9.04 -7.94 9.06 C-9.29 9.08 -10.65 9.07 -12 9 C-13 8 -13 8 -13.06 4.44 C-13.04 3.3 -13.02 2.17 -13 1 C-11.02 1 -9.04 1 -7 1 C-6.67 1.66 -6.34 2.32 -6 3 C-5.34 3 -4.68 3 -4 3 C-4 2.34 -4 1.68 -4 1 C-2.68 0.67 -1.36 0.34 0 0 Z " fill="#5855DC" transform="translate(111,95)"/>
<path d="M0 0 C0.62 0.78 1.24 1.57 1.88 2.38 C3.9 4.97 3.9 4.97 6 7 C6.52 7.72 7.03 8.44 7.56 9.19 C14.02 16.64 22.15 20.91 31 25 C31 25.66 31 26.32 31 27 C20.52 26.54 13.11 19.75 6.14 12.47 C2.84 8.66 0 5.23 0 0 Z " fill="#6D69A3" transform="translate(23,128)"/>
<path d="M0 0 C0.33 1.32 0.66 2.64 1 4 C1.66 4 2.32 4 3 4 C3 4.99 3 5.98 3 7 C4.98 7 6.96 7 9 7 C9 8.65 9 10.3 9 12 C12.3 11.67 15.6 11.34 19 11 C19.33 11.66 19.66 12.32 20 13 C15.95 14.11 11.93 14.34 7.75 14.56 C7 14.61 6.26 14.65 5.49 14.69 C3.66 14.8 1.83 14.9 0 15 C0 10.05 0 5.1 0 0 Z " fill="#7976B3" transform="translate(21,101)"/>
<path d="M0 0 C7.98 1.51 12.87 3.61 18 10 C17.01 10.5 17.01 10.5 16 11 C12.37 8.36 8.74 5.72 5 3 C5.33 6.96 5.66 10.92 6 15 C4.35 14.67 2.7 14.34 1 14 C-0.05 10.85 -0.1 8.61 -0.06 5.31 C-0.05 4.32 -0.04 3.32 -0.04 2.3 C-0.02 1.54 -0.01 0.78 0 0 Z " fill="#858696" transform="translate(86,70)"/>
<path d="M0 0 C0.33 0.66 0.66 1.32 1 2 C1.99 2 2.98 2 4 2 C5.76 5.09 6 6.23 6 10 C6.66 10 7.32 10 8 10 C8 10.99 8 11.98 8 13 C7.34 13 6.68 13 6 13 C6.99 14.98 7.98 16.96 9 19 C10.32 19 11.64 19 13 19 C13.33 19.66 13.66 20.32 14 21 C13.67 21.66 13.34 22.32 13 23 C12.34 23 11.68 23 11 23 C10.67 23.66 10.34 24.32 10 25 C-0.68 9.08 -0.68 9.08 0 0 Z " fill="#27283E" transform="translate(23,116)"/>
<path d="M0 0 C1.32 0 2.64 0 4 0 C4.08 4.46 4.01 8.87 3.69 13.31 C3.63 14.13 3.57 14.95 3.51 15.8 C2.91 18.38 2.01 19.34 0 21 C-0.66 20.67 -1.32 20.34 -2 20 C-1.81 19.38 -1.63 18.76 -1.44 18.12 C-0.76 13.29 -0.78 7.44 -3 3 C-2.34 3 -1.68 3 -1 3 C-0.67 2.01 -0.34 1.02 0 0 Z " fill="#6F6F85" transform="translate(41,73)"/>
<path d="M0 0 C0.66 0 1.32 0 2 0 C2 6.6 2 13.2 2 20 C2.66 20.33 3.32 20.66 4 21 C4.75 23.07 4.75 23.07 5.44 25.69 C6.33 28.9 7.25 31.49 8.75 34.5 C9.16 35.32 9.57 36.15 10 37 C9.67 37.66 9.34 38.32 9 39 C8.66 38.52 8.32 38.04 7.98 37.54 C7.53 36.91 7.08 36.28 6.62 35.62 C6.18 35 5.74 34.37 5.29 33.73 C3.97 31.88 3.97 31.88 2 30 C-1.48 20.36 -2.29 10.01 0 0 Z " fill="#A29DD7" transform="translate(19,97)"/>
<path d="M0 0 C-0.99 0.49 -0.99 0.49 -2 1 C-2 2.98 -2 4.96 -2 7 C-1.01 7.33 -0.02 7.66 1 8 C0.67 10.64 0.34 13.28 0 16 C-0.99 16.33 -1.98 16.66 -3 17 C-3 16.34 -3 15.68 -3 15 C-3.99 15 -4.98 15 -6 15 C-5.67 11.37 -5.34 7.74 -5 4 C-6.65 4 -8.3 4 -10 4 C-9.34 3.67 -8.68 3.34 -8 3 C-8 2.34 -8 1.68 -8 1 C-5.07 0.02 -3.04 -0.08 0 0 Z " fill="#D0D0E5" transform="translate(64,63)"/>
<path d="M0 0 C0.99 1.49 0.99 1.49 2 3 C-5.75 3.12 -5.75 3.12 -8 2 C-9.85 1.88 -11.7 1.82 -13.55 1.79 C-15.29 1.76 -15.29 1.76 -17.07 1.73 C-18.33 1.72 -19.59 1.7 -20.88 1.68 C-22.17 1.66 -23.45 1.64 -24.78 1.62 C-28.19 1.57 -31.61 1.52 -35.02 1.47 C-38.51 1.42 -41.99 1.36 -45.48 1.31 C-52.32 1.2 -59.16 1.1 -66 1 C-66 0.67 -66 0.34 -66 0 C-57.99 -0.15 -49.97 -0.3 -41.96 -0.44 C-38.23 -0.51 -34.51 -0.58 -30.79 -0.65 C-27.2 -0.72 -23.61 -0.78 -20.01 -0.84 C-18.64 -0.87 -17.27 -0.89 -15.91 -0.92 C-13.99 -0.96 -12.07 -0.99 -10.15 -1.02 C-9.05 -1.04 -7.96 -1.06 -6.83 -1.08 C-4.31 -1.01 -2.34 -0.92 0 0 Z " fill="#706F85" transform="translate(110,140)"/>
<path d="M0 0 C0.99 0.33 1.98 0.66 3 1 C3.73 2.85 3.73 2.85 4.19 5.06 C4.35 5.8 4.5 6.53 4.67 7.29 C4.83 8.13 4.83 8.13 5 9 C4.34 9 3.68 9 3 9 C3.6 11.02 4.27 13.02 5 15 C5.66 15.33 6.32 15.66 7 16 C4 18 4 18 1 18 C-1.1 13.92 -1.15 10.56 -0.97 6.09 C-0.9 3.8 -0.9 3.8 -2 1 C-1.34 0.67 -0.68 0.34 0 0 Z " fill="#555690" transform="translate(37,114)"/>
<path d="M0 0 C4.95 0 9.9 0 15 0 C13 5 13 5 12 6 C12.66 6.33 13.32 6.66 14 7 C14 7.66 14 8.32 14 9 C12.02 9 10.04 9 8 9 C8 7.35 8 5.7 8 4 C6.02 4 4.04 4 2 4 C2 3.01 2 2.02 2 1 C1.34 0.67 0.68 0.34 0 0 Z " fill="#110D68" transform="translate(22,104)"/>
<path d="M0 0 C5.61 0 11.22 0 17 0 C16.67 1.98 16.34 3.96 16 6 C13.36 6 10.72 6 8 6 C8 5.34 8 4.68 8 4 C5.69 4 3.38 4 1 4 C1 4.66 1 5.32 1 6 C0.34 6 -0.32 6 -1 6 C-0.67 4.02 -0.34 2.04 0 0 Z " fill="#9D9DC6" transform="translate(55,132)"/>
<path d="M0 0 C3.63 0 7.26 0 11 0 C10.67 2.31 10.34 4.62 10 7 C9.01 7 8.02 7 7 7 C7 7.66 7 8.32 7 9 C6.34 9 5.68 9 5 9 C4.67 7.68 4.34 6.36 4 5 C4 6.65 4 8.3 4 10 C3.34 10 2.68 10 2 10 C1.34 6.7 0.68 3.4 0 0 Z " fill="#817FB4" transform="translate(207,127)"/>
<path d="M0 0 C2.44 -0.05 4.87 -0.09 7.31 -0.12 C8 -0.14 8.69 -0.16 9.4 -0.18 C13.17 -0.21 14.78 -0.14 18 2 C18 2.66 18 3.32 18 4 C9.59 4.5 9.59 4.5 1 5 C0.67 3.35 0.34 1.7 0 0 Z " fill="#100B8C" transform="translate(94,89)"/>
<path d="M0 0 C1.03 0 2.06 0.01 3.12 0.01 C4.75 0.02 4.75 0.02 6.4 0.04 C8.03 0.04 8.03 0.04 9.7 0.05 C12.39 0.06 15.08 0.08 17.77 0.1 C17.77 0.76 17.77 1.42 17.77 2.1 C-0.32 3.69 -0.32 3.69 -5.23 3.1 C-5.89 2.44 -6.55 1.78 -7.23 1.1 C-4.67 -0.18 -2.86 -0.02 0 0 Z " fill="#595AD2" transform="translate(59.2265625,126.90234375)"/>
<path d="M0 0 C2.64 0.33 5.28 0.66 8 1 C8 5.62 8 10.24 8 15 C6.35 15 4.7 15 3 15 C3.33 14.01 3.66 13.02 4 12 C3.36 9.99 2.69 7.99 2 6 C2 4.68 2 3.36 2 2 C1.34 1.34 0.68 0.68 0 0 Z " fill="#A0A2AF" transform="translate(79,68)"/>
<path d="M0 0 C2.64 0.66 5.28 1.32 8 2 C8 2.99 8 3.98 8 5 C8.66 5.33 9.32 5.66 10 6 C3.07 6 -3.86 6 -11 6 C-10.67 5.34 -10.34 4.68 -10 4 C-7.06 3.59 -7.06 3.59 -3.44 3.38 C-2.24 3.3 -1.04 3.23 0.19 3.15 C1.12 3.1 2.05 3.05 3 3 C2.01 2.67 1.02 2.34 0 2 C0 1.34 0 0.68 0 0 Z " fill="#3A3B83" transform="translate(105,122)"/>
<path d="M0 0 C2.02 0.07 4.04 0.13 6.05 0.2 C6.05 2.18 6.05 4.16 6.05 6.2 C3.41 6.2 0.77 6.2 -1.95 6.2 C-2.61 4.88 -3.27 3.56 -3.95 2.2 C-1.95 0.2 -1.95 0.2 0 0 Z " fill="#BFC2E5" transform="translate(76.9453125,131.8046875)"/>
<path d="M0 0 C0.66 0 1.32 0 2 0 C2 0.99 2 1.98 2 3 C4.31 3.33 6.62 3.66 9 4 C9 2.68 9 1.36 9 0 C9.66 0 10.32 0 11 0 C11.12 2.88 11.12 2.88 11 6 C9 8 9 8 6.62 8.25 C3.93 7.99 2.31 7.37 0 6 C0 4.02 0 2.04 0 0 Z " fill="#8B86BC" transform="translate(62,64)"/>
<path d="M0 0 C5.28 0 10.56 0 16 0 C16 0.99 16 1.98 16 3 C14.02 3 12.04 3 10 3 C10 3.66 10 4.32 10 5 C11.98 5 13.96 5 16 5 C16 5.33 16 5.66 16 6 C13.36 6 10.72 6 8 6 C8 4.35 8 2.7 8 1 C7.67 1.66 7.34 2.32 7 3 C5.02 3 3.04 3 1 3 C1 3.99 1 4.98 1 6 C0.34 6 -0.32 6 -1 6 C-0.67 4.02 -0.34 2.04 0 0 Z " fill="#BFC1DF" transform="translate(131,132)"/>
<path d="M0 0 C1.65 0 3.3 0 5 0 C5.69 10.75 5.69 10.75 3.12 14.62 C1 17 1 17 -1 18 C-0.87 17.44 -0.73 16.89 -0.6 16.31 C0.58 11.21 1.43 6.2 2 1 C1.34 0.67 0.68 0.34 0 0 Z " fill="#A1A0B0" transform="translate(48,69)"/>
<path d="M0 0 C1.32 0 2.64 0 4 0 C4 1.32 4 2.64 4 4 C4.66 4 5.32 4 6 4 C6 3.01 6 2.02 6 1 C6.99 1 7.98 1 9 1 C9.33 3.31 9.66 5.62 10 8 C11.32 8.33 12.64 8.66 14 9 C14 9.66 14 10.32 14 11 C12.02 11 10.04 11 8 11 C7.67 9.35 7.34 7.7 7 6 C5.35 6 3.7 6 2 6 C2 4.35 2 2.7 2 1 C1.34 0.67 0.68 0.34 0 0 Z " fill="#A4A1C3" transform="translate(185,131)"/>
<path d="M0 0 C2.87 1.29 4.98 2.57 7 5 C7 5.66 7 6.32 7 7 C7.66 7.33 8.32 7.66 9 8 C5.04 8 1.08 8 -3 8 C-2.01 7.67 -1.02 7.34 0 7 C-0.28 5.82 -0.28 5.82 -0.56 4.62 C-1 2 -1 2 0 0 Z " fill="#414179" transform="translate(99,81)"/>
<path d="M0 0 C2.06 0.44 2.06 0.44 4 1 C4 2.98 4 4.96 4 7 C1.36 7.66 -1.28 8.32 -4 9 C-4.33 8.01 -4.66 7.02 -5 6 C-4.34 6 -3.68 6 -3 6 C-2.69 5.2 -2.38 4.39 -2.06 3.56 C-1 1 -1 1 0 0 Z " fill="#0A0452" transform="translate(39,133)"/>
<path d="M0 0 C1.48 0.42 2.96 0.86 4.44 1.31 C5.67 1.68 5.67 1.68 6.93 2.05 C7.62 2.36 8.3 2.68 9 3 C9.33 3.99 9.66 4.98 10 6 C10.99 6.33 11.98 6.66 13 7 C12.34 7 11.68 7 11 7 C10.67 7.99 10.34 8.98 10 10 C10 9.34 10 8.68 10 8 C9.46 7.94 8.93 7.88 8.38 7.81 C4.83 6.6 2.74 4.55 0 2 C0 1.34 0 0.68 0 0 Z " fill="#6968BD" transform="translate(83,82)"/>
<path d="M0 0 C2.64 0 5.28 0 8 0 C7.67 1.98 7.34 3.96 7 6 C6.34 6 5.68 6 5 6 C5 5.34 5 4.68 5 4 C3.68 4 2.36 4 1 4 C1 4.66 1 5.32 1 6 C0.34 6 -0.32 6 -1 6 C-0.67 4.02 -0.34 2.04 0 0 Z " fill="#C3C4E8" transform="translate(85,132)"/>
<path d="M0 0 C1.98 0.99 3.96 1.98 6 3 C6 2.01 6 1.02 6 0 C6.66 0 7.32 0 8 0 C7.67 1.98 7.34 3.96 7 6 C4.36 6.33 1.72 6.66 -1 7 C-1.04 5 -1.04 3 -1 1 C-0.67 0.67 -0.34 0.34 0 0 Z " fill="#C1C0DF" transform="translate(196,132)"/>
<path d="M0 0 C0.72 0 1.44 0.01 2.19 0.01 C2.91 0.01 3.63 0 4.38 0 C6.19 0.13 6.19 0.13 7.19 1.13 C9.52 1.5 11.85 1.84 14.19 2.13 C14.19 2.46 14.19 2.79 14.19 3.13 C9.24 3.13 4.29 3.13 -0.81 3.13 C-1.14 4.12 -1.47 5.11 -1.81 6.13 C-2.14 6.13 -2.47 6.13 -2.81 6.13 C-2.86 4.47 -2.85 2.8 -2.81 1.13 C-1.81 0.13 -1.81 0.13 0 0 Z " fill="#4A48A9" transform="translate(93.8125,121.8671875)"/>
<path d="M0 0 C3.35 3.81 5.17 7.33 7 12 C5.68 12 4.36 12 3 12 C-1 5.38 -1 5.38 -1 2 C-0.67 1.34 -0.34 0.68 0 0 Z " fill="#C0BEF2" transform="translate(106,78)"/>
<path d="M0 0 C1.32 0.33 2.64 0.66 4 1 C3.67 4.3 3.34 7.6 3 11 C2.67 11 2.34 11 2 11 C1.67 8.69 1.34 6.38 1 4 C-0.98 4 -2.96 4 -5 4 C-5.33 4.66 -5.66 5.32 -6 6 C-6 4.68 -6 3.36 -6 2 C-4.02 2 -2.04 2 0 2 C0 1.34 0 0.68 0 0 Z " fill="#7474D6" transform="translate(105,112)"/>
<path d="M0 0 C0.66 0 1.32 0 2 0 C1.34 6.75 0.28 13.34 -1 20 C-1.66 20 -2.32 20 -3 20 C-2.45 13.21 -1.46 6.65 0 0 Z " fill="#D9DDDE" transform="translate(216,96)"/>
<path d="M0 0 C0.66 0.99 1.32 1.98 2 3 C-5.75 3.12 -5.75 3.12 -8 2 C-10.04 1.77 -12.08 1.59 -14.12 1.44 C-15.77 1.31 -15.77 1.31 -17.45 1.18 C-18.29 1.12 -19.13 1.06 -20 1 C-20 0.67 -20 0.34 -20 0 C-17.42 -0.2 -14.83 -0.38 -12.25 -0.56 C-11.52 -0.62 -10.79 -0.67 -10.04 -0.73 C-3.24 -1.2 -3.24 -1.2 0 0 Z " fill="#625FA1" transform="translate(110,140)"/>
<path d="M0 0 C2.64 0 5.28 0 8 0 C8 2.31 8 4.62 8 7 C5.36 7 2.72 7 0 7 C0 6.34 0 5.68 0 5 C1.98 5 3.96 5 6 5 C6 4.34 6 3.68 6 3 C4.02 3 2.04 3 0 3 C0 2.01 0 1.02 0 0 Z " fill="#BBBCC4" transform="translate(158,132)"/>
<path d="M0 0 C1.32 0.66 2.64 1.32 4 2 C3.67 2.99 3.34 3.98 3 5 C4.98 5 6.96 5 9 5 C9 5.66 9 6.32 9 7 C6.69 7.33 4.38 7.66 2 8 C1.34 7.01 0.68 6.02 0 5 C-0.66 4.67 -1.32 4.34 -2 4 C-1.34 2.68 -0.68 1.36 0 0 Z " fill="#2C2A6B" transform="translate(42,130)"/>
<path d="M0 0 C2.64 0 5.28 0 8 0 C7.67 1.98 7.34 3.96 7 6 C4.36 6 1.72 6 -1 6 C-0.67 4.02 -0.34 2.04 0 0 Z " fill="#B6B7DB" transform="translate(64,132)"/>
<path d="M0 0 C0.33 0 0.66 0 1 0 C1.21 5.79 0.59 10.43 -1 16 C-3.47 15.01 -3.47 15.01 -6 14 C-5.34 13.67 -4.68 13.34 -4 13 C-3.66 11.67 -3.32 10.34 -3 9 C-2.34 8.34 -1.68 7.68 -1 7 C-0.6 4.68 -0.26 2.34 0 0 Z " fill="#DBD9F1" transform="translate(111,98)"/>
<path d="M0 0 C0.99 0 1.98 0 3 0 C3 1.65 3 3.3 3 5 C4.98 4.67 6.96 4.34 9 4 C9 4.99 9 5.98 9 7 C6.03 7 3.06 7 0 7 C0 4.69 0 2.38 0 0 Z " fill="#CACDE9" transform="translate(184,132)"/>
<path d="M0 0 C2.79 -0.22 5.35 -0.28 8.12 -0.19 C8.88 -0.17 9.63 -0.16 10.41 -0.15 C12.27 -0.11 14.14 -0.06 16 0 C16 0.33 16 0.66 16 1 C11.38 1.33 6.76 1.66 2 2 C4.47 2.99 4.47 2.99 7 4 C7 4.33 7 4.66 7 5 C3.62 5.12 3.62 5.12 0 5 C-0.66 4.34 -1.32 3.68 -2 3 C-1.34 2.01 -0.68 1.02 0 0 Z " fill="#9A9ADD" transform="translate(93,125)"/>
<path d="M0 0 C2.64 0 5.28 0 8 0 C7.01 0.33 6.02 0.66 5 1 C5.31 1.9 5.31 1.9 5.62 2.81 C6 5 6 5 4 8 C3.34 7.34 2.68 6.68 2 6 C1.34 6.66 0.68 7.32 0 8 C0 5.36 0 2.72 0 0 Z " fill="#58579B" transform="translate(203,130)"/>
<path d="M0 0 C0.33 0.66 0.66 1.32 1 2 C2.98 1.67 4.96 1.34 7 1 C7 1.99 7 2.98 7 4 C7.99 4.33 8.98 4.66 10 5 C10.66 5.33 11.32 5.66 12 6 C12 6.66 12 7.32 12 8 C10.02 8 8.04 8 6 8 C6 6.35 6 4.7 6 3 C4.02 3 2.04 3 0 3 C0 2.01 0 1.02 0 0 Z " fill="#2E2797" transform="translate(24,105)"/>
<path d="M0 0 C-3.59 2.26 -6.57 2.21 -10.75 2.12 C-11.92 2.11 -13.09 2.09 -14.3 2.07 C-15.63 2.04 -15.63 2.04 -17 2 C-11.59 -0.95 -5.93 -1.67 0 0 Z " fill="#9F9BE7" transform="translate(41,113)"/>
<path d="M0 0 C-2.5 2.08 -5.14 3.71 -8 5.25 C-8.66 5.61 -9.32 5.96 -10 6.33 C-12.4 7.13 -13.65 6.82 -16 6 C-14.28 4.99 -12.55 3.99 -10.81 3 C-9.85 2.44 -8.89 1.89 -7.89 1.31 C-4.95 -0.02 -3.18 -0.28 0 0 Z " fill="#D5D0EF" transform="translate(54,62)"/>
<path d="M0 0 C2.31 0 4.62 0 7 0 C7 1.32 7 2.64 7 4 C4.69 4 2.38 4 0 4 C0 2.68 0 1.36 0 0 Z " fill="#82818D" transform="translate(64,145)"/>
<path d="M0 0 C1.32 0.33 2.64 0.66 4 1 C3.34 1 2.68 1 2 1 C2 2.32 2 3.64 2 5 C3.98 5 5.96 5 8 5 C8 5.66 8 6.32 8 7 C5.36 7 2.72 7 0 7 C0 4.69 0 2.38 0 0 Z " fill="#9B9BBA" transform="translate(94,131)"/>
<path d="M0 0 C2.31 0 4.62 0 7 0 C7 0.99 7 1.98 7 3 C5.02 3 3.04 3 1 3 C1 3.66 1 4.32 1 5 C2.98 5 4.96 5 7 5 C7 5.33 7 5.66 7 6 C4.36 6 1.72 6 -1 6 C-0.67 4.02 -0.34 2.04 0 0 Z " fill="#C2C5E7" transform="translate(122,132)"/>
<path d="M0 0 C0 0.33 0 0.66 0 1 C-2.64 1 -5.28 1 -8 1 C-8.33 2.98 -8.66 4.96 -9 7 C-9.33 7 -9.66 7 -10 7 C-10 5.02 -10 3.04 -10 1 C-11.98 1 -13.96 1 -16 1 C-16 0.67 -16 0.34 -16 0 C-10.5 -1.3 -5.53 -0.71 0 0 Z " fill="#434585" transform="translate(93,131)"/>
<path d="M0 0 C1.98 0 3.96 0 6 0 C6.33 1.98 6.66 3.96 7 6 C6.01 5.67 5.02 5.34 4 5 C4 4.34 4 3.68 4 3 C2.35 3 0.7 3 -1 3 C-0.67 2.01 -0.34 1.02 0 0 Z " fill="#5F5CCB" transform="translate(100,116)"/>
<path d="M0 0 C0.66 0 1.32 0 2 0 C2 1.65 2 3.3 2 5 C1.34 5 0.68 5 0 5 C-0.33 5.99 -0.66 6.98 -1 8 C-1.99 8 -2.98 8 -4 8 C-2.25 2.25 -2.25 2.25 0 0 Z " fill="#4E4F5F" transform="translate(28,86)"/>
<path d="M0 0 C0.9 0.34 0.9 0.34 1.81 0.69 C0.52 2.06 -0.81 3.4 -2.19 4.69 C-2.85 4.69 -3.51 4.69 -4.19 4.69 C-4.52 6.01 -4.85 7.33 -5.19 8.69 C-6.18 8.36 -7.17 8.03 -8.19 7.69 C-3.54 -0.51 -3.54 -0.51 0 0 Z " fill="#726F8F" transform="translate(36.1875,77.3125)"/>
<path d="M0 0 C0.99 0 1.98 0 3 0 C3 5.33 3 10.67 3 16 C2.01 16 1.02 16 0 16 C0.66 11.05 1.32 6.1 2 1 C1.34 0.67 0.68 0.34 0 0 Z " fill="#7B7B96" transform="translate(43,72)"/>
<path d="M0 0 C0.33 0.99 0.66 1.98 1 3 C0.67 3.66 0.34 4.32 0 5 C-2.38 5.19 -2.38 5.19 -5 5 C-5.66 4.01 -6.32 3.02 -7 2 C-4.69 1.34 -2.38 0.68 0 0 Z " fill="#81809A" transform="translate(147,137)"/>
<path d="M0 0 C2.64 0 5.28 0 8 0 C7.67 1.32 7.34 2.64 7 4 C4.69 3.34 2.38 2.68 0 2 C0 1.34 0 0.68 0 0 Z " fill="#1616C4" transform="translate(99,104)"/>
<path d="M0 0 C0.2 6.05 0.2 6.05 0 8 C-0.66 8.66 -1.32 9.32 -2 10 C-2.14 9.26 -2.29 8.52 -2.44 7.75 C-2.9 5.48 -3.42 3.24 -4 1 C-2 0 -2 0 0 0 Z " fill="#636268" transform="translate(42,75)"/>
<path d="M0 0 C2.31 0 4.62 0 7 0 C7 1.32 7 2.64 7 4 C5.02 4.33 3.04 4.66 1 5 C0.67 3.35 0.34 1.7 0 0 Z " fill="#4D5088" transform="translate(132,133)"/>
<path d="M0 0 C1.98 0 3.96 0 6 0 C5.67 1.32 5.34 2.64 5 4 C3.35 4 1.7 4 0 4 C0 2.68 0 1.36 0 0 Z " fill="#3A3B62" transform="translate(76,133)"/>
<path d="M0 0 C0.66 0 1.32 0 2 0 C2 1.98 2 3.96 2 6 C0.02 6.99 0.02 6.99 -2 8 C-1.67 7.01 -1.34 6.02 -1 5 C-2.32 4.67 -3.64 4.34 -5 4 C-4.34 3.67 -3.68 3.34 -3 3 C-2.01 3.33 -1.02 3.66 0 4 C0 2.68 0 1.36 0 0 Z " fill="#A5A7C6" transform="translate(71,64)"/>
<path d="M0 0 C0.33 0 0.66 0 1 0 C1 2.31 1 4.62 1 7 C-0.65 7 -2.3 7 -4 7 C-4 6.34 -4 5.68 -4 5 C-4.99 4.67 -5.98 4.34 -7 4 C-4.69 4 -2.38 4 0 4 C0 2.68 0 1.36 0 0 Z " fill="#19133B" transform="translate(71,145)"/>
<path d="M0 0 C1.24 3.73 0.78 6.18 0 10 C-0.99 10.5 -0.99 10.5 -2 11 C-2 7.7 -2 4.4 -2 1 C-1.34 0.67 -0.68 0.34 0 0 Z " fill="#726DC4" transform="translate(111,95)"/>
<path d="M0 0 C0 0.66 0 1.32 0 2 C-6.75 1.25 -6.75 1.25 -9 -1 C-5.23 -2.26 -3.63 -1.37 0 0 Z " fill="#5C5C6A" transform="translate(54,153)"/>
<path d="M0 0 C1.98 0 3.96 0 6 0 C6 0.66 6 1.32 6 2 C6.66 2.33 7.32 2.66 8 3 C5.03 3 2.06 3 -1 3 C-0.67 2.01 -0.34 1.02 0 0 Z " fill="#B8B7C8" transform="translate(124,140)"/>
<path d="M0 0 C1.32 0 2.64 0 4 0 C4 1.32 4 2.64 4 4 C4.99 4 5.98 4 7 4 C7 4.66 7 5.32 7 6 C5.35 6 3.7 6 2 6 C2 4.35 2 2.7 2 1 C1.34 0.67 0.68 0.34 0 0 Z " fill="#8386C1" transform="translate(185,131)"/>
<path d="M0 0 C3.16 1.37 3.99 1.99 6 5 C4.68 5 3.36 5 2 5 C1.34 4.34 0.68 3.68 0 3 C0 2.01 0 1.02 0 0 Z " fill="#7B7CB5" transform="translate(35,143)"/>
<path d="M0 0 C0.99 0 1.98 0 3 0 C2.83 0.6 2.67 1.2 2.5 1.81 C1.89 4.11 1.89 4.11 2 7 C1.01 6.67 0.02 6.34 -1 6 C-0.67 4.02 -0.34 2.04 0 0 Z " fill="#181850" transform="translate(104,133)"/>
<path d="M0 0 C0 0.99 0 1.98 0 3 C-2.64 3 -5.28 3 -8 3 C-8 2.34 -8 1.68 -8 1 C-2.25 0 -2.25 0 0 0 Z " fill="#3030DC" transform="translate(105,111)"/>
<path d="M0 0 C2.64 0 5.28 0 8 0 C7.67 0.99 7.34 1.98 7 3 C5.68 3 4.36 3 3 3 C3 2.34 3 1.68 3 1 C2.01 0.67 1.02 0.34 0 0 Z " fill="#84829B" transform="translate(116,140)"/>
<path d="M0 0 C2.47 0.5 2.47 0.5 5 1 C5 1.66 5 2.32 5 3 C3.35 3.33 1.7 3.66 0 4 C0 2.68 0 1.36 0 0 Z " fill="#6A6FA0" transform="translate(113,133)"/>
<path d="M0 0 C1.65 0 3.3 0 5 0 C5 1.65 5 3.3 5 5 C4.67 4.34 4.34 3.68 4 3 C2.68 3 1.36 3 0 3 C0 2.01 0 1.02 0 0 Z " fill="#6B6D94" transform="translate(86,133)"/>
<path d="M0 0 C3.4 1.13 4.05 2.13 6 5 C4.68 5.33 3.36 5.66 2 6 C1.34 4.02 0.68 2.04 0 0 Z " fill="#7474BE" transform="translate(40,123)"/>
<path d="M0 0 C2.3 3.44 2.54 5.94 3 10 C0.52 7.84 -0.59 6.3 -1 3 C-0.67 2.01 -0.34 1.02 0 0 Z " fill="#3632D2" transform="translate(96,96)"/>
<path d="M0 0 C2.5 2.31 2.5 2.31 5 5 C5 5.99 5 6.98 5 8 C2.5 5.69 2.5 5.69 0 3 C0 2.01 0 1.02 0 0 Z " fill="#605E90" transform="translate(103,81)"/>
</svg>
