<?xml version="1.0" encoding="UTF-8"?>
<!-- Generator: https://ezgif.com/png-to-svg -->
<svg version="1.1" xmlns="http://www.w3.org/2000/svg" width="100" height="100">
<path d="M0 0 C1.57 0.74 3.11 1.54 4.62 2.38 C14.01 7.14 23.34 8.44 33.71 9.35 C39.91 9.91 39.91 9.91 41 11 C41.14 13.43 41.21 15.83 41.24 18.26 C41.25 19 41.25 19.75 41.26 20.51 C41.28 22.09 41.29 23.68 41.3 25.26 C41.31 26.86 41.33 28.45 41.36 30.05 C41.72 49.56 37.04 65.09 23.4 79.7 C16.5 86.78 7.47 94.84 -2 98 C-14.28 96.89 -27.32 83.92 -35 75 C-48.98 56.41 -50.95 33.48 -48 11 C-46.12 9.12 -43.34 9.62 -40.82 9.41 C-28.64 8.37 -17.89 6.09 -7.22 -0.14 C-4.35 -1.25 -2.91 -0.91 0 0 Z " fill="#4E647C" transform="translate(54,1)"/>
<path d="M0 0 C9.9 0 19.8 0 30 0 C30 1.98 30 3.96 30 6 C26.37 6 22.74 6 19 6 C19 15.9 19 25.8 19 36 C16.36 36 13.72 36 11 36 C11 26.1 11 16.2 11 6 C7.37 6 3.74 6 0 6 C0 4.02 0 2.04 0 0 Z " fill="#D2DBE4" transform="translate(36,29)"/>
</svg>
