<?xml version="1.0" encoding="UTF-8"?>
<!-- Generator: https://ezgif.com/png-to-svg -->
<svg version="1.1" xmlns="http://www.w3.org/2000/svg" width="100" height="100">
<path d="M0 0 C1.57 0.74 3.11 1.54 4.62 2.38 C14.01 7.14 23.34 8.44 33.71 9.35 C39.91 9.91 39.91 9.91 41 11 C41.14 13.43 41.21 15.83 41.24 18.26 C41.25 19 41.25 19.75 41.26 20.51 C41.28 22.09 41.29 23.68 41.3 25.26 C41.31 26.86 41.33 28.45 41.36 30.05 C41.72 49.56 37.04 65.09 23.4 79.7 C16.5 86.78 7.47 94.84 -2 98 C-14.28 96.89 -27.32 83.92 -35 75 C-48.98 56.41 -50.95 33.48 -48 11 C-46.12 9.12 -43.34 9.62 -40.82 9.41 C-28.64 8.37 -17.89 6.09 -7.22 -0.14 C-4.35 -1.25 -2.91 -0.91 0 0 Z " fill="#4F657D" transform="translate(54,1)"/>
<path d="M0 0 C2.64 0 5.28 0 8 0 C8.01 0.8 8.03 1.6 8.04 2.43 C8.12 6.06 8.22 9.69 8.31 13.31 C8.34 14.58 8.36 15.84 8.38 17.14 C8.42 18.35 8.45 19.56 8.49 20.8 C8.51 21.92 8.54 23.03 8.57 24.18 C8.83 26.94 8.83 26.94 10.03 28.89 C12.78 30.66 12.78 30.66 20 30 C20.33 20.1 20.66 10.2 21 0 C23.64 0 26.28 0 29 0 C29.07 4.04 29.13 8.08 29.16 12.12 C29.18 13.49 29.2 14.86 29.23 16.23 C29.26 18.21 29.28 20.19 29.29 22.17 C29.31 23.36 29.32 24.55 29.34 25.77 C28.97 29.33 28.12 31.15 26 34 C21.26 37.69 16.92 37.55 11.11 37.42 C6.51 36.8 4.96 35.52 2 32 C-0.25 28.5 -0.23 25.6 -0.2 21.48 C-0.19 20.23 -0.18 18.98 -0.18 17.7 C-0.16 16.39 -0.14 15.09 -0.12 13.75 C-0.12 12.43 -0.11 11.12 -0.1 9.76 C-0.07 6.51 -0.04 3.25 0 0 Z " fill="#D0D9E2" transform="translate(35,29)"/>
</svg>
