<?xml version="1.0" encoding="UTF-8"?>
<!-- Generator: https://ezgif.com/png-to-svg -->
<svg version="1.1" xmlns="http://www.w3.org/2000/svg" width="100" height="100">
<path d="M0 0 C1.57 0.74 3.11 1.54 4.62 2.38 C14.01 7.14 23.34 8.44 33.71 9.35 C39.91 9.91 39.91 9.91 41 11 C41.14 13.43 41.21 15.83 41.24 18.26 C41.25 19 41.25 19.75 41.26 20.51 C41.28 22.09 41.29 23.68 41.3 25.26 C41.31 26.86 41.33 28.45 41.36 30.05 C41.72 49.56 37.04 65.09 23.4 79.7 C16.5 86.78 7.47 94.84 -2 98 C-14.28 96.89 -27.32 83.92 -35 75 C-48.98 56.41 -50.95 33.48 -48 11 C-46.12 9.12 -43.34 9.62 -40.82 9.41 C-28.64 8.37 -17.89 6.09 -7.22 -0.14 C-4.35 -1.25 -2.91 -0.91 0 0 Z " fill="#4F657D" transform="translate(54,1)"/>
<path d="M0 0 C2.97 0 5.94 0 9 0 C10.35 3.66 11.68 7.33 13 11 C13.46 12.28 13.46 12.28 13.93 13.59 C14.2 14.37 14.47 15.14 14.75 15.94 C15.11 16.97 15.11 16.97 15.48 18.03 C16 20 16 20 16 24 C16.66 24 17.32 24 18 24 C18.17 23.36 18.34 22.71 18.52 22.05 C20.5 14.64 22.71 7.32 25 0 C27.97 0 30.94 0 34 0 C33.57 1.28 33.13 2.56 32.69 3.88 C31.55 7.27 30.5 10.68 29.5 14.12 C28.28 18.23 26.74 22.08 25 26 C24.45 27.43 23.91 28.87 23.38 30.31 C22 34 22 34 21 36 C18.03 36 15.06 36 12 36 C10.56 32.07 9.12 28.13 7.69 24.19 C7.28 23.09 6.88 21.99 6.46 20.85 C3.97 13.97 1.79 7.09 0 0 Z " fill="#D0D9E2" transform="translate(33,29)"/>
</svg>
