<?xml version="1.0" encoding="UTF-8"?>
<!-- Generator: https://ezgif.com/png-to-svg -->
<svg version="1.1" xmlns="http://www.w3.org/2000/svg" width="100" height="100">
<path d="M0 0 C1.57 0.74 3.11 1.54 4.62 2.38 C14.01 7.14 23.34 8.44 33.71 9.35 C39.91 9.91 39.91 9.91 41 11 C41.14 13.43 41.21 15.83 41.24 18.26 C41.25 19 41.25 19.75 41.26 20.51 C41.28 22.09 41.29 23.68 41.3 25.26 C41.31 26.86 41.33 28.45 41.36 30.05 C41.72 49.56 37.04 65.09 23.4 79.7 C16.5 86.78 7.47 94.84 -2 98 C-14.28 96.89 -27.32 83.92 -35 75 C-48.98 56.41 -50.95 33.48 -48 11 C-46.12 9.12 -43.34 9.62 -40.82 9.41 C-28.64 8.37 -17.89 6.09 -7.22 -0.14 C-4.35 -1.25 -2.91 -0.91 0 0 Z " fill="#4F657D" transform="translate(54,1)"/>
<path d="M0 0 C2.97 0 5.94 0 9 0 C10.32 5.94 11.64 11.88 13 18 C15.49 12.02 17.6 6.32 19 0 C22.3 0 25.6 0 29 0 C31.13 6.3 33.11 12.62 35 19 C36.65 12.73 38.3 6.46 40 0 C42.64 0 45.28 0 48 0 C46.04 9.02 44.04 18.04 41.81 27 C41.56 28.01 41.56 28.01 41.31 29.05 C40.12 33.75 40.12 33.75 39 36 C36.36 36 33.72 36 31 36 C30.73 35.13 30.47 34.26 30.2 33.37 C29.84 32.21 29.49 31.06 29.12 29.88 C28.78 28.74 28.43 27.6 28.07 26.43 C27.38 24.21 26.65 22.01 25.87 19.82 C25 17 25 17 25 13 C24.34 13 23.68 13 23 13 C22.84 14.11 22.84 14.11 22.67 15.24 C21.56 22.33 20 29.1 18 36 C14.7 36 11.4 36 8 36 C7.02 31.68 6.04 27.35 5.06 23.03 C4.73 21.56 4.4 20.09 4.07 18.62 C3.59 16.5 3.11 14.39 2.63 12.27 C2.34 11 2.05 9.72 1.76 8.41 C1.14 5.61 0.55 2.81 0 0 Z " fill="#CFD8E1" transform="translate(26,29)"/>
</svg>
